<?xml version="1.0" encoding="UTF-8" standalone="no"?>
<!DOCTYPE svg PUBLIC "-//W3C//DTD SVG 1.1//EN" "http://www.w3.org/Graphics/SVG/1.1/DTD/svg11.dtd">
<svg width="100%" height="100%" viewBox="0 0 477 666" version="1.1" xmlns="http://www.w3.org/2000/svg" xmlns:xlink="http://www.w3.org/1999/xlink" xml:space="preserve" xmlns:serif="http://www.serif.com/" style="fill-rule:evenodd;clip-rule:evenodd;stroke-linejoin:round;stroke-miterlimit:2;">
    <g transform="matrix(1,0,0,1,-2143,-2245.04)">
        <g id="Page-35" serif:id="Page 35" transform="matrix(2.66667,0,0,2.66667,2143,2245.04)">
            <rect x="0" y="0" width="178.583" height="249.449" style="fill:white;"/>
            <g id="Слой-1" serif:id="Слой 1">
                <g transform="matrix(1,0,0,1,25.7789,22.4717)">
                    <path d="M0,62.665L0,13.756L3.866,20.319L-15.824,20.319L-15.824,9.62L-6.923,9.62C-4.646,9.62 -2.922,9.125 -1.753,8.137C-0.584,7.147 0,5.394 0,2.877L0,0L13.576,0L13.576,62.665L0,62.665Z" style="fill:rgb(29,30,28);fill-rule:nonzero;"/>
                </g>
                <g transform="matrix(1,0,0,1,68.9281,34.3393)">
                    <path d="M0,38.75C2.637,38.75 4.585,37.851 5.844,36.053C7.103,34.254 7.926,31.887 8.316,28.95C8.705,26.014 8.901,22.868 8.901,19.51C8.901,15.974 8.705,12.738 8.316,9.8C7.926,6.864 7.103,4.511 5.844,2.742C4.585,0.975 2.637,0.09 0,0.09C-1.978,0.09 -3.567,0.6 -4.765,1.618C-5.965,2.638 -6.848,4.046 -7.417,5.844C-7.988,7.642 -8.377,9.71 -8.586,12.048C-8.797,14.385 -8.901,16.873 -8.901,19.51C-8.901,22.027 -8.797,24.441 -8.586,26.747C-8.377,29.055 -7.988,31.108 -7.417,32.906C-6.848,34.704 -5.965,36.128 -4.765,37.176C-3.567,38.226 -1.978,38.75 0,38.75M0,51.696C-4.196,51.696 -7.673,50.977 -10.429,49.539C-13.187,48.1 -15.389,46.198 -17.037,43.83C-18.687,41.462 -19.93,38.856 -20.768,36.007C-21.609,33.162 -22.148,30.253 -22.387,27.287C-22.627,24.32 -22.746,21.578 -22.746,19.06C-22.746,16.664 -22.627,14.041 -22.387,11.193C-22.148,8.348 -21.623,5.499 -20.813,2.652C-20.004,-0.193 -18.776,-2.787 -17.127,-5.124C-15.48,-7.462 -13.262,-9.35 -10.474,-10.789C-7.687,-12.228 -4.196,-12.946 0,-12.946C4.255,-12.946 7.777,-12.228 10.564,-10.789C13.351,-9.35 15.568,-7.447 17.217,-5.08C18.865,-2.711 20.079,-0.104 20.859,2.742C21.637,5.59 22.147,8.437 22.387,11.284C22.625,14.131 22.746,16.723 22.746,19.06C22.746,21.578 22.625,24.32 22.387,27.287C22.147,30.253 21.607,33.162 20.768,36.007C19.928,38.856 18.685,41.462 17.037,43.83C15.388,46.198 13.186,48.1 10.429,49.539C7.672,50.977 4.195,51.696 0,51.696" style="fill:rgb(29,30,28);fill-rule:nonzero;"/>
                </g>
                <g transform="matrix(1,0,0,1,154.348,234.043)">
                    <path d="M0,-66.196L0,-14.531L-4.084,-21.464L16.715,-21.464L16.715,-10.162L7.313,-10.162C4.908,-10.162 3.087,-9.64 1.852,-8.595C0.617,-7.55 0,-5.698 0,-3.04L0,0L-14.341,0L-14.341,-66.196L0,-66.196Z" style="fill:rgb(29,30,28);fill-rule:nonzero;"/>
                </g>
                <g transform="matrix(1,0,0,1,108.768,221.506)">
                    <path d="M0,-40.933C-2.785,-40.933 -4.844,-39.984 -6.173,-38.084C-7.503,-36.184 -8.373,-33.684 -8.785,-30.581C-9.196,-27.48 -9.402,-24.156 -9.402,-20.609C-9.402,-16.874 -9.196,-13.455 -8.785,-10.352C-8.373,-7.25 -7.503,-4.765 -6.173,-2.896C-4.844,-1.03 -2.785,-0.095 0,-0.095C2.089,-0.095 3.768,-0.633 5.034,-1.709C6.301,-2.786 7.234,-4.273 7.835,-6.173C8.438,-8.073 8.849,-10.257 9.07,-12.726C9.293,-15.195 9.402,-17.823 9.402,-20.609C9.402,-23.268 9.293,-25.817 9.07,-28.254C8.849,-30.692 8.438,-32.86 7.835,-34.76C7.234,-36.659 6.301,-38.164 5.034,-39.271C3.768,-40.38 2.089,-40.933 0,-40.933M0,-54.609C4.432,-54.609 8.105,-53.849 11.017,-52.33C13.93,-50.81 16.257,-48.8 17.997,-46.299C19.74,-43.798 21.053,-41.045 21.939,-38.036C22.826,-35.03 23.396,-31.958 23.648,-28.824C23.902,-25.69 24.028,-22.794 24.028,-20.134C24.028,-17.603 23.902,-14.831 23.648,-11.824C23.396,-8.818 22.841,-5.809 21.986,-2.801C21.131,0.205 19.834,2.944 18.092,5.413C16.352,7.883 14.009,9.877 11.064,11.397C8.12,12.917 4.432,13.676 0,13.676C-4.495,13.676 -8.215,12.917 -11.159,11.397C-14.103,9.877 -16.445,7.867 -18.187,5.366C-19.928,2.864 -21.21,0.11 -22.034,-2.896C-22.856,-5.905 -23.395,-8.913 -23.648,-11.919C-23.9,-14.927 -24.028,-17.665 -24.028,-20.134C-24.028,-22.794 -23.9,-25.69 -23.648,-28.824C-23.395,-31.958 -22.825,-35.03 -21.939,-38.036C-21.051,-41.045 -19.738,-43.798 -17.997,-46.299C-16.255,-48.8 -13.928,-50.81 -11.017,-52.33C-8.104,-53.849 -4.431,-54.609 0,-54.609" style="fill:rgb(29,30,28);fill-rule:nonzero;"/>
                </g>
                <g transform="matrix(1,0,0,1,168.743,48.6235)">
                    <path d="M0,10.566C-0.388,4.91 -3.651,-0.098 -8.565,-2.43C-14.087,-5.051 -20.874,-3.898 -25.614,0.442C-22.176,-3.128 -20.397,-6.632 -19.494,-8.829C-18.369,-11.565 -17.217,-14.366 -17.722,-18.084C-17.897,-19.379 -18.579,-23.034 -21.66,-26.157C-25.644,-30.195 -30.713,-30.384 -31.916,-30.39L-31.916,-30.422C-32.975,-30.421 -38.184,-30.311 -42.253,-26.188C-45.334,-23.065 -46.016,-19.41 -46.191,-18.115C-46.695,-14.397 -45.543,-11.596 -44.419,-8.86C-43.516,-6.663 -41.737,-3.159 -38.298,0.411C-43.039,-3.929 -49.826,-5.082 -55.348,-2.461C-60.262,-0.129 -63.525,4.879 -63.913,10.535C-63.941,11.563 -63.972,16.491 -60.172,20.676C-56.154,25.101 -50.874,25.37 -49.932,25.401C-48.069,25.226 -43.732,24.555 -39.694,21.266C-37.291,19.309 -35.866,17.136 -35.066,15.654C-34.826,18.341 -34.783,22.071 -35.657,26.386C-36.708,31.579 -38.667,35.552 -40.186,38.102L-40.186,40.957L-31.997,40.957L-31.997,40.988L-23.727,40.988L-23.727,38.133C-25.246,35.583 -27.205,31.61 -28.256,26.417C-29.13,22.103 -29.087,18.372 -28.847,15.686C-28.047,17.167 -26.622,19.34 -24.219,21.297C-20.181,24.586 -15.844,25.257 -13.981,25.432C-13.039,25.401 -7.759,25.132 -3.741,20.707C0.059,16.522 0.028,11.594 0,10.566" style="fill:rgb(29,29,27);fill-rule:nonzero;"/>
                </g>
                <g transform="matrix(1,0,0,1,10.1432,204.276)">
                    <path d="M0,-10.566C0.388,-4.91 3.651,0.098 8.565,2.43C14.087,5.051 20.874,3.898 25.614,-0.442C22.176,3.128 20.397,6.632 19.494,8.829C18.369,11.565 17.217,14.366 17.722,18.084C17.897,19.379 18.579,23.034 21.66,26.157C25.644,30.195 30.713,30.384 31.916,30.39L31.916,30.422C32.975,30.421 38.184,30.311 42.253,26.188C45.334,23.065 46.016,19.41 46.191,18.115C46.695,14.397 45.543,11.596 44.419,8.86C43.516,6.663 41.737,3.159 38.298,-0.411C43.039,3.929 49.826,5.082 55.348,2.461C60.262,0.129 63.525,-4.879 63.913,-10.535C63.941,-11.563 63.972,-16.491 60.172,-20.676C56.154,-25.101 50.874,-25.37 49.932,-25.401C48.069,-25.226 43.732,-24.555 39.694,-21.266C37.291,-19.309 35.866,-17.136 35.066,-15.654C34.826,-18.341 34.783,-22.071 35.657,-26.386C36.708,-31.579 38.667,-35.552 40.186,-38.102L40.186,-40.957L31.997,-40.957L31.997,-40.988L23.727,-40.988L23.727,-38.133C25.246,-35.583 27.205,-31.61 28.256,-26.417C29.13,-22.103 29.087,-18.372 28.847,-15.686C28.047,-17.167 26.622,-19.34 24.219,-21.297C20.181,-24.586 15.844,-25.257 13.981,-25.432C13.039,-25.401 7.759,-25.132 3.741,-20.707C-0.059,-16.522 -0.028,-11.594 0,-10.566" style="fill:rgb(29,29,27);fill-rule:nonzero;"/>
                </g>
            </g>
        </g>
    </g>
</svg>
