<?xml version="1.0" encoding="UTF-8" standalone="no"?>
<!DOCTYPE svg PUBLIC "-//W3C//DTD SVG 1.1//EN" "http://www.w3.org/Graphics/SVG/1.1/DTD/svg11.dtd">
<svg width="100%" height="100%" viewBox="0 0 477 666" version="1.1" xmlns="http://www.w3.org/2000/svg" xmlns:xlink="http://www.w3.org/1999/xlink" xml:space="preserve" xmlns:serif="http://www.serif.com/" style="fill-rule:evenodd;clip-rule:evenodd;stroke-linejoin:round;stroke-miterlimit:2;">
    <g transform="matrix(1,0,0,1,-3214.49,-1496.69)">
        <g id="Page-27" serif:id="Page 27" transform="matrix(2.66667,0,0,2.66667,3214.49,1496.69)">
            <rect x="0" y="0" width="178.583" height="249.449" style="fill:white;"/>
            <g id="Слой-1" serif:id="Слой 1">
                <g transform="matrix(1,0,0,1,19.8046,16.0375)">
                    <path d="M0,71.91L0,60.69C2.04,59.262 4.437,57.563 7.191,55.59C9.945,53.619 12.766,51.443 15.657,49.062C18.546,46.682 21.232,44.115 23.715,41.361C26.197,38.607 28.219,35.768 29.784,32.844C31.348,29.921 32.13,26.928 32.13,23.868C32.13,21.42 31.518,19.313 30.294,17.544C29.07,15.776 26.995,14.892 24.072,14.892C21.487,14.892 19.516,15.59 18.156,16.983C16.795,18.378 15.826,20.078 15.249,22.083C14.67,24.09 14.313,26.01 14.178,27.846L-0.918,26.622C-0.918,23.495 -0.375,20.366 0.714,17.238C1.801,14.111 3.417,11.237 5.559,8.619C7.701,6.002 10.353,3.911 13.515,2.346C16.677,0.782 20.332,0 24.48,0C28.899,0 32.844,0.969 36.312,2.907C39.78,4.845 42.499,7.565 44.472,11.067C46.443,14.57 47.43,18.666 47.43,23.358C47.43,26.759 46.903,30.056 45.849,33.252C44.794,36.449 43.282,39.525 41.31,42.483C39.337,45.441 36.924,48.23 34.068,50.847C31.212,53.466 27.948,55.896 24.276,58.14C20.604,60.384 16.591,62.39 12.24,64.158L16.32,57.63L50.184,57.63L50.184,71.91L0,71.91Z" style="fill:rgb(29,30,28);fill-rule:nonzero;"/>
                </g>
                <g transform="matrix(1,0,0,1,158.004,235.753)">
                    <path d="M0,-71.91L0,-60.69C-2.04,-59.262 -4.437,-57.563 -7.191,-55.59C-9.945,-53.619 -12.766,-51.443 -15.657,-49.062C-18.546,-46.682 -21.232,-44.115 -23.715,-41.361C-26.197,-38.607 -28.219,-35.768 -29.784,-32.844C-31.348,-29.921 -32.13,-26.928 -32.13,-23.868C-32.13,-21.42 -31.518,-19.313 -30.294,-17.544C-29.07,-15.776 -26.995,-14.892 -24.072,-14.892C-21.487,-14.892 -19.516,-15.59 -18.156,-16.983C-16.795,-18.378 -15.826,-20.078 -15.249,-22.083C-14.67,-24.09 -14.313,-26.01 -14.178,-27.846L0.918,-26.622C0.918,-23.495 0.375,-20.366 -0.714,-17.238C-1.801,-14.111 -3.417,-11.237 -5.559,-8.619C-7.701,-6.002 -10.353,-3.911 -13.515,-2.346C-16.677,-0.782 -20.332,0 -24.48,0C-28.899,0 -32.844,-0.969 -36.312,-2.907C-39.78,-4.845 -42.499,-7.565 -44.472,-11.067C-46.443,-14.57 -47.43,-18.666 -47.43,-23.358C-47.43,-26.759 -46.903,-30.056 -45.849,-33.252C-44.794,-36.449 -43.282,-39.525 -41.31,-42.483C-39.337,-45.441 -36.924,-48.23 -34.068,-50.847C-31.212,-53.466 -27.948,-55.896 -24.276,-58.14C-20.604,-60.384 -16.591,-62.39 -12.24,-64.158L-16.32,-57.63L-50.184,-57.63L-50.184,-71.91L0,-71.91Z" style="fill:rgb(29,30,28);fill-rule:nonzero;"/>
                </g>
                <g transform="matrix(1,0,0,1,166.962,49.1266)">
                    <path d="M0,10.566C-0.388,4.91 -3.651,-0.098 -8.565,-2.43C-14.087,-5.051 -20.874,-3.898 -25.614,0.442C-22.176,-3.128 -20.397,-6.632 -19.494,-8.829C-18.369,-11.565 -17.217,-14.366 -17.722,-18.084C-17.897,-19.379 -18.579,-23.034 -21.66,-26.157C-25.644,-30.195 -30.713,-30.384 -31.916,-30.39L-31.916,-30.422C-32.975,-30.421 -38.184,-30.311 -42.253,-26.188C-45.334,-23.065 -46.016,-19.41 -46.191,-18.115C-46.695,-14.397 -45.543,-11.596 -44.419,-8.86C-43.516,-6.663 -41.737,-3.159 -38.298,0.411C-43.039,-3.929 -49.826,-5.082 -55.348,-2.461C-60.262,-0.129 -63.525,4.879 -63.913,10.535C-63.941,11.563 -63.972,16.491 -60.172,20.676C-56.154,25.101 -50.874,25.37 -49.932,25.401C-48.069,25.226 -43.732,24.555 -39.694,21.266C-37.291,19.309 -35.866,17.136 -35.066,15.654C-34.826,18.341 -34.783,22.071 -35.657,26.386C-36.708,31.579 -38.667,35.552 -40.186,38.102L-40.186,40.957L-31.997,40.957L-31.997,40.988L-23.727,40.988L-23.727,38.133C-25.246,35.583 -27.205,31.61 -28.256,26.417C-29.13,22.103 -29.087,18.372 -28.847,15.686C-28.047,17.167 -26.622,19.34 -24.219,21.297C-20.181,24.586 -15.844,25.257 -13.981,25.432C-13.039,25.401 -7.759,25.132 -3.741,20.707C0.059,16.522 0.028,11.594 0,10.566" style="fill:rgb(29,29,27);fill-rule:nonzero;"/>
                </g>
                <g transform="matrix(1,0,0,1,12.3622,204.779)">
                    <path d="M0,-10.566C0.388,-4.91 3.651,0.098 8.565,2.43C14.087,5.051 20.874,3.898 25.614,-0.442C22.176,3.128 20.397,6.632 19.494,8.829C18.369,11.565 17.217,14.366 17.721,18.084C17.897,19.379 18.579,23.034 21.66,26.157C25.644,30.195 30.713,30.384 31.916,30.39L31.916,30.422C32.975,30.421 38.184,30.311 42.253,26.188C45.334,23.065 46.016,19.41 46.191,18.115C46.695,14.397 45.543,11.596 44.419,8.86C43.516,6.663 41.737,3.159 38.298,-0.411C43.039,3.929 49.826,5.082 55.348,2.461C60.262,0.129 63.525,-4.879 63.913,-10.535C63.941,-11.563 63.972,-16.491 60.172,-20.676C56.154,-25.101 50.874,-25.37 49.932,-25.401C48.069,-25.226 43.732,-24.555 39.694,-21.266C37.291,-19.309 35.866,-17.136 35.066,-15.654C34.826,-18.341 34.783,-22.071 35.657,-26.386C36.708,-31.579 38.667,-35.552 40.186,-38.102L40.186,-40.957L31.997,-40.957L31.997,-40.988L23.727,-40.988L23.727,-38.133C25.246,-35.583 27.205,-31.61 28.256,-26.417C29.13,-22.103 29.087,-18.372 28.847,-15.686C28.047,-17.167 26.622,-19.34 24.219,-21.297C20.181,-24.586 15.844,-25.257 13.981,-25.432C13.039,-25.401 7.759,-25.132 3.741,-20.707C-0.059,-16.522 -0.029,-11.594 0,-10.566" style="fill:rgb(29,29,27);fill-rule:nonzero;"/>
                </g>
            </g>
        </g>
    </g>
</svg>
