<?xml version="1.0" encoding="UTF-8" standalone="no"?>
<!DOCTYPE svg PUBLIC "-//W3C//DTD SVG 1.1//EN" "http://www.w3.org/Graphics/SVG/1.1/DTD/svg11.dtd">
<svg width="100%" height="100%" viewBox="0 0 477 666" version="1.1" xmlns="http://www.w3.org/2000/svg" xmlns:xlink="http://www.w3.org/1999/xlink" xml:space="preserve" xmlns:serif="http://www.serif.com/" style="fill-rule:evenodd;clip-rule:evenodd;stroke-linejoin:round;stroke-miterlimit:2;">
    <g transform="matrix(1,0,0,1,-3750.24,-1496.69)">
        <g id="Page-28" serif:id="Page 28" transform="matrix(2.66667,0,0,2.66667,3750.24,1496.69)">
            <rect x="0" y="0" width="178.583" height="249.449" style="fill:white;"/>
            <g id="Слой-1" serif:id="Слой 1">
                <g transform="matrix(1,0,0,1,46.8935,18.5147)">
                    <path d="M0,69.655C-5.182,69.655 -9.715,68.699 -13.601,66.789C-17.486,64.88 -20.515,62.192 -22.684,58.726C-24.855,55.262 -25.939,51.231 -25.939,46.631L-11.366,45.757C-11.366,48.736 -10.282,51.134 -8.112,52.945C-5.943,54.76 -3.077,55.666 0.486,55.666C2.818,55.666 4.776,55.343 6.364,54.695C7.949,54.048 9.164,53.091 10.006,51.828C10.848,50.565 11.269,49.06 11.269,47.311C11.269,45.887 10.993,44.656 10.444,43.619C9.893,42.584 9.018,41.741 7.82,41.094C6.621,40.447 5.115,39.961 3.303,39.637C1.489,39.313 -0.68,39.15 -3.206,39.15L-3.206,27.687C-1.457,27.687 0.081,27.541 1.409,27.25C2.735,26.959 3.837,26.521 4.712,25.939C5.586,25.356 6.233,24.611 6.655,23.704C7.075,22.798 7.286,21.729 7.286,20.498C7.286,19.074 6.995,17.892 6.412,16.952C5.829,16.014 4.986,15.285 3.886,14.766C2.784,14.249 1.457,13.989 -0.097,13.989C-2.688,13.989 -4.728,14.669 -6.218,16.029C-7.708,17.39 -8.485,19.301 -8.549,21.761L-23.024,20.79C-23.024,16.775 -22.021,13.197 -20.012,10.054C-18.006,6.914 -15.237,4.454 -11.706,2.672C-8.177,0.89 -4.145,0 0.389,0C4.663,0 8.419,0.811 11.658,2.429C14.896,4.048 17.422,6.265 19.235,9.083C21.048,11.901 21.956,15.188 21.956,18.944C21.956,20.303 21.81,21.6 21.519,22.829C21.227,24.06 20.805,25.226 20.256,26.327C19.705,27.429 19.024,28.415 18.215,29.29C17.405,30.165 16.482,30.959 15.447,31.671C17.13,32.384 18.636,33.273 19.964,34.341C21.291,35.41 22.393,36.61 23.267,37.936C24.141,39.264 24.805,40.722 25.259,42.308C25.711,43.896 25.939,45.596 25.939,47.408C25.939,51.813 24.853,55.682 22.684,59.017C20.514,62.354 17.487,64.96 13.601,66.838C9.715,68.715 5.181,69.655 0,69.655" style="fill:rgb(29,30,28);fill-rule:nonzero;"/>
                </g>
                <g transform="matrix(1,0,0,1,129.681,234.127)">
                    <path d="M0,-69.655C5.182,-69.655 9.715,-68.699 13.601,-66.789C17.486,-64.88 20.515,-62.192 22.684,-58.726C24.855,-55.262 25.939,-51.231 25.939,-46.631L11.366,-45.757C11.366,-48.736 10.282,-51.134 8.112,-52.945C5.943,-54.76 3.077,-55.666 -0.486,-55.666C-2.818,-55.666 -4.776,-55.343 -6.364,-54.695C-7.949,-54.048 -9.164,-53.091 -10.006,-51.828C-10.848,-50.565 -11.269,-49.06 -11.269,-47.311C-11.269,-45.887 -10.993,-44.656 -10.444,-43.619C-9.893,-42.584 -9.018,-41.741 -7.82,-41.094C-6.621,-40.447 -5.115,-39.961 -3.303,-39.637C-1.489,-39.313 0.68,-39.15 3.206,-39.15L3.206,-27.687C1.457,-27.687 -0.081,-27.541 -1.409,-27.25C-2.735,-26.959 -3.837,-26.521 -4.712,-25.939C-5.586,-25.356 -6.233,-24.611 -6.655,-23.704C-7.075,-22.798 -7.286,-21.729 -7.286,-20.498C-7.286,-19.074 -6.995,-17.892 -6.412,-16.952C-5.829,-16.014 -4.986,-15.285 -3.886,-14.766C-2.784,-14.249 -1.457,-13.989 0.097,-13.989C2.688,-13.989 4.728,-14.669 6.218,-16.029C7.708,-17.39 8.485,-19.301 8.549,-21.761L23.024,-20.79C23.024,-16.775 22.021,-13.197 20.012,-10.054C18.006,-6.914 15.237,-4.454 11.706,-2.671C8.177,-0.89 4.145,0 -0.389,0C-4.663,0 -8.419,-0.811 -11.658,-2.429C-14.896,-4.048 -17.422,-6.265 -19.235,-9.083C-21.048,-11.901 -21.956,-15.188 -21.956,-18.944C-21.956,-20.303 -21.81,-21.6 -21.519,-22.829C-21.227,-24.06 -20.805,-25.226 -20.256,-26.327C-19.705,-27.429 -19.024,-28.415 -18.215,-29.29C-17.405,-30.165 -16.482,-30.959 -15.447,-31.671C-17.13,-32.384 -18.636,-33.273 -19.964,-34.341C-21.291,-35.41 -22.393,-36.61 -23.267,-37.936C-24.141,-39.264 -24.805,-40.722 -25.259,-42.308C-25.711,-43.896 -25.939,-45.596 -25.939,-47.408C-25.939,-51.813 -24.853,-55.682 -22.684,-59.017C-20.514,-62.354 -17.487,-64.96 -13.601,-66.838C-9.715,-68.715 -5.181,-69.655 0,-69.655" style="fill:rgb(29,30,28);fill-rule:nonzero;"/>
                </g>
                <g transform="matrix(1,0,0,1,164.796,48.449)">
                    <path d="M0,10.566C-0.388,4.91 -3.651,-0.098 -8.565,-2.43C-14.087,-5.051 -20.874,-3.898 -25.614,0.442C-22.176,-3.128 -20.397,-6.632 -19.494,-8.829C-18.369,-11.565 -17.217,-14.366 -17.721,-18.084C-17.897,-19.379 -18.579,-23.034 -21.66,-26.157C-25.644,-30.195 -30.713,-30.384 -31.916,-30.39L-31.916,-30.422C-32.975,-30.421 -38.184,-30.311 -42.253,-26.188C-45.334,-23.065 -46.016,-19.41 -46.191,-18.115C-46.695,-14.397 -45.543,-11.596 -44.419,-8.86C-43.516,-6.663 -41.737,-3.159 -38.298,0.411C-43.039,-3.929 -49.826,-5.082 -55.348,-2.461C-60.262,-0.129 -63.525,4.879 -63.913,10.535C-63.941,11.563 -63.972,16.491 -60.172,20.676C-56.154,25.101 -50.874,25.37 -49.932,25.401C-48.069,25.226 -43.732,24.555 -39.694,21.266C-37.291,19.309 -35.866,17.136 -35.066,15.654C-34.826,18.341 -34.783,22.071 -35.657,26.386C-36.708,31.579 -38.667,35.552 -40.186,38.102L-40.186,40.957L-31.997,40.957L-31.997,40.988L-23.727,40.988L-23.727,38.133C-25.246,35.583 -27.205,31.61 -28.256,26.417C-29.13,22.103 -29.087,18.372 -28.847,15.686C-28.047,17.167 -26.622,19.34 -24.219,21.297C-20.181,24.586 -15.844,25.257 -13.981,25.432C-13.039,25.401 -7.759,25.132 -3.741,20.707C0.059,16.522 0.029,11.594 0,10.566" style="fill:rgb(29,29,27);fill-rule:nonzero;"/>
                </g>
                <g transform="matrix(1,0,0,1,10.1959,204.101)">
                    <path d="M0,-10.566C0.388,-4.91 3.651,0.098 8.565,2.43C14.087,5.051 20.874,3.898 25.614,-0.442C22.176,3.128 20.397,6.632 19.494,8.829C18.369,11.565 17.217,14.366 17.722,18.084C17.897,19.379 18.579,23.034 21.66,26.157C25.644,30.195 30.713,30.384 31.916,30.39L31.916,30.422C32.975,30.421 38.184,30.311 42.253,26.188C45.334,23.065 46.016,19.41 46.191,18.115C46.695,14.397 45.543,11.596 44.419,8.86C43.516,6.663 41.737,3.159 38.298,-0.411C43.039,3.929 49.826,5.082 55.348,2.461C60.262,0.129 63.525,-4.879 63.913,-10.535C63.941,-11.563 63.972,-16.491 60.172,-20.676C56.154,-25.101 50.874,-25.37 49.932,-25.401C48.069,-25.226 43.732,-24.555 39.694,-21.266C37.291,-19.309 35.866,-17.136 35.066,-15.654C34.826,-18.341 34.783,-22.071 35.657,-26.386C36.708,-31.579 38.667,-35.552 40.186,-38.102L40.186,-40.957L31.997,-40.957L31.997,-40.988L23.727,-40.988L23.727,-38.133C25.246,-35.583 27.205,-31.61 28.256,-26.417C29.13,-22.103 29.087,-18.372 28.847,-15.686C28.047,-17.167 26.622,-19.34 24.219,-21.297C20.181,-24.586 15.844,-25.257 13.981,-25.432C13.039,-25.401 7.759,-25.132 3.741,-20.707C-0.059,-16.522 -0.028,-11.594 0,-10.566" style="fill:rgb(29,29,27);fill-rule:nonzero;"/>
                </g>
            </g>
        </g>
    </g>
</svg>
