<?xml version="1.0" encoding="UTF-8" standalone="no"?>
<!DOCTYPE svg PUBLIC "-//W3C//DTD SVG 1.1//EN" "http://www.w3.org/Graphics/SVG/1.1/DTD/svg11.dtd">
<svg width="100%" height="100%" viewBox="0 0 477 666" version="1.1" xmlns="http://www.w3.org/2000/svg" xmlns:xlink="http://www.w3.org/1999/xlink" xml:space="preserve" xmlns:serif="http://www.serif.com/" style="fill-rule:evenodd;clip-rule:evenodd;stroke-linejoin:round;stroke-miterlimit:2;">
    <g transform="matrix(1,0,0,1,-4821.74,-1496.69)">
        <g id="Page-30" serif:id="Page 30" transform="matrix(2.66667,0,0,2.66667,4821.74,1496.69)">
            <rect x="0" y="0" width="178.583" height="249.449" style="fill:white;"/>
            <g id="Слой-1" serif:id="Слой 1">
                <g transform="matrix(1,0,0,1,46.4511,18.9538)">
                    <path d="M0,70.327C-4.569,70.327 -8.725,69.349 -12.466,67.396C-16.208,65.444 -19.254,62.844 -21.604,59.598C-23.955,56.356 -25.396,52.745 -25.925,48.772L-11.224,46.288C-11.159,47.614 -10.745,49.038 -9.983,50.559C-9.222,52.084 -8.03,53.376 -6.407,54.433C-4.785,55.494 -2.716,56.023 -0.199,56.023C2.449,56.023 4.519,55.444 6.009,54.285C7.499,53.127 8.575,51.669 9.238,49.914C9.899,48.16 10.231,46.422 10.231,44.7C10.231,43.044 9.916,41.471 9.287,39.981C8.657,38.492 7.582,37.267 6.059,36.306C4.535,35.347 2.449,34.866 -0.199,34.866C-2.848,34.866 -4.966,35.429 -6.556,36.555C-8.145,37.681 -9.337,38.906 -10.132,40.229L-23.939,36.852L-16.985,0L23.144,0L23.144,13.907L-11.423,13.907L-3.476,7.649L-7.549,28.41L-12.515,27.018C-9.933,24.237 -7.367,22.516 -4.817,21.853C-2.269,21.192 -0.034,20.86 1.887,20.86C6.72,20.86 10.959,21.97 14.601,24.187C18.243,26.407 21.073,29.337 23.094,32.978C25.114,36.621 26.124,40.528 26.124,44.7C26.124,48.011 25.494,51.19 24.236,54.235C22.978,57.282 21.19,60.013 18.873,62.43C16.554,64.848 13.79,66.768 10.578,68.191C7.366,69.615 3.84,70.327 0,70.327" style="fill:rgb(29,30,28);fill-rule:nonzero;"/>
                </g>
                <g transform="matrix(1,0,0,1,134.637,234.561)">
                    <path d="M0,-70.327C4.569,-70.327 8.725,-69.349 12.466,-67.396C16.208,-65.444 19.254,-62.844 21.604,-59.598C23.955,-56.356 25.396,-52.745 25.925,-48.772L11.224,-46.288C11.159,-47.614 10.745,-49.038 9.983,-50.559C9.222,-52.084 8.03,-53.376 6.407,-54.433C4.785,-55.494 2.716,-56.023 0.199,-56.023C-2.449,-56.023 -4.519,-55.444 -6.009,-54.285C-7.499,-53.127 -8.575,-51.669 -9.238,-49.914C-9.899,-48.16 -10.231,-46.422 -10.231,-44.7C-10.231,-43.044 -9.916,-41.471 -9.287,-39.981C-8.657,-38.492 -7.582,-37.267 -6.059,-36.306C-4.535,-35.347 -2.449,-34.866 0.199,-34.866C2.848,-34.866 4.966,-35.429 6.556,-36.555C8.145,-37.681 9.337,-38.906 10.132,-40.229L23.939,-36.852L16.985,0L-23.144,0L-23.144,-13.907L11.423,-13.907L3.476,-7.649L7.549,-28.41L12.515,-27.018C9.933,-24.237 7.367,-22.516 4.817,-21.853C2.269,-21.192 0.034,-20.86 -1.887,-20.86C-6.72,-20.86 -10.959,-21.97 -14.601,-24.187C-18.243,-26.407 -21.073,-29.337 -23.094,-32.978C-25.114,-36.621 -26.124,-40.528 -26.124,-44.7C-26.124,-48.011 -25.494,-51.19 -24.236,-54.235C-22.978,-57.282 -21.19,-60.013 -18.873,-62.43C-16.554,-64.848 -13.79,-66.768 -10.578,-68.191C-7.366,-69.615 -3.84,-70.327 0,-70.327" style="fill:rgb(29,30,28);fill-rule:nonzero;"/>
                </g>
                <g transform="matrix(1,0,0,1,166.82,48.0413)">
                    <path d="M0,10.566C-0.388,4.91 -3.651,-0.098 -8.565,-2.43C-14.087,-5.051 -20.874,-3.898 -25.614,0.442C-22.176,-3.128 -20.397,-6.632 -19.494,-8.829C-18.369,-11.565 -17.217,-14.366 -17.722,-18.084C-17.897,-19.379 -18.579,-23.034 -21.66,-26.157C-25.644,-30.195 -30.713,-30.384 -31.916,-30.39L-31.916,-30.422C-32.975,-30.421 -38.184,-30.311 -42.253,-26.188C-45.334,-23.065 -46.016,-19.41 -46.191,-18.115C-46.695,-14.397 -45.543,-11.596 -44.419,-8.86C-43.516,-6.663 -41.737,-3.159 -38.298,0.411C-43.039,-3.929 -49.826,-5.082 -55.348,-2.461C-60.262,-0.129 -63.525,4.879 -63.913,10.535C-63.941,11.563 -63.972,16.491 -60.172,20.676C-56.154,25.101 -50.874,25.37 -49.932,25.401C-48.069,25.226 -43.732,24.555 -39.694,21.266C-37.291,19.309 -35.866,17.136 -35.066,15.654C-34.826,18.341 -34.783,22.071 -35.657,26.386C-36.708,31.579 -38.667,35.552 -40.186,38.102L-40.186,40.957L-31.997,40.957L-31.997,40.988L-23.727,40.988L-23.727,38.133C-25.246,35.583 -27.205,31.61 -28.256,26.417C-29.13,22.103 -29.087,18.372 -28.847,15.686C-28.047,17.167 -26.622,19.34 -24.219,21.297C-20.181,24.586 -15.844,25.257 -13.981,25.432C-13.039,25.401 -7.759,25.132 -3.741,20.707C0.059,16.522 0.029,11.594 0,10.566" style="fill:rgb(29,29,27);fill-rule:nonzero;"/>
                </g>
                <g transform="matrix(1,0,0,1,12.2203,203.693)">
                    <path d="M0,-10.566C0.388,-4.91 3.651,0.098 8.565,2.43C14.087,5.051 20.874,3.898 25.614,-0.442C22.176,3.128 20.397,6.632 19.494,8.829C18.369,11.565 17.217,14.366 17.721,18.084C17.897,19.379 18.579,23.034 21.66,26.157C25.644,30.195 30.713,30.384 31.916,30.39L31.916,30.422C32.975,30.421 38.184,30.311 42.253,26.188C45.334,23.065 46.016,19.41 46.191,18.115C46.695,14.397 45.543,11.596 44.419,8.86C43.516,6.663 41.737,3.159 38.298,-0.411C43.039,3.929 49.826,5.082 55.348,2.461C60.262,0.129 63.525,-4.879 63.913,-10.535C63.941,-11.563 63.972,-16.491 60.172,-20.676C56.154,-25.101 50.874,-25.37 49.932,-25.401C48.069,-25.226 43.732,-24.555 39.694,-21.266C37.291,-19.309 35.866,-17.136 35.066,-15.654C34.826,-18.341 34.783,-22.071 35.657,-26.386C36.708,-31.579 38.667,-35.552 40.186,-38.102L40.186,-40.957L31.997,-40.957L31.997,-40.988L23.727,-40.988L23.727,-38.133C25.246,-35.583 27.205,-31.61 28.256,-26.417C29.13,-22.103 29.087,-18.372 28.847,-15.686C28.047,-17.167 26.622,-19.34 24.219,-21.297C20.181,-24.586 15.844,-25.257 13.981,-25.432C13.039,-25.401 7.759,-25.132 3.741,-20.707C-0.059,-16.522 -0.029,-11.594 0,-10.566" style="fill:rgb(29,29,27);fill-rule:nonzero;"/>
                </g>
            </g>
        </g>
    </g>
</svg>
