<?xml version="1.0" encoding="UTF-8" standalone="no"?>
<!DOCTYPE svg PUBLIC "-//W3C//DTD SVG 1.1//EN" "http://www.w3.org/Graphics/SVG/1.1/DTD/svg11.dtd">
<svg width="100%" height="100%" viewBox="0 0 477 666" version="1.1" xmlns="http://www.w3.org/2000/svg" xmlns:xlink="http://www.w3.org/1999/xlink" xml:space="preserve" xmlns:serif="http://www.serif.com/" style="fill-rule:evenodd;clip-rule:evenodd;stroke-linejoin:round;stroke-miterlimit:2;">
    <g transform="matrix(1,0,0,1,0,-2245.04)">
        <g id="Page-31" serif:id="Page 31" transform="matrix(2.66667,0,0,2.66667,0,2245.04)">
            <rect x="0" y="0" width="178.583" height="249.449" style="fill:white;"/>
            <g id="Слой-1" serif:id="Слой 1">
                <g transform="matrix(1,0,0,1,45.851,53.1557)">
                    <path d="M0,-0.202C-2.09,-0.202 -3.978,0.22 -5.663,1.063C-7.349,1.906 -8.697,3.12 -9.708,4.703C-10.72,6.287 -11.225,8.226 -11.225,10.518C-11.225,12.743 -10.72,14.648 -9.708,16.231C-8.697,17.817 -7.349,19.03 -5.663,19.873C-3.978,20.716 -2.09,21.136 0,21.136C2.089,21.136 3.96,20.716 5.613,19.873C7.264,19.03 8.596,17.817 9.607,16.231C10.619,14.648 11.124,12.743 11.124,10.518C11.124,8.226 10.635,6.287 9.658,4.703C8.68,3.12 7.348,1.906 5.663,1.063C3.977,0.22 2.089,-0.202 0,-0.202M15.776,-35.901L-1.315,-10.719L-3.236,-13.147C-2.293,-13.281 -1.383,-13.4 -0.505,-13.5C0.37,-13.601 1.247,-13.652 2.124,-13.652C6.776,-13.652 10.955,-12.59 14.664,-10.467C18.371,-8.343 21.288,-5.461 23.412,-1.82C25.535,1.821 26.597,5.934 26.597,10.518C26.597,15.508 25.384,19.89 22.957,23.665C20.53,27.441 17.309,30.39 13.298,32.514C9.286,34.637 4.855,35.699 0,35.699C-4.854,35.699 -9.321,34.637 -13.399,32.514C-17.479,30.39 -20.731,27.441 -23.158,23.665C-25.585,19.89 -26.799,15.541 -26.799,10.619C-26.799,8.259 -26.445,5.934 -25.737,3.641C-25.029,1.349 -24.035,-0.841 -22.754,-2.932L-1.82,-35.901L15.776,-35.901Z" style="fill:rgb(29,30,28);fill-rule:nonzero;"/>
                </g>
                <g transform="matrix(1,0,0,1,138.039,198.513)">
                    <path d="M0,0.202C2.09,0.202 3.978,-0.22 5.663,-1.063C7.349,-1.906 8.697,-3.12 9.708,-4.703C10.72,-6.287 11.225,-8.226 11.225,-10.518C11.225,-12.743 10.72,-14.648 9.708,-16.231C8.697,-17.817 7.349,-19.03 5.663,-19.873C3.978,-20.716 2.09,-21.136 0,-21.136C-2.089,-21.136 -3.96,-20.716 -5.613,-19.873C-7.264,-19.03 -8.596,-17.817 -9.607,-16.231C-10.619,-14.648 -11.124,-12.743 -11.124,-10.518C-11.124,-8.226 -10.635,-6.287 -9.658,-4.703C-8.68,-3.12 -7.348,-1.906 -5.663,-1.063C-3.977,-0.22 -2.089,0.202 0,0.202M-15.776,35.901L1.315,10.719L3.236,13.147C2.293,13.281 1.383,13.4 0.505,13.5C-0.37,13.601 -1.247,13.652 -2.124,13.652C-6.776,13.652 -10.955,12.59 -14.664,10.467C-18.371,8.343 -21.288,5.461 -23.412,1.82C-25.535,-1.821 -26.597,-5.934 -26.597,-10.518C-26.597,-15.508 -25.384,-19.89 -22.957,-23.665C-20.53,-27.441 -17.309,-30.39 -13.298,-32.514C-9.286,-34.637 -4.855,-35.699 0,-35.699C4.854,-35.699 9.321,-34.637 13.399,-32.514C17.479,-30.39 20.731,-27.441 23.158,-23.665C25.585,-19.89 26.799,-15.541 26.799,-10.619C26.799,-8.259 26.445,-5.934 25.737,-3.641C25.029,-1.349 24.035,0.841 22.754,2.932L1.82,35.901L-15.776,35.901Z" style="fill:rgb(29,30,28);fill-rule:nonzero;"/>
                </g>
                <g transform="matrix(1,0,0,1,163.467,48.6235)">
                    <path d="M0,10.566C-0.388,4.91 -3.651,-0.098 -8.565,-2.43C-14.087,-5.051 -20.874,-3.898 -25.614,0.442C-22.176,-3.128 -20.397,-6.632 -19.494,-8.829C-18.369,-11.565 -17.217,-14.366 -17.722,-18.084C-17.897,-19.379 -18.579,-23.034 -21.66,-26.157C-25.644,-30.195 -30.713,-30.384 -31.916,-30.39L-31.916,-30.422C-32.975,-30.421 -38.184,-30.311 -42.253,-26.188C-45.334,-23.065 -46.016,-19.41 -46.191,-18.115C-46.695,-14.397 -45.543,-11.596 -44.419,-8.86C-43.516,-6.663 -41.737,-3.159 -38.298,0.411C-43.039,-3.929 -49.826,-5.082 -55.348,-2.461C-60.262,-0.129 -63.525,4.879 -63.913,10.535C-63.941,11.563 -63.972,16.491 -60.172,20.676C-56.154,25.101 -50.874,25.37 -49.932,25.401C-48.069,25.226 -43.732,24.555 -39.694,21.266C-37.291,19.309 -35.866,17.136 -35.066,15.654C-34.826,18.341 -34.783,22.071 -35.657,26.386C-36.708,31.579 -38.667,35.552 -40.186,38.102L-40.186,40.957L-31.997,40.957L-31.997,40.988L-23.727,40.988L-23.727,38.133C-25.246,35.583 -27.205,31.61 -28.256,26.417C-29.13,22.103 -29.087,18.372 -28.847,15.686C-28.047,17.167 -26.622,19.34 -24.219,21.297C-20.181,24.586 -15.844,25.257 -13.981,25.432C-13.039,25.401 -7.759,25.132 -3.741,20.707C0.059,16.522 0.028,11.594 0,10.566" style="fill:rgb(29,29,27);fill-rule:nonzero;"/>
                </g>
                <g transform="matrix(1,0,0,1,8.8673,204.276)">
                    <path d="M0,-10.566C0.388,-4.91 3.651,0.098 8.565,2.43C14.087,5.051 20.874,3.898 25.614,-0.442C22.176,3.128 20.397,6.632 19.494,8.829C18.369,11.565 17.217,14.366 17.721,18.084C17.897,19.379 18.579,23.034 21.66,26.157C25.644,30.195 30.713,30.384 31.916,30.39L31.916,30.422C32.975,30.421 38.184,30.311 42.253,26.188C45.334,23.065 46.016,19.41 46.191,18.115C46.695,14.397 45.543,11.596 44.419,8.86C43.516,6.663 41.737,3.159 38.298,-0.411C43.039,3.929 49.826,5.082 55.348,2.461C60.262,0.129 63.525,-4.879 63.913,-10.535C63.941,-11.563 63.972,-16.491 60.172,-20.676C56.154,-25.101 50.874,-25.37 49.932,-25.401C48.069,-25.226 43.732,-24.555 39.694,-21.266C37.291,-19.309 35.866,-17.136 35.066,-15.654C34.826,-18.341 34.783,-22.071 35.657,-26.386C36.708,-31.579 38.667,-35.552 40.186,-38.102L40.186,-40.957L31.997,-40.957L31.997,-40.988L23.727,-40.988L23.727,-38.133C25.246,-35.583 27.205,-31.61 28.256,-26.417C29.13,-22.103 29.087,-18.372 28.847,-15.686C28.047,-17.167 26.622,-19.34 24.219,-21.297C20.181,-24.586 15.844,-25.257 13.981,-25.432C13.039,-25.401 7.759,-25.132 3.741,-20.707C-0.059,-16.522 -0.029,-11.594 0,-10.566" style="fill:rgb(29,29,27);fill-rule:nonzero;"/>
                </g>
            </g>
        </g>
    </g>
</svg>
