<?xml version="1.0" encoding="UTF-8" standalone="no"?>
<!DOCTYPE svg PUBLIC "-//W3C//DTD SVG 1.1//EN" "http://www.w3.org/Graphics/SVG/1.1/DTD/svg11.dtd">
<svg width="100%" height="100%" viewBox="0 0 477 666" version="1.1" xmlns="http://www.w3.org/2000/svg" xmlns:xlink="http://www.w3.org/1999/xlink" xml:space="preserve" xmlns:serif="http://www.serif.com/" style="fill-rule:evenodd;clip-rule:evenodd;stroke-linejoin:round;stroke-miterlimit:2;">
    <g transform="matrix(1,0,0,1,-1071.5,-2245.04)">
        <g id="Page-33" serif:id="Page 33" transform="matrix(2.66667,0,0,2.66667,1071.5,2245.04)">
            <rect x="0" y="0" width="178.583" height="249.449" style="fill:white;"/>
            <g id="Слой-1" serif:id="Слой 1">
                <g transform="matrix(1,0,0,1,48.1192,60.7166)">
                    <path d="M0,-14.021C2.577,-14.021 4.656,-14.616 6.237,-15.809C7.815,-17.001 8.605,-18.629 8.605,-20.693C8.605,-22.883 7.847,-24.623 6.333,-25.913C4.818,-27.202 2.707,-27.848 0,-27.848C-1.805,-27.848 -3.353,-27.557 -4.641,-26.977C-5.931,-26.397 -6.913,-25.575 -7.591,-24.511C-8.267,-23.448 -8.605,-22.174 -8.605,-20.693C-8.605,-18.629 -7.817,-17.001 -6.237,-15.809C-4.658,-14.616 -2.579,-14.021 0,-14.021M0,13.923C2.321,13.923 4.351,13.584 6.091,12.907C7.832,12.231 9.186,11.216 10.153,9.862C11.119,8.508 11.603,6.833 11.603,4.834C11.603,2.836 11.103,1.176 10.104,-0.146C9.104,-1.466 7.735,-2.466 5.995,-3.143C4.254,-3.82 2.256,-4.158 0,-4.158C-2.257,-4.158 -4.254,-3.82 -5.995,-3.143C-7.735,-2.466 -9.105,-1.466 -10.104,-0.146C-11.105,1.176 -11.603,2.836 -11.603,4.834C-11.603,6.833 -11.119,8.508 -10.153,9.862C-9.186,11.216 -7.832,12.231 -6.091,12.907C-4.351,13.584 -2.321,13.923 0,13.923M0,27.75C-4.578,27.75 -8.864,26.959 -12.86,25.38C-16.857,23.802 -20.08,21.417 -22.529,18.225C-24.979,15.035 -26.203,11.055 -26.203,6.284C-26.203,2.997 -25.56,-0.032 -24.27,-2.805C-22.981,-5.576 -20.919,-7.961 -18.081,-9.96C-19.693,-11.442 -20.95,-13.117 -21.852,-14.988C-22.756,-16.857 -23.206,-19.08 -23.206,-21.659C-23.206,-25.848 -22.127,-29.443 -19.967,-32.44C-17.808,-35.438 -14.956,-37.742 -11.41,-39.353C-7.865,-40.964 -4.061,-41.771 0,-41.771C4.061,-41.771 7.847,-40.964 11.361,-39.353C14.874,-37.742 17.694,-35.438 19.822,-32.44C21.949,-29.443 23.012,-25.848 23.012,-21.659C23.012,-19.08 22.592,-16.857 21.755,-14.988C20.917,-13.117 19.692,-11.442 18.081,-9.96C20.917,-7.961 22.979,-5.576 24.269,-2.805C25.558,-0.032 26.203,2.997 26.203,6.284C26.203,11.055 24.978,15.035 22.529,18.225C20.078,21.417 16.873,23.802 12.908,25.38C8.944,26.959 4.641,27.75 0,27.75" style="fill:rgb(29,30,28);fill-rule:nonzero;"/>
                </g>
                <g transform="matrix(1,0,0,1,133.969,191.419)">
                    <path d="M0,14.021C-2.577,14.021 -4.656,14.616 -6.237,15.809C-7.815,17.001 -8.605,18.629 -8.605,20.693C-8.605,22.883 -7.847,24.623 -6.333,25.913C-4.818,27.202 -2.707,27.848 0,27.848C1.805,27.848 3.353,27.557 4.641,26.977C5.931,26.397 6.913,25.575 7.591,24.511C8.267,23.448 8.605,22.174 8.605,20.693C8.605,18.629 7.817,17.001 6.237,15.809C4.658,14.616 2.579,14.021 0,14.021M0,-13.923C-2.321,-13.923 -4.351,-13.584 -6.091,-12.907C-7.832,-12.231 -9.186,-11.216 -10.153,-9.862C-11.119,-8.508 -11.603,-6.833 -11.603,-4.834C-11.603,-2.836 -11.103,-1.176 -10.104,0.146C-9.104,1.466 -7.735,2.466 -5.995,3.143C-4.254,3.82 -2.256,4.158 0,4.158C2.257,4.158 4.254,3.82 5.995,3.143C7.735,2.466 9.105,1.466 10.104,0.146C11.105,-1.176 11.603,-2.836 11.603,-4.834C11.603,-6.833 11.119,-8.508 10.153,-9.862C9.186,-11.216 7.832,-12.231 6.091,-12.907C4.351,-13.584 2.321,-13.923 0,-13.923M0,-27.75C4.578,-27.75 8.864,-26.959 12.86,-25.38C16.857,-23.802 20.08,-21.417 22.529,-18.225C24.979,-15.035 26.203,-11.055 26.203,-6.284C26.203,-2.997 25.56,0.032 24.27,2.805C22.981,5.576 20.919,7.961 18.081,9.96C19.693,11.442 20.95,13.117 21.852,14.988C22.756,16.857 23.206,19.08 23.206,21.659C23.206,25.848 22.127,29.443 19.967,32.44C17.808,35.438 14.956,37.742 11.41,39.353C7.865,40.964 4.061,41.771 0,41.771C-4.061,41.771 -7.847,40.964 -11.361,39.353C-14.874,37.742 -17.694,35.438 -19.822,32.44C-21.949,29.443 -23.012,25.848 -23.012,21.659C-23.012,19.08 -22.592,16.857 -21.755,14.988C-20.917,13.117 -19.692,11.442 -18.081,9.96C-20.917,7.961 -22.979,5.576 -24.269,2.805C-25.558,0.032 -26.203,-2.997 -26.203,-6.284C-26.203,-11.055 -24.978,-15.035 -22.529,-18.225C-20.078,-21.417 -16.873,-23.802 -12.908,-25.38C-8.944,-26.959 -4.641,-27.75 0,-27.75" style="fill:rgb(29,30,28);fill-rule:nonzero;"/>
                </g>
                <g transform="matrix(1,0,0,1,166.73,48.6235)">
                    <path d="M0,10.566C-0.388,4.91 -3.651,-0.098 -8.565,-2.43C-14.087,-5.051 -20.874,-3.898 -25.614,0.442C-22.176,-3.128 -20.397,-6.632 -19.494,-8.829C-18.369,-11.565 -17.217,-14.366 -17.721,-18.084C-17.897,-19.379 -18.579,-23.034 -21.66,-26.157C-25.644,-30.195 -30.713,-30.384 -31.916,-30.39L-31.916,-30.422C-32.975,-30.421 -38.184,-30.311 -42.253,-26.188C-45.334,-23.065 -46.016,-19.41 -46.191,-18.115C-46.695,-14.397 -45.543,-11.596 -44.419,-8.86C-43.516,-6.663 -41.737,-3.159 -38.298,0.411C-43.039,-3.929 -49.826,-5.082 -55.348,-2.461C-60.262,-0.129 -63.525,4.879 -63.913,10.535C-63.941,11.563 -63.972,16.491 -60.172,20.676C-56.154,25.101 -50.874,25.37 -49.932,25.401C-48.069,25.226 -43.732,24.555 -39.694,21.266C-37.291,19.309 -35.866,17.136 -35.066,15.654C-34.826,18.341 -34.783,22.071 -35.657,26.386C-36.708,31.579 -38.667,35.552 -40.186,38.102L-40.186,40.957L-31.997,40.957L-31.997,40.988L-23.727,40.988L-23.727,38.133C-25.246,35.583 -27.205,31.61 -28.256,26.417C-29.13,22.103 -29.087,18.372 -28.847,15.686C-28.047,17.167 -26.622,19.34 -24.219,21.297C-20.181,24.586 -15.844,25.257 -13.981,25.432C-13.039,25.401 -7.759,25.132 -3.741,20.707C0.059,16.522 0.029,11.594 0,10.566" style="fill:rgb(29,29,27);fill-rule:nonzero;"/>
                </g>
                <g transform="matrix(1,0,0,1,12.13,204.276)">
                    <path d="M0,-10.566C0.388,-4.91 3.651,0.098 8.565,2.43C14.087,5.051 20.874,3.898 25.614,-0.442C22.176,3.128 20.397,6.632 19.494,8.829C18.369,11.565 17.217,14.366 17.722,18.084C17.897,19.379 18.579,23.034 21.66,26.157C25.644,30.195 30.713,30.384 31.916,30.39L31.916,30.422C32.975,30.421 38.184,30.311 42.253,26.188C45.334,23.065 46.016,19.41 46.191,18.115C46.695,14.397 45.543,11.596 44.419,8.86C43.516,6.663 41.737,3.159 38.298,-0.411C43.039,3.929 49.826,5.082 55.348,2.461C60.262,0.129 63.525,-4.879 63.913,-10.535C63.941,-11.563 63.972,-16.491 60.172,-20.676C56.154,-25.101 50.874,-25.37 49.932,-25.401C48.069,-25.226 43.732,-24.555 39.694,-21.266C37.291,-19.309 35.866,-17.136 35.066,-15.654C34.826,-18.341 34.783,-22.071 35.657,-26.386C36.708,-31.579 38.667,-35.552 40.186,-38.102L40.186,-40.957L31.997,-40.957L31.997,-40.988L23.727,-40.988L23.727,-38.133C25.246,-35.583 27.205,-31.61 28.256,-26.417C29.13,-22.103 29.087,-18.372 28.847,-15.686C28.047,-17.167 26.622,-19.34 24.219,-21.297C20.181,-24.586 15.844,-25.257 13.981,-25.432C13.039,-25.401 7.759,-25.132 3.741,-20.707C-0.059,-16.522 -0.029,-11.594 0,-10.566" style="fill:rgb(29,29,27);fill-rule:nonzero;"/>
                </g>
            </g>
        </g>
    </g>
</svg>
