<?xml version="1.0" encoding="UTF-8" standalone="no"?>
<!DOCTYPE svg PUBLIC "-//W3C//DTD SVG 1.1//EN" "http://www.w3.org/Graphics/SVG/1.1/DTD/svg11.dtd">
<svg width="100%" height="100%" viewBox="0 0 477 666" version="1.1" xmlns="http://www.w3.org/2000/svg" xmlns:xlink="http://www.w3.org/1999/xlink" xml:space="preserve" xmlns:serif="http://www.serif.com/" style="fill-rule:evenodd;clip-rule:evenodd;stroke-linejoin:round;stroke-miterlimit:2;">
    <g transform="matrix(1,0,0,1,-1607.25,-2245.04)">
        <g id="Page-34" serif:id="Page 34" transform="matrix(2.66667,0,0,2.66667,1607.25,2245.04)">
            <rect x="0" y="0" width="178.583" height="249.449" style="fill:white;"/>
            <g id="Слой-1" serif:id="Слой 1">
                <g transform="matrix(1,0,0,1,52.4603,52.3345)">
                    <path d="M0,0.202C2.088,0.202 3.975,-0.218 5.659,-1.061C7.343,-1.902 8.691,-3.115 9.702,-4.7C10.713,-6.282 11.218,-8.219 11.218,-10.51C11.218,-12.8 10.713,-14.719 9.702,-16.271C8.691,-17.819 7.343,-19.015 5.659,-19.858C3.975,-20.7 2.088,-21.121 0,-21.121C-2.021,-21.121 -3.875,-20.7 -5.558,-19.858C-7.243,-19.015 -8.59,-17.819 -9.601,-16.271C-10.611,-14.719 -11.116,-12.8 -11.116,-10.51C-11.116,-8.286 -10.628,-6.367 -9.651,-4.75C-8.675,-3.133 -7.344,-1.902 -5.659,-1.061C-3.976,-0.218 -2.089,0.202 0,0.202M-15.765,35.876L1.314,10.712L3.234,13.138C2.358,13.274 1.465,13.39 0.556,13.491C-0.353,13.592 -1.247,13.643 -2.122,13.643C-6.771,13.643 -10.931,12.582 -14.603,10.459C-18.276,8.337 -21.189,5.457 -23.345,1.819C-25.501,-1.82 -26.578,-5.927 -26.578,-10.51C-26.578,-15.495 -25.366,-19.874 -22.94,-23.648C-20.515,-27.42 -17.281,-30.369 -13.238,-32.49C-9.196,-34.612 -4.784,-35.674 0,-35.674C4.918,-35.674 9.399,-34.612 13.441,-32.49C17.484,-30.369 20.718,-27.42 23.143,-23.648C25.568,-19.874 26.781,-15.528 26.781,-10.611C26.781,-8.32 26.443,-6.013 25.77,-3.688C25.096,-1.364 24.085,0.843 22.739,2.93L1.819,35.876L-15.765,35.876Z" style="fill:rgb(29,30,28);fill-rule:nonzero;"/>
                </g>
                <g transform="matrix(1,0,0,1,136.071,198.643)">
                    <path d="M0,-0.202C-2.088,-0.202 -3.975,0.218 -5.659,1.061C-7.343,1.902 -8.691,3.115 -9.702,4.7C-10.713,6.282 -11.218,8.219 -11.218,10.51C-11.218,12.8 -10.713,14.719 -9.702,16.271C-8.691,17.819 -7.343,19.015 -5.659,19.858C-3.975,20.7 -2.088,21.122 0,21.122C2.021,21.122 3.875,20.7 5.558,19.858C7.243,19.015 8.59,17.819 9.601,16.271C10.611,14.719 11.116,12.8 11.116,10.51C11.116,8.286 10.628,6.367 9.651,4.75C8.675,3.133 7.344,1.902 5.659,1.061C3.976,0.218 2.089,-0.202 0,-0.202M15.765,-35.876L-1.314,-10.712L-3.234,-13.138C-2.358,-13.274 -1.465,-13.39 -0.556,-13.491C0.353,-13.592 1.247,-13.643 2.122,-13.643C6.771,-13.643 10.931,-12.582 14.603,-10.459C18.276,-8.337 21.189,-5.457 23.345,-1.819C25.501,1.82 26.578,5.927 26.578,10.51C26.578,15.495 25.366,19.874 22.94,23.648C20.515,27.42 17.281,30.369 13.238,32.49C9.196,34.612 4.784,35.674 0,35.674C-4.918,35.674 -9.399,34.612 -13.441,32.49C-17.484,30.369 -20.718,27.42 -23.143,23.648C-25.568,19.874 -26.781,15.528 -26.781,10.612C-26.781,8.32 -26.443,6.013 -25.77,3.688C-25.096,1.364 -24.085,-0.843 -22.739,-2.93L-1.819,-35.876L15.765,-35.876Z" style="fill:rgb(29,30,28);fill-rule:nonzero;"/>
                </g>
                <g transform="matrix(1,0,0,1,165.894,46.9644)">
                    <path d="M0,10.566C-0.388,4.91 -3.651,-0.098 -8.565,-2.43C-14.087,-5.051 -20.874,-3.898 -25.614,0.442C-22.176,-3.128 -20.397,-6.632 -19.494,-8.829C-18.369,-11.565 -17.217,-14.366 -17.722,-18.084C-17.897,-19.379 -18.579,-23.034 -21.66,-26.157C-25.644,-30.195 -30.713,-30.384 -31.916,-30.39L-31.916,-30.422C-32.975,-30.421 -38.184,-30.311 -42.253,-26.188C-45.334,-23.065 -46.016,-19.41 -46.191,-18.115C-46.695,-14.397 -45.543,-11.596 -44.419,-8.86C-43.516,-6.663 -41.737,-3.159 -38.298,0.411C-43.039,-3.929 -49.826,-5.082 -55.348,-2.461C-60.262,-0.129 -63.525,4.879 -63.913,10.535C-63.941,11.563 -63.972,16.491 -60.172,20.676C-56.154,25.101 -50.874,25.37 -49.932,25.401C-48.069,25.226 -43.732,24.555 -39.694,21.266C-37.291,19.309 -35.866,17.136 -35.066,15.654C-34.826,18.341 -34.783,22.071 -35.657,26.386C-36.708,31.579 -38.667,35.552 -40.186,38.102L-40.186,40.957L-31.997,40.957L-31.997,40.988L-23.727,40.988L-23.727,38.133C-25.246,35.583 -27.205,31.61 -28.256,26.417C-29.13,22.103 -29.087,18.372 -28.847,15.686C-28.047,17.167 -26.622,19.34 -24.219,21.297C-20.181,24.586 -15.844,25.257 -13.981,25.432C-13.039,25.401 -7.759,25.132 -3.741,20.707C0.059,16.522 0.028,11.594 0,10.566" style="fill:rgb(29,29,27);fill-rule:nonzero;"/>
                </g>
                <g transform="matrix(1,0,0,1,11.2941,202.617)">
                    <path d="M0,-10.566C0.388,-4.91 3.651,0.098 8.565,2.43C14.087,5.051 20.874,3.898 25.614,-0.442C22.176,3.128 20.397,6.632 19.494,8.829C18.369,11.565 17.217,14.366 17.721,18.084C17.897,19.379 18.579,23.034 21.66,26.157C25.644,30.195 30.713,30.384 31.916,30.39L31.916,30.422C32.975,30.421 38.184,30.311 42.253,26.188C45.334,23.065 46.016,19.41 46.191,18.115C46.695,14.397 45.543,11.596 44.419,8.86C43.516,6.663 41.737,3.159 38.298,-0.411C43.039,3.929 49.826,5.082 55.348,2.461C60.262,0.129 63.525,-4.879 63.913,-10.535C63.941,-11.563 63.972,-16.491 60.172,-20.676C56.154,-25.101 50.874,-25.37 49.932,-25.401C48.069,-25.226 43.732,-24.555 39.694,-21.266C37.291,-19.309 35.866,-17.136 35.066,-15.654C34.826,-18.341 34.783,-22.071 35.657,-26.386C36.708,-31.579 38.667,-35.552 40.186,-38.102L40.186,-40.957L31.997,-40.957L31.997,-40.988L23.727,-40.988L23.727,-38.133C25.246,-35.583 27.205,-31.61 28.256,-26.417C29.13,-22.103 29.087,-18.372 28.847,-15.686C28.047,-17.167 26.622,-19.34 24.219,-21.297C20.181,-24.586 15.844,-25.257 13.981,-25.432C13.039,-25.401 7.759,-25.132 3.741,-20.707C-0.059,-16.522 -0.029,-11.594 0,-10.566" style="fill:rgb(29,29,27);fill-rule:nonzero;"/>
                </g>
            </g>
        </g>
    </g>
</svg>
