<?xml version="1.0" encoding="UTF-8" standalone="no"?>
<!DOCTYPE svg PUBLIC "-//W3C//DTD SVG 1.1//EN" "http://www.w3.org/Graphics/SVG/1.1/DTD/svg11.dtd">
<svg width="100%" height="100%" viewBox="0 0 477 666" version="1.1" xmlns="http://www.w3.org/2000/svg" xmlns:xlink="http://www.w3.org/1999/xlink" xml:space="preserve" xmlns:serif="http://www.serif.com/" style="fill-rule:evenodd;clip-rule:evenodd;stroke-linejoin:round;stroke-miterlimit:2;">
    <g transform="matrix(1,0,0,1,-3214.49,-2245.04)">
        <g id="Page-37" serif:id="Page 37" transform="matrix(2.66667,0,0,2.66667,3214.49,2245.04)">
            <rect x="0" y="0" width="178.583" height="249.449" style="fill:white;"/>
            <g id="Слой-1" serif:id="Слой 1">
                <g transform="matrix(1,0,0,1,77.2202,18.3553)">
                    <path d="M0,72.261L-27.342,45.943L-18.879,36.921L8.742,63.798L0,72.261ZM-27.342,54.219C-23.808,54.219 -20.771,53.399 -18.228,51.755C-15.686,50.113 -13.717,47.787 -12.322,44.78C-10.927,41.774 -10.229,38.223 -10.229,34.131C-10.229,29.979 -10.927,26.398 -12.322,23.39C-13.717,20.383 -15.686,18.058 -18.228,16.415C-20.771,14.773 -23.808,13.95 -27.342,13.95C-30.814,13.95 -33.837,14.757 -36.409,16.368C-38.982,17.982 -40.966,20.29 -42.361,23.297C-43.756,26.305 -44.453,29.916 -44.453,34.131C-44.453,38.285 -43.756,41.866 -42.361,44.873C-40.966,47.881 -38.982,50.19 -36.409,51.801C-33.837,53.414 -30.814,54.219 -27.342,54.219M-27.342,68.169C-33.542,68.169 -39.029,66.758 -43.803,63.938C-48.577,61.117 -52.313,57.149 -55.009,52.033C-57.706,46.919 -59.055,40.952 -59.055,34.131C-59.055,27.312 -57.722,21.344 -55.056,16.229C-52.391,11.114 -48.671,7.131 -43.896,4.279C-39.122,1.427 -33.605,0 -27.342,0C-21.018,0 -15.47,1.411 -10.694,4.232C-5.921,7.054 -2.201,11.021 0.466,16.136C3.131,21.251 4.465,27.249 4.465,34.131C4.465,40.952 3.116,46.919 0.419,52.033C-2.278,57.149 -6.014,61.117 -10.787,63.938C-15.563,66.758 -21.08,68.169 -27.342,68.169" style="fill:rgb(29,30,28);fill-rule:nonzero;"/>
                </g>
                <g transform="matrix(1,0,0,1,102.651,234.763)">
                    <path d="M0,-72.261L27.342,-45.943L18.879,-36.921L-8.742,-63.798L0,-72.261ZM27.342,-54.219C23.808,-54.219 20.771,-53.399 18.228,-51.755C15.686,-50.113 13.717,-47.787 12.322,-44.78C10.927,-41.774 10.229,-38.223 10.229,-34.131C10.229,-29.979 10.927,-26.398 12.322,-23.39C13.717,-20.383 15.686,-18.058 18.228,-16.415C20.771,-14.773 23.808,-13.95 27.342,-13.95C30.814,-13.95 33.837,-14.757 36.409,-16.368C38.982,-17.982 40.966,-20.29 42.361,-23.297C43.756,-26.305 44.453,-29.916 44.453,-34.131C44.453,-38.285 43.756,-41.866 42.361,-44.873C40.966,-47.881 38.982,-50.19 36.409,-51.801C33.837,-53.414 30.814,-54.219 27.342,-54.219M27.342,-68.169C33.542,-68.169 39.029,-66.758 43.803,-63.938C48.577,-61.117 52.313,-57.149 55.009,-52.033C57.706,-46.919 59.055,-40.952 59.055,-34.131C59.055,-27.312 57.722,-21.344 55.056,-16.229C52.391,-11.114 48.671,-7.131 43.896,-4.279C39.122,-1.427 33.604,0 27.342,0C21.018,0 15.47,-1.411 10.694,-4.232C5.921,-7.054 2.201,-11.021 -0.466,-16.136C-3.131,-21.251 -4.465,-27.249 -4.465,-34.131C-4.465,-40.952 -3.116,-46.919 -0.419,-52.033C2.278,-57.149 6.014,-61.117 10.787,-63.938C15.563,-66.758 21.08,-68.169 27.342,-68.169" style="fill:rgb(29,30,28);fill-rule:nonzero;"/>
                </g>
                <g transform="matrix(1,0,0,1,169.368,48.0167)">
                    <path d="M0,10.566C-0.388,4.91 -3.651,-0.098 -8.565,-2.43C-14.087,-5.051 -20.874,-3.898 -25.614,0.442C-22.176,-3.128 -20.397,-6.632 -19.494,-8.829C-18.369,-11.565 -17.217,-14.366 -17.722,-18.084C-17.897,-19.379 -18.579,-23.034 -21.66,-26.157C-25.644,-30.195 -30.713,-30.384 -31.916,-30.39L-31.916,-30.422C-32.975,-30.421 -38.184,-30.311 -42.253,-26.188C-45.334,-23.065 -46.016,-19.41 -46.191,-18.115C-46.695,-14.397 -45.543,-11.596 -44.419,-8.86C-43.516,-6.663 -41.737,-3.159 -38.298,0.411C-43.039,-3.929 -49.826,-5.082 -55.348,-2.461C-60.262,-0.129 -63.525,4.879 -63.913,10.535C-63.941,11.563 -63.972,16.491 -60.172,20.676C-56.154,25.101 -50.874,25.37 -49.932,25.401C-48.069,25.226 -43.732,24.555 -39.694,21.266C-37.291,19.309 -35.866,17.136 -35.066,15.654C-34.826,18.341 -34.783,22.071 -35.657,26.386C-36.708,31.579 -38.667,35.552 -40.186,38.102L-40.186,40.957L-31.997,40.957L-31.997,40.988L-23.727,40.988L-23.727,38.133C-25.246,35.583 -27.205,31.61 -28.256,26.417C-29.13,22.103 -29.087,18.372 -28.847,15.686C-28.047,17.167 -26.622,19.34 -24.219,21.297C-20.181,24.586 -15.844,25.257 -13.981,25.432C-13.039,25.401 -7.759,25.132 -3.741,20.707C0.059,16.522 0.028,11.594 0,10.566" style="fill:rgb(29,29,27);fill-rule:nonzero;"/>
                </g>
                <g transform="matrix(1,0,0,1,14.7682,203.669)">
                    <path d="M0,-10.566C0.388,-4.91 3.651,0.098 8.565,2.43C14.087,5.051 20.874,3.898 25.614,-0.442C22.176,3.128 20.397,6.632 19.494,8.829C18.369,11.565 17.217,14.366 17.721,18.084C17.897,19.379 18.579,23.034 21.66,26.157C25.644,30.195 30.713,30.384 31.916,30.39L31.916,30.422C32.975,30.421 38.184,30.311 42.253,26.188C45.334,23.065 46.016,19.41 46.191,18.115C46.695,14.397 45.543,11.596 44.419,8.86C43.516,6.663 41.737,3.159 38.298,-0.411C43.039,3.929 49.826,5.082 55.348,2.461C60.262,0.129 63.525,-4.879 63.913,-10.535C63.941,-11.563 63.972,-16.491 60.172,-20.676C56.154,-25.101 50.874,-25.37 49.932,-25.401C48.069,-25.226 43.732,-24.555 39.694,-21.266C37.291,-19.309 35.866,-17.136 35.066,-15.654C34.826,-18.341 34.783,-22.071 35.657,-26.386C36.708,-31.579 38.667,-35.552 40.186,-38.102L40.186,-40.957L31.997,-40.957L31.997,-40.988L23.727,-40.988L23.727,-38.133C25.246,-35.583 27.205,-31.61 28.256,-26.417C29.13,-22.103 29.087,-18.372 28.847,-15.686C28.047,-17.167 26.622,-19.34 24.219,-21.297C20.181,-24.586 15.844,-25.257 13.981,-25.432C13.039,-25.401 7.759,-25.132 3.741,-20.707C-0.059,-16.522 -0.029,-11.594 0,-10.566" style="fill:rgb(29,29,27);fill-rule:nonzero;"/>
                </g>
            </g>
        </g>
    </g>
</svg>
