<?xml version="1.0" encoding="UTF-8" standalone="no"?>
<!DOCTYPE svg PUBLIC "-//W3C//DTD SVG 1.1//EN" "http://www.w3.org/Graphics/SVG/1.1/DTD/svg11.dtd">
<svg width="100%" height="100%" viewBox="0 0 477 666" version="1.1" xmlns="http://www.w3.org/2000/svg" xmlns:xlink="http://www.w3.org/1999/xlink" xml:space="preserve" xmlns:serif="http://www.serif.com/" style="fill-rule:evenodd;clip-rule:evenodd;stroke-linejoin:round;stroke-miterlimit:2;">
    <g transform="matrix(1,0,0,1,-3750.24,-2993.39)">
        <g id="Page-48" serif:id="Page 48" transform="matrix(2.66667,0,0,2.66667,3750.24,2993.39)">
            <rect x="0" y="0" width="178.583" height="249.449" style="fill:white;"/>
            <g id="Слой-1" serif:id="Слой 1">
                <g transform="matrix(1,0,0,1,30.6181,21.6542)">
                    <path d="M0,66.485L0,14.595L4.102,21.558L-16.788,21.558L-16.788,10.207L-7.345,10.207C-4.929,10.207 -3.1,9.682 -1.86,8.633C-0.62,7.584 0,5.724 0,3.053L0,0L14.403,0L14.403,66.485L0,66.485Z" style="fill:rgb(209,45,37);fill-rule:nonzero;"/>
                </g>
                <g transform="matrix(1,0,0,1,76.3971,34.2456)">
                    <path d="M0,41.112C2.798,41.112 4.865,40.158 6.2,38.25C7.536,36.342 8.409,33.831 8.823,30.715C9.236,27.6 9.443,24.262 9.443,20.699C9.443,16.948 9.236,13.514 8.823,10.397C8.409,7.282 7.536,4.786 6.2,2.909C4.865,1.035 2.798,0.096 0,0.096C-2.098,0.096 -3.784,0.636 -5.056,1.717C-6.328,2.799 -7.266,4.292 -7.869,6.2C-8.475,8.109 -8.887,10.302 -9.109,12.782C-9.333,15.262 -9.443,17.901 -9.443,20.699C-9.443,23.37 -9.333,25.93 -9.109,28.377C-8.887,30.826 -8.475,33.004 -7.869,34.912C-7.266,36.819 -6.328,38.33 -5.056,39.442C-3.784,40.556 -2.098,41.112 0,41.112M0,54.847C-4.452,54.847 -8.141,54.084 -11.065,52.559C-13.991,51.032 -16.327,49.014 -18.076,46.502C-19.826,43.99 -21.145,41.224 -22.034,38.202C-22.926,35.183 -23.498,32.097 -23.751,28.95C-24.006,25.802 -24.133,22.893 -24.133,20.222C-24.133,17.68 -24.006,14.897 -23.751,11.876C-23.498,8.857 -22.941,5.835 -22.082,2.814C-21.223,-0.205 -19.921,-2.956 -18.171,-5.436C-16.423,-7.916 -14.07,-9.92 -11.112,-11.446C-8.156,-12.973 -4.452,-13.735 0,-13.735C4.514,-13.735 8.251,-12.973 11.208,-11.446C14.165,-9.92 16.517,-7.9 18.267,-5.389C20.015,-2.876 21.302,-0.11 22.13,2.909C22.955,5.931 23.497,8.952 23.751,11.972C24.004,14.993 24.133,17.742 24.133,20.222C24.133,22.893 24.004,25.802 23.751,28.95C23.497,32.097 22.924,35.183 22.034,38.202C21.143,41.224 19.824,43.99 18.076,46.502C16.326,49.014 13.989,51.032 11.065,52.559C8.139,54.084 4.45,54.847 0,54.847" style="fill:rgb(209,45,37);fill-rule:nonzero;"/>
                </g>
                <g transform="matrix(1,0,0,1,153.15,233.156)">
                    <path d="M0,-66.485L0,-14.595L-4.102,-21.558L16.788,-21.558L16.788,-10.207L7.345,-10.207C4.929,-10.207 3.1,-9.682 1.86,-8.633C0.62,-7.584 0,-5.724 0,-3.053L0,0L-14.403,0L-14.403,-66.485L0,-66.485Z" style="fill:rgb(209,45,37);fill-rule:nonzero;"/>
                </g>
                <g transform="matrix(1,0,0,1,107.371,220.564)">
                    <path d="M0,-41.112C-2.798,-41.112 -4.865,-40.158 -6.2,-38.25C-7.536,-36.342 -8.409,-33.831 -8.823,-30.715C-9.236,-27.6 -9.443,-24.262 -9.443,-20.699C-9.443,-16.948 -9.236,-13.514 -8.823,-10.397C-8.409,-7.282 -7.536,-4.786 -6.2,-2.909C-4.865,-1.035 -2.798,-0.096 0,-0.096C2.098,-0.096 3.784,-0.636 5.056,-1.717C6.328,-2.799 7.266,-4.292 7.869,-6.2C8.475,-8.109 8.887,-10.302 9.109,-12.782C9.333,-15.262 9.443,-17.901 9.443,-20.699C9.443,-23.37 9.333,-25.93 9.109,-28.377C8.887,-30.826 8.475,-33.004 7.869,-34.912C7.266,-36.819 6.328,-38.331 5.056,-39.442C3.784,-40.556 2.098,-41.112 0,-41.112M0,-54.847C4.452,-54.847 8.141,-54.084 11.065,-52.559C13.991,-51.032 16.327,-49.014 18.076,-46.502C19.826,-43.99 21.145,-41.224 22.034,-38.202C22.926,-35.183 23.498,-32.097 23.751,-28.95C24.006,-25.802 24.133,-22.894 24.133,-20.222C24.133,-17.68 24.006,-14.897 23.751,-11.876C23.498,-8.857 22.941,-5.835 22.082,-2.814C21.223,0.205 19.921,2.956 18.171,5.436C16.423,7.916 14.07,9.92 11.112,11.446C8.156,12.973 4.452,13.735 0,13.735C-4.514,13.735 -8.251,12.973 -11.208,11.446C-14.165,9.92 -16.517,7.9 -18.267,5.389C-20.015,2.876 -21.302,0.11 -22.13,-2.909C-22.955,-5.931 -23.497,-8.952 -23.751,-11.972C-24.004,-14.993 -24.133,-17.742 -24.133,-20.222C-24.133,-22.894 -24.004,-25.802 -23.751,-28.95C-23.497,-32.097 -22.924,-35.183 -22.034,-38.202C-21.143,-41.224 -19.824,-43.99 -18.076,-46.502C-16.326,-49.014 -13.989,-51.032 -11.065,-52.559C-8.139,-54.084 -4.45,-54.847 0,-54.847" style="fill:rgb(209,45,37);fill-rule:nonzero;"/>
                </g>
                <g transform="matrix(1,0,0,1,167.374,53.5988)">
                    <path d="M0,-0.034C-4.304,-3.942 -9.671,-9.621 -14.572,-17.36C-18.676,-23.84 -21.299,-29.941 -23.005,-34.86L-23.005,-34.894C-23.007,-34.889 -23.009,-34.882 -23.011,-34.877C-23.013,-34.884 -23.017,-34.892 -23.019,-34.899L-23.019,-34.854C-24.724,-29.935 -27.348,-23.834 -31.452,-17.355C-36.364,-9.598 -41.745,-3.909 -46.054,-0.001C-46.034,-0.001 -46.013,0 -45.993,0C-41.689,3.908 -36.322,9.587 -31.421,17.326C-27.317,23.805 -24.694,29.906 -22.988,34.825L-22.988,34.86C-22.987,34.854 -22.984,34.848 -22.982,34.843C-22.98,34.85 -22.976,34.858 -22.974,34.865L-22.974,34.82C-21.269,29.901 -18.645,23.8 -14.542,17.321C-9.629,9.564 -4.248,3.875 0.061,-0.034L0,-0.034" style="fill:rgb(209,45,37);fill-rule:nonzero;"/>
                </g>
                <g transform="matrix(1,0,0,1,60.8865,197.766)">
                    <path d="M0,-0.034C-4.304,-3.942 -9.671,-9.621 -14.572,-17.36C-18.676,-23.84 -21.299,-29.941 -23.005,-34.86L-23.005,-34.894C-23.007,-34.889 -23.009,-34.882 -23.011,-34.877C-23.013,-34.884 -23.017,-34.892 -23.019,-34.899L-23.019,-34.854C-24.724,-29.936 -27.348,-23.834 -31.452,-17.355C-36.364,-9.598 -41.745,-3.909 -46.054,-0.001C-46.034,-0.001 -46.013,0 -45.993,0C-41.689,3.908 -36.322,9.587 -31.421,17.326C-27.317,23.805 -24.694,29.906 -22.988,34.825L-22.988,34.86C-22.987,34.854 -22.984,34.848 -22.982,34.843C-22.98,34.85 -22.976,34.858 -22.974,34.865L-22.974,34.82C-21.269,29.901 -18.645,23.8 -14.542,17.321C-9.629,9.564 -4.248,3.875 0.061,-0.034L0,-0.034" style="fill:rgb(209,45,37);fill-rule:nonzero;"/>
                </g>
            </g>
        </g>
    </g>
</svg>
