<?xml version="1.0" encoding="UTF-8" standalone="no"?>
<!DOCTYPE svg PUBLIC "-//W3C//DTD SVG 1.1//EN" "http://www.w3.org/Graphics/SVG/1.1/DTD/svg11.dtd">
<svg width="100%" height="100%" viewBox="0 0 477 666" version="1.1" xmlns="http://www.w3.org/2000/svg" xmlns:xlink="http://www.w3.org/1999/xlink" xml:space="preserve" xmlns:serif="http://www.serif.com/" style="fill-rule:evenodd;clip-rule:evenodd;stroke-linejoin:round;stroke-miterlimit:2;">
    <g transform="matrix(1,0,0,1,-4821.74,-2245.04)">
        <g id="Page-40" serif:id="Page 40" transform="matrix(2.66667,0,0,2.66667,4821.74,2245.04)">
            <rect x="0" y="0" width="178.583" height="249.449" style="fill:white;"/>
            <g id="Слой-1" serif:id="Слой 1">
                <g transform="matrix(1,0,0,1,13.3856,17.155)">
                    <path d="M0,71.91L0,60.69C2.04,59.262 4.437,57.563 7.191,55.59C9.945,53.619 12.766,51.443 15.657,49.062C18.546,46.682 21.232,44.115 23.715,41.361C26.197,38.607 28.219,35.768 29.784,32.844C31.348,29.921 32.13,26.928 32.13,23.868C32.13,21.42 31.518,19.313 30.294,17.544C29.07,15.776 26.995,14.892 24.072,14.892C21.487,14.892 19.516,15.59 18.156,16.983C16.795,18.378 15.826,20.078 15.249,22.083C14.67,24.09 14.313,26.01 14.178,27.846L-0.918,26.622C-0.918,23.495 -0.375,20.366 0.714,17.238C1.801,14.111 3.417,11.237 5.559,8.619C7.701,6.002 10.353,3.911 13.515,2.346C16.677,0.782 20.332,0 24.48,0C28.899,0 32.844,0.969 36.312,2.907C39.78,4.845 42.499,7.565 44.472,11.067C46.443,14.57 47.43,18.666 47.43,23.358C47.43,26.759 46.903,30.056 45.849,33.252C44.794,36.449 43.282,39.525 41.31,42.483C39.337,45.441 36.924,48.23 34.068,50.847C31.212,53.466 27.948,55.896 24.276,58.14C20.604,60.384 16.591,62.39 12.24,64.158L16.32,57.63L50.184,57.63L50.184,71.91L0,71.91Z" style="fill:rgb(209,45,37);fill-rule:nonzero;"/>
                </g>
                <g transform="matrix(1,0,0,1,162.585,234.871)">
                    <path d="M0,-71.91L0,-60.69C-2.04,-59.262 -4.437,-57.563 -7.191,-55.59C-9.945,-53.619 -12.766,-51.443 -15.657,-49.062C-18.546,-46.682 -21.232,-44.115 -23.715,-41.361C-26.197,-38.607 -28.219,-35.768 -29.784,-32.844C-31.348,-29.921 -32.13,-26.928 -32.13,-23.868C-32.13,-21.42 -31.518,-19.313 -30.294,-17.544C-29.07,-15.776 -26.995,-14.892 -24.072,-14.892C-21.487,-14.892 -19.516,-15.59 -18.156,-16.983C-16.795,-18.378 -15.826,-20.078 -15.249,-22.083C-14.67,-24.09 -14.313,-26.01 -14.178,-27.846L0.918,-26.622C0.918,-23.495 0.375,-20.366 -0.714,-17.238C-1.801,-14.111 -3.417,-11.237 -5.559,-8.619C-7.701,-6.002 -10.353,-3.911 -13.515,-2.346C-16.677,-0.782 -20.332,0 -24.48,0C-28.899,0 -32.844,-0.969 -36.312,-2.907C-39.78,-4.845 -42.499,-7.565 -44.472,-11.067C-46.443,-14.57 -47.43,-18.666 -47.43,-23.358C-47.43,-26.759 -46.903,-30.056 -45.849,-33.252C-44.794,-36.449 -43.282,-39.525 -41.31,-42.483C-39.337,-45.441 -36.924,-48.23 -34.068,-50.847C-31.212,-53.466 -27.948,-55.896 -24.276,-58.14C-20.604,-60.384 -16.591,-62.39 -12.24,-64.158L-16.32,-57.63L-50.184,-57.63L-50.184,-71.91L0,-71.91Z" style="fill:rgb(209,45,37);fill-rule:nonzero;"/>
                </g>
                <g transform="matrix(1,0,0,1,164.508,52.5221)">
                    <path d="M0,-0.034C-4.304,-3.942 -9.671,-9.621 -14.572,-17.36C-18.676,-23.84 -21.299,-29.941 -23.005,-34.86L-23.005,-34.894C-23.007,-34.889 -23.009,-34.882 -23.011,-34.877C-23.013,-34.884 -23.017,-34.892 -23.019,-34.899L-23.019,-34.854C-24.724,-29.936 -27.348,-23.834 -31.451,-17.355C-36.364,-9.598 -41.745,-3.909 -46.054,-0.001C-46.034,-0.001 -46.013,0 -45.993,0C-41.689,3.908 -36.322,9.587 -31.421,17.326C-27.317,23.805 -24.694,29.906 -22.988,34.825L-22.988,34.86C-22.987,34.854 -22.984,34.848 -22.982,34.843C-22.98,34.85 -22.976,34.858 -22.974,34.865L-22.974,34.82C-21.269,29.901 -18.645,23.8 -14.542,17.321C-9.629,9.564 -4.248,3.875 0.061,-0.034L0,-0.034" style="fill:rgb(209,45,37);fill-rule:nonzero;"/>
                </g>
                <g transform="matrix(1,0,0,1,58.0201,196.69)">
                    <path d="M0,-0.034C-4.304,-3.942 -9.671,-9.621 -14.572,-17.36C-18.676,-23.84 -21.299,-29.941 -23.005,-34.86L-23.005,-34.894C-23.007,-34.889 -23.009,-34.882 -23.011,-34.877C-23.013,-34.884 -23.017,-34.892 -23.019,-34.899L-23.019,-34.854C-24.724,-29.936 -27.348,-23.834 -31.451,-17.355C-36.364,-9.598 -41.745,-3.909 -46.054,-0.001C-46.034,-0.001 -46.013,0 -45.993,0C-41.689,3.908 -36.322,9.587 -31.421,17.326C-27.317,23.805 -24.694,29.906 -22.988,34.825L-22.988,34.86C-22.987,34.854 -22.984,34.848 -22.982,34.843C-22.98,34.85 -22.976,34.858 -22.974,34.865L-22.974,34.82C-21.269,29.901 -18.645,23.8 -14.542,17.321C-9.629,9.564 -4.248,3.875 0.061,-0.034L0,-0.034" style="fill:rgb(209,45,37);fill-rule:nonzero;"/>
                </g>
            </g>
        </g>
    </g>
</svg>
