<?xml version="1.0" encoding="UTF-8" standalone="no"?>
<!DOCTYPE svg PUBLIC "-//W3C//DTD SVG 1.1//EN" "http://www.w3.org/Graphics/SVG/1.1/DTD/svg11.dtd">
<svg width="100%" height="100%" viewBox="0 0 477 666" version="1.1" xmlns="http://www.w3.org/2000/svg" xmlns:xlink="http://www.w3.org/1999/xlink" xml:space="preserve" xmlns:serif="http://www.serif.com/" style="fill-rule:evenodd;clip-rule:evenodd;stroke-linejoin:round;stroke-miterlimit:2;">
    <g transform="matrix(1,0,0,1,-1071.5,-2993.39)">
        <g id="Page-43" serif:id="Page 43" transform="matrix(2.66667,0,0,2.66667,1071.5,2993.39)">
            <rect x="0" y="0" width="178.583" height="249.449" style="fill:white;"/>
            <g id="Слой-1" serif:id="Слой 1">
                <g transform="matrix(1,0,0,1,39.3259,18.0714)">
                    <path d="M0,70.327C-4.569,70.327 -8.725,69.349 -12.466,67.396C-16.208,65.444 -19.254,62.844 -21.604,59.598C-23.955,56.356 -25.396,52.745 -25.925,48.772L-11.224,46.288C-11.159,47.614 -10.745,49.038 -9.983,50.559C-9.222,52.084 -8.03,53.376 -6.407,54.433C-4.785,55.494 -2.716,56.023 -0.199,56.023C2.449,56.023 4.519,55.444 6.009,54.285C7.499,53.127 8.575,51.669 9.238,49.914C9.899,48.16 10.231,46.422 10.231,44.7C10.231,43.044 9.916,41.471 9.287,39.981C8.657,38.492 7.582,37.267 6.059,36.306C4.535,35.347 2.449,34.866 -0.199,34.866C-2.848,34.866 -4.966,35.429 -6.556,36.555C-8.145,37.681 -9.337,38.906 -10.132,40.229L-23.939,36.852L-16.985,0L23.144,0L23.144,13.907L-11.423,13.907L-3.476,7.649L-7.549,28.41L-12.515,27.018C-9.933,24.237 -7.367,22.516 -4.817,21.853C-2.269,21.192 -0.034,20.86 1.887,20.86C6.72,20.86 10.959,21.97 14.601,24.187C18.243,26.407 21.073,29.337 23.094,32.978C25.114,36.621 26.124,40.528 26.124,44.7C26.124,48.011 25.494,51.19 24.236,54.235C22.978,57.282 21.19,60.013 18.873,62.43C16.554,64.848 13.79,66.768 10.578,68.191C7.366,69.615 3.84,70.327 0,70.327" style="fill:rgb(209,45,37);fill-rule:nonzero;"/>
                </g>
                <g transform="matrix(1,0,0,1,138.511,233.679)">
                    <path d="M0,-70.327C4.569,-70.327 8.725,-69.349 12.466,-67.396C16.208,-65.444 19.254,-62.844 21.604,-59.598C23.955,-56.356 25.396,-52.745 25.925,-48.772L11.224,-46.288C11.159,-47.614 10.745,-49.038 9.983,-50.559C9.222,-52.084 8.03,-53.376 6.407,-54.433C4.785,-55.494 2.716,-56.023 0.199,-56.023C-2.449,-56.023 -4.519,-55.444 -6.009,-54.285C-7.499,-53.127 -8.575,-51.669 -9.238,-49.914C-9.899,-48.16 -10.231,-46.422 -10.231,-44.7C-10.231,-43.044 -9.916,-41.471 -9.287,-39.981C-8.657,-38.492 -7.582,-37.267 -6.059,-36.306C-4.535,-35.347 -2.449,-34.866 0.199,-34.866C2.848,-34.866 4.966,-35.429 6.556,-36.555C8.145,-37.681 9.337,-38.906 10.132,-40.229L23.939,-36.852L16.985,0L-23.144,0L-23.144,-13.907L11.423,-13.907L3.476,-7.649L7.549,-28.41L12.515,-27.018C9.933,-24.237 7.367,-22.516 4.817,-21.853C2.269,-21.192 0.034,-20.86 -1.887,-20.86C-6.72,-20.86 -10.959,-21.97 -14.601,-24.187C-18.243,-26.407 -21.073,-29.337 -23.094,-32.978C-25.114,-36.621 -26.124,-40.528 -26.124,-44.7C-26.124,-48.011 -25.494,-51.19 -24.236,-54.235C-22.978,-57.282 -21.19,-60.013 -18.873,-62.43C-16.554,-64.848 -13.79,-66.768 -10.578,-68.191C-7.366,-69.615 -3.84,-70.327 0,-70.327" style="fill:rgb(209,45,37);fill-rule:nonzero;"/>
                </g>
                <g transform="matrix(1,0,0,1,166.059,52.5707)">
                    <path d="M0,-0.034C-4.304,-3.942 -9.671,-9.621 -14.572,-17.36C-18.676,-23.84 -21.299,-29.941 -23.005,-34.86L-23.005,-34.894C-23.007,-34.889 -23.009,-34.882 -23.011,-34.877C-23.013,-34.884 -23.017,-34.892 -23.019,-34.899L-23.019,-34.854C-24.724,-29.936 -27.348,-23.834 -31.452,-17.355C-36.364,-9.598 -41.745,-3.909 -46.054,-0.001C-46.034,-0.001 -46.013,0 -45.993,0C-41.689,3.908 -36.322,9.587 -31.421,17.326C-27.317,23.805 -24.694,29.906 -22.988,34.825L-22.988,34.86C-22.987,34.854 -22.984,34.848 -22.982,34.843C-22.98,34.85 -22.976,34.858 -22.974,34.865L-22.974,34.82C-21.269,29.901 -18.645,23.8 -14.542,17.321C-9.629,9.564 -4.248,3.875 0.061,-0.034L0,-0.034" style="fill:rgb(209,45,37);fill-rule:nonzero;"/>
                </g>
                <g transform="matrix(1,0,0,1,59.5718,196.738)">
                    <path d="M0,-0.034C-4.304,-3.942 -9.671,-9.621 -14.572,-17.36C-18.676,-23.84 -21.299,-29.941 -23.005,-34.86L-23.005,-34.894C-23.007,-34.889 -23.009,-34.882 -23.011,-34.877C-23.013,-34.884 -23.017,-34.892 -23.019,-34.899L-23.019,-34.854C-24.724,-29.936 -27.348,-23.834 -31.452,-17.355C-36.364,-9.598 -41.745,-3.909 -46.054,-0.001C-46.034,-0.001 -46.013,0 -45.993,0C-41.689,3.908 -36.322,9.587 -31.421,17.326C-27.317,23.805 -24.694,29.906 -22.988,34.825L-22.988,34.86C-22.987,34.854 -22.984,34.848 -22.982,34.843C-22.98,34.85 -22.976,34.858 -22.974,34.865L-22.974,34.82C-21.269,29.901 -18.645,23.8 -14.542,17.321C-9.629,9.564 -4.248,3.875 0.061,-0.034L0,-0.034" style="fill:rgb(209,45,37);fill-rule:nonzero;"/>
                </g>
            </g>
        </g>
    </g>
</svg>
