<?xml version="1.0" encoding="UTF-8" standalone="no"?>
<!DOCTYPE svg PUBLIC "-//W3C//DTD SVG 1.1//EN" "http://www.w3.org/Graphics/SVG/1.1/DTD/svg11.dtd">
<svg width="100%" height="100%" viewBox="0 0 477 666" version="1.1" xmlns="http://www.w3.org/2000/svg" xmlns:xlink="http://www.w3.org/1999/xlink" xml:space="preserve" xmlns:serif="http://www.serif.com/" style="fill-rule:evenodd;clip-rule:evenodd;stroke-linejoin:round;stroke-miterlimit:2;">
    <g transform="matrix(1,0,0,1,-2678.74,-2993.39)">
        <g id="Page-46" serif:id="Page 46" transform="matrix(2.66667,0,0,2.66667,2678.74,2993.39)">
            <rect x="0" y="0" width="178.583" height="249.449" style="fill:white;"/>
            <g id="Слой-1" serif:id="Слой 1">
                <g transform="matrix(1,0,0,1,38.7539,59.8341)">
                    <path d="M0,-14.021C2.577,-14.021 4.656,-14.616 6.237,-15.809C7.815,-17.001 8.605,-18.629 8.605,-20.693C8.605,-22.883 7.847,-24.623 6.333,-25.913C4.818,-27.202 2.707,-27.848 0,-27.848C-1.805,-27.848 -3.353,-27.557 -4.641,-26.977C-5.931,-26.397 -6.913,-25.575 -7.59,-24.511C-8.267,-23.448 -8.605,-22.174 -8.605,-20.693C-8.605,-18.629 -7.817,-17.001 -6.237,-15.809C-4.658,-14.616 -2.579,-14.021 0,-14.021M0,13.923C2.321,13.923 4.351,13.584 6.091,12.907C7.832,12.231 9.186,11.216 10.153,9.862C11.119,8.508 11.603,6.833 11.603,4.834C11.603,2.836 11.103,1.176 10.104,-0.146C9.104,-1.466 7.735,-2.466 5.995,-3.143C4.254,-3.82 2.256,-4.158 0,-4.158C-2.257,-4.158 -4.254,-3.82 -5.995,-3.143C-7.735,-2.466 -9.105,-1.466 -10.104,-0.146C-11.105,1.176 -11.603,2.836 -11.603,4.834C-11.603,6.833 -11.119,8.508 -10.153,9.862C-9.186,11.216 -7.832,12.231 -6.091,12.907C-4.351,13.584 -2.32,13.923 0,13.923M0,27.75C-4.578,27.75 -8.864,26.959 -12.86,25.38C-16.857,23.802 -20.08,21.417 -22.529,18.225C-24.979,15.035 -26.203,11.055 -26.203,6.284C-26.203,2.997 -25.56,-0.032 -24.27,-2.805C-22.981,-5.576 -20.919,-7.961 -18.081,-9.96C-19.693,-11.442 -20.95,-13.117 -21.852,-14.988C-22.756,-16.857 -23.206,-19.08 -23.206,-21.659C-23.206,-25.848 -22.127,-29.443 -19.967,-32.44C-17.808,-35.438 -14.956,-37.742 -11.41,-39.353C-7.865,-40.964 -4.061,-41.771 0,-41.771C4.061,-41.771 7.847,-40.964 11.361,-39.353C14.874,-37.742 17.694,-35.438 19.822,-32.44C21.949,-29.443 23.012,-25.848 23.012,-21.659C23.012,-19.08 22.592,-16.857 21.755,-14.988C20.917,-13.117 19.692,-11.442 18.081,-9.96C20.917,-7.961 22.979,-5.576 24.269,-2.805C25.558,-0.032 26.203,2.997 26.203,6.284C26.203,11.055 24.978,15.035 22.529,18.225C20.078,21.417 16.873,23.802 12.908,25.38C8.944,26.959 4.641,27.75 0,27.75" style="fill:rgb(209,45,37);fill-rule:nonzero;"/>
                </g>
                <g transform="matrix(1,0,0,1,135.603,190.537)">
                    <path d="M0,14.021C-2.577,14.021 -4.656,14.616 -6.237,15.809C-7.815,17.001 -8.605,18.628 -8.605,20.693C-8.605,22.883 -7.847,24.623 -6.333,25.913C-4.818,27.202 -2.707,27.848 0,27.848C1.805,27.848 3.353,27.557 4.641,26.977C5.931,26.397 6.913,25.575 7.59,24.511C8.267,23.448 8.605,22.174 8.605,20.693C8.605,18.628 7.817,17.001 6.237,15.809C4.658,14.616 2.579,14.021 0,14.021M0,-13.923C-2.321,-13.923 -4.351,-13.584 -6.091,-12.907C-7.832,-12.231 -9.186,-11.216 -10.153,-9.862C-11.119,-8.508 -11.603,-6.833 -11.603,-4.834C-11.603,-2.836 -11.103,-1.176 -10.104,0.146C-9.104,1.466 -7.735,2.466 -5.995,3.143C-4.254,3.82 -2.256,4.158 0,4.158C2.257,4.158 4.254,3.82 5.995,3.143C7.735,2.466 9.105,1.466 10.104,0.146C11.105,-1.176 11.603,-2.836 11.603,-4.834C11.603,-6.833 11.119,-8.508 10.153,-9.862C9.186,-11.216 7.832,-12.231 6.091,-12.907C4.351,-13.584 2.32,-13.923 0,-13.923M0,-27.75C4.578,-27.75 8.864,-26.959 12.86,-25.38C16.857,-23.802 20.08,-21.417 22.529,-18.225C24.979,-15.035 26.203,-11.055 26.203,-6.284C26.203,-2.997 25.56,0.032 24.27,2.805C22.981,5.576 20.919,7.961 18.081,9.96C19.693,11.442 20.95,13.117 21.852,14.988C22.756,16.857 23.206,19.08 23.206,21.659C23.206,25.848 22.127,29.443 19.967,32.44C17.808,35.438 14.956,37.742 11.41,39.353C7.865,40.964 4.061,41.771 0,41.771C-4.061,41.771 -7.847,40.964 -11.361,39.353C-14.874,37.742 -17.694,35.438 -19.822,32.44C-21.949,29.443 -23.012,25.848 -23.012,21.659C-23.012,19.08 -22.592,16.857 -21.755,14.988C-20.917,13.117 -19.692,11.442 -18.081,9.96C-20.917,7.961 -22.979,5.576 -24.269,2.805C-25.558,0.032 -26.203,-2.997 -26.203,-6.284C-26.203,-11.055 -24.978,-15.035 -22.529,-18.225C-20.078,-21.417 -16.873,-23.802 -12.908,-25.38C-8.944,-26.959 -4.641,-27.75 0,-27.75" style="fill:rgb(209,45,37);fill-rule:nonzero;"/>
                </g>
                <g transform="matrix(1,0,0,1,165.579,53.0884)">
                    <path d="M0,-0.034C-4.304,-3.942 -9.671,-9.621 -14.572,-17.36C-18.676,-23.84 -21.299,-29.941 -23.005,-34.86L-23.005,-34.894C-23.007,-34.889 -23.009,-34.882 -23.011,-34.877C-23.013,-34.884 -23.017,-34.892 -23.019,-34.899L-23.019,-34.854C-24.724,-29.936 -27.348,-23.834 -31.451,-17.355C-36.364,-9.598 -41.745,-3.909 -46.054,-0.001C-46.034,-0.001 -46.013,0 -45.993,0C-41.689,3.908 -36.322,9.587 -31.421,17.326C-27.317,23.805 -24.694,29.906 -22.988,34.825L-22.988,34.86C-22.987,34.854 -22.984,34.848 -22.982,34.843C-22.98,34.85 -22.976,34.858 -22.974,34.865L-22.974,34.82C-21.269,29.901 -18.645,23.8 -14.542,17.321C-9.629,9.564 -4.248,3.875 0.061,-0.034L0,-0.034" style="fill:rgb(209,45,37);fill-rule:nonzero;"/>
                </g>
                <g transform="matrix(1,0,0,1,59.0917,197.256)">
                    <path d="M0,-0.034C-4.304,-3.942 -9.671,-9.621 -14.572,-17.36C-18.676,-23.84 -21.299,-29.941 -23.005,-34.86L-23.005,-34.894C-23.007,-34.889 -23.009,-34.882 -23.011,-34.877C-23.013,-34.884 -23.017,-34.892 -23.019,-34.899L-23.019,-34.854C-24.724,-29.936 -27.348,-23.834 -31.451,-17.355C-36.364,-9.598 -41.745,-3.909 -46.054,-0.001C-46.034,-0.001 -46.013,0 -45.993,0C-41.689,3.908 -36.322,9.587 -31.421,17.326C-27.317,23.805 -24.694,29.906 -22.988,34.825L-22.988,34.86C-22.987,34.854 -22.984,34.848 -22.982,34.843C-22.98,34.85 -22.976,34.858 -22.974,34.865L-22.974,34.82C-21.269,29.901 -18.645,23.8 -14.542,17.321C-9.629,9.564 -4.248,3.875 0.061,-0.034L0,-0.034" style="fill:rgb(209,45,37);fill-rule:nonzero;"/>
                </g>
            </g>
        </g>
    </g>
</svg>
