<?xml version="1.0" encoding="UTF-8" standalone="no"?>
<!DOCTYPE svg PUBLIC "-//W3C//DTD SVG 1.1//EN" "http://www.w3.org/Graphics/SVG/1.1/DTD/svg11.dtd">
<svg width="100%" height="100%" viewBox="0 0 477 666" version="1.1" xmlns="http://www.w3.org/2000/svg" xmlns:xlink="http://www.w3.org/1999/xlink" xml:space="preserve" xmlns:serif="http://www.serif.com/" style="fill-rule:evenodd;clip-rule:evenodd;stroke-linejoin:round;stroke-miterlimit:2;">
    <g transform="matrix(1,0,0,1,-3214.49,-2993.39)">
        <g id="Page-47" serif:id="Page 47" transform="matrix(2.66667,0,0,2.66667,3214.49,2993.39)">
            <rect x="0" y="0" width="178.583" height="249.449" style="fill:white;"/>
            <g id="Слой-1" serif:id="Слой 1">
                <g transform="matrix(1,0,0,1,43.2151,53.452)">
                    <path d="M0,0.202C2.088,0.202 3.975,-0.218 5.659,-1.061C7.343,-1.902 8.691,-3.115 9.702,-4.7C10.713,-6.282 11.218,-8.219 11.218,-10.51C11.218,-12.8 10.713,-14.719 9.702,-16.271C8.691,-17.819 7.343,-19.015 5.659,-19.858C3.975,-20.7 2.088,-21.122 0,-21.122C-2.021,-21.122 -3.875,-20.7 -5.558,-19.858C-7.243,-19.015 -8.59,-17.819 -9.601,-16.271C-10.611,-14.719 -11.116,-12.8 -11.116,-10.51C-11.116,-8.286 -10.628,-6.367 -9.651,-4.75C-8.675,-3.133 -7.344,-1.902 -5.659,-1.061C-3.976,-0.218 -2.089,0.202 0,0.202M-15.765,35.876L1.314,10.712L3.234,13.138C2.358,13.274 1.465,13.39 0.556,13.491C-0.353,13.592 -1.247,13.643 -2.122,13.643C-6.771,13.643 -10.931,12.582 -14.603,10.459C-18.276,8.337 -21.189,5.457 -23.345,1.819C-25.501,-1.82 -26.578,-5.927 -26.578,-10.51C-26.578,-15.495 -25.366,-19.874 -22.94,-23.648C-20.515,-27.42 -17.281,-30.369 -13.238,-32.49C-9.196,-34.612 -4.784,-35.674 0,-35.674C4.918,-35.674 9.399,-34.612 13.441,-32.49C17.484,-30.369 20.718,-27.42 23.143,-23.648C25.568,-19.874 26.781,-15.528 26.781,-10.612C26.781,-8.32 26.443,-6.013 25.77,-3.688C25.096,-1.364 24.085,0.843 22.739,2.93L1.819,35.876L-15.765,35.876Z" style="fill:rgb(209,45,37);fill-rule:nonzero;"/>
                </g>
                <g transform="matrix(1,0,0,1,135.826,199.761)">
                    <path d="M0,-0.202C-2.088,-0.202 -3.975,0.218 -5.659,1.061C-7.343,1.902 -8.691,3.115 -9.702,4.7C-10.713,6.282 -11.218,8.219 -11.218,10.51C-11.218,12.8 -10.713,14.719 -9.702,16.271C-8.691,17.819 -7.343,19.015 -5.659,19.858C-3.975,20.7 -2.088,21.122 0,21.122C2.021,21.122 3.875,20.7 5.558,19.858C7.243,19.015 8.59,17.819 9.601,16.271C10.611,14.719 11.116,12.8 11.116,10.51C11.116,8.286 10.628,6.367 9.651,4.75C8.675,3.133 7.344,1.902 5.659,1.061C3.976,0.218 2.089,-0.202 0,-0.202M15.765,-35.876L-1.314,-10.712L-3.234,-13.138C-2.358,-13.274 -1.465,-13.39 -0.556,-13.491C0.353,-13.592 1.247,-13.643 2.122,-13.643C6.771,-13.643 10.931,-12.582 14.603,-10.459C18.276,-8.337 21.189,-5.457 23.345,-1.819C25.501,1.82 26.578,5.927 26.578,10.51C26.578,15.495 25.366,19.874 22.94,23.648C20.515,27.42 17.281,30.369 13.238,32.49C9.196,34.612 4.784,35.674 0,35.674C-4.918,35.674 -9.399,34.612 -13.441,32.49C-17.484,30.369 -20.718,27.42 -23.143,23.648C-25.568,19.874 -26.781,15.528 -26.781,10.611C-26.781,8.32 -26.443,6.013 -25.77,3.688C-25.096,1.364 -24.085,-0.843 -22.739,-2.93L-1.819,-35.876L15.765,-35.876Z" style="fill:rgb(209,45,37);fill-rule:nonzero;"/>
                </g>
                <g transform="matrix(1,0,0,1,165.771,52.2736)">
                    <path d="M0,-0.034C-4.304,-3.942 -9.671,-9.621 -14.572,-17.36C-18.676,-23.84 -21.299,-29.941 -23.005,-34.86L-23.005,-34.894C-23.007,-34.889 -23.009,-34.882 -23.011,-34.877C-23.013,-34.884 -23.017,-34.892 -23.019,-34.899L-23.019,-34.854C-24.724,-29.936 -27.348,-23.834 -31.452,-17.355C-36.364,-9.598 -41.745,-3.909 -46.054,-0.001C-46.034,-0.001 -46.013,0 -45.993,0C-41.689,3.908 -36.322,9.587 -31.421,17.326C-27.317,23.805 -24.694,29.906 -22.988,34.825L-22.988,34.86C-22.987,34.854 -22.984,34.848 -22.982,34.843C-22.98,34.85 -22.976,34.858 -22.974,34.865L-22.974,34.82C-21.269,29.901 -18.645,23.8 -14.542,17.321C-9.629,9.564 -4.248,3.875 0.061,-0.034L0,-0.034" style="fill:rgb(209,45,37);fill-rule:nonzero;"/>
                </g>
                <g transform="matrix(1,0,0,1,59.2837,196.441)">
                    <path d="M0,-0.034C-4.304,-3.942 -9.671,-9.621 -14.572,-17.36C-18.676,-23.84 -21.299,-29.941 -23.005,-34.86L-23.005,-34.894C-23.007,-34.889 -23.009,-34.882 -23.011,-34.877C-23.013,-34.884 -23.017,-34.892 -23.019,-34.899L-23.019,-34.854C-24.724,-29.936 -27.348,-23.834 -31.452,-17.355C-36.364,-9.598 -41.745,-3.909 -46.054,-0.001C-46.034,-0.001 -46.013,0 -45.993,0C-41.689,3.908 -36.322,9.587 -31.421,17.326C-27.317,23.805 -24.694,29.906 -22.988,34.825L-22.988,34.86C-22.987,34.854 -22.984,34.848 -22.982,34.843C-22.98,34.85 -22.976,34.858 -22.974,34.865L-22.974,34.82C-21.269,29.901 -18.645,23.8 -14.542,17.321C-9.629,9.564 -4.248,3.875 0.061,-0.034L0,-0.034" style="fill:rgb(209,45,37);fill-rule:nonzero;"/>
                </g>
            </g>
        </g>
    </g>
</svg>
