<?xml version="1.0" encoding="UTF-8" standalone="no"?>
<!DOCTYPE svg PUBLIC "-//W3C//DTD SVG 1.1//EN" "http://www.w3.org/Graphics/SVG/1.1/DTD/svg11.dtd">
<svg width="100%" height="100%" viewBox="0 0 477 666" version="1.1" xmlns="http://www.w3.org/2000/svg" xmlns:xlink="http://www.w3.org/1999/xlink" xml:space="preserve" xmlns:serif="http://www.serif.com/" style="fill-rule:evenodd;clip-rule:evenodd;stroke-linejoin:round;stroke-miterlimit:2;">
    <g transform="matrix(1,0,0,1,-4285.99,-2993.39)">
        <g id="Page-49" serif:id="Page 49" transform="matrix(2.66667,0,0,2.66667,4285.99,2993.39)">
            <rect x="0" y="0" width="178.583" height="249.449" style="fill:white;"/>
            <g id="Слой-1" serif:id="Слой 1">
                <g transform="matrix(1,0,0,1,59.5914,85.4557)">
                    <path d="M0,-66.496L0,-23.808C0,-18.973 -0.93,-14.771 -2.79,-11.207C-4.65,-7.641 -7.286,-4.883 -10.695,-2.93C-14.105,-0.976 -18.104,0 -22.692,0C-29.202,0 -34.489,-1.984 -38.548,-5.953C-42.61,-9.92 -44.889,-15.469 -45.384,-22.6L-30.969,-24.18C-30.722,-20.273 -29.946,-17.516 -28.644,-15.902C-27.342,-14.291 -25.358,-13.484 -22.692,-13.484C-19.53,-13.484 -17.407,-14.492 -16.322,-16.508C-15.237,-18.521 -14.694,-21.234 -14.694,-24.644L-14.694,-66.423L0,-66.496Z" style="fill:rgb(209,45,37);fill-rule:nonzero;"/>
                </g>
                <g transform="matrix(1,0,0,1,123.072,165.068)">
                    <path d="M0,66.496L0,23.808C0,18.973 0.93,14.771 2.79,11.207C4.65,7.641 7.286,4.883 10.695,2.93C14.105,0.976 18.104,0 22.692,0C29.202,0 34.489,1.984 38.548,5.953C42.61,9.92 44.889,15.469 45.384,22.6L30.969,24.18C30.722,20.273 29.946,17.516 28.644,15.902C27.342,14.291 25.358,13.484 22.692,13.484C19.53,13.484 17.407,14.492 16.322,16.508C15.237,18.521 14.694,21.234 14.694,24.644L14.694,66.423L0,66.496Z" style="fill:rgb(209,45,37);fill-rule:nonzero;"/>
                </g>
                <g transform="matrix(1,0,0,1,165.501,52.3643)">
                    <path d="M0,-0.034C-4.304,-3.942 -9.671,-9.621 -14.572,-17.36C-18.676,-23.84 -21.299,-29.941 -23.005,-34.86L-23.005,-34.894C-23.007,-34.889 -23.009,-34.882 -23.011,-34.877C-23.013,-34.884 -23.017,-34.892 -23.019,-34.899L-23.019,-34.854C-24.724,-29.936 -27.348,-23.834 -31.452,-17.355C-36.364,-9.598 -41.745,-3.909 -46.054,-0.001C-46.034,-0.001 -46.013,0 -45.993,0C-41.689,3.908 -36.322,9.587 -31.421,17.326C-27.317,23.805 -24.694,29.906 -22.988,34.825L-22.988,34.86C-22.987,34.854 -22.984,34.848 -22.982,34.843C-22.98,34.85 -22.976,34.858 -22.974,34.865L-22.974,34.82C-21.269,29.901 -18.645,23.8 -14.542,17.321C-9.629,9.564 -4.248,3.875 0.061,-0.034L0,-0.034" style="fill:rgb(209,45,37);fill-rule:nonzero;"/>
                </g>
                <g transform="matrix(1,0,0,1,59.0135,196.532)">
                    <path d="M0,-0.034C-4.304,-3.942 -9.671,-9.621 -14.572,-17.36C-18.676,-23.84 -21.299,-29.941 -23.005,-34.86L-23.005,-34.894C-23.007,-34.889 -23.009,-34.882 -23.011,-34.877C-23.013,-34.884 -23.017,-34.892 -23.019,-34.899L-23.019,-34.854C-24.724,-29.936 -27.348,-23.834 -31.452,-17.355C-36.364,-9.598 -41.745,-3.909 -46.054,-0.001C-46.034,-0.001 -46.013,0 -45.993,0C-41.689,3.908 -36.322,9.587 -31.421,17.326C-27.317,23.805 -24.694,29.906 -22.988,34.825L-22.988,34.86C-22.987,34.854 -22.984,34.848 -22.982,34.843C-22.98,34.85 -22.976,34.858 -22.974,34.865L-22.974,34.82C-21.269,29.901 -18.645,23.8 -14.542,17.321C-9.629,9.564 -4.248,3.875 0.061,-0.034L0,-0.034" style="fill:rgb(209,45,37);fill-rule:nonzero;"/>
                </g>
            </g>
        </g>
    </g>
</svg>
