<?xml version="1.0" encoding="UTF-8" standalone="no"?>
<!DOCTYPE svg PUBLIC "-//W3C//DTD SVG 1.1//EN" "http://www.w3.org/Graphics/SVG/1.1/DTD/svg11.dtd">
<svg width="100%" height="100%" viewBox="0 0 477 666" version="1.1" xmlns="http://www.w3.org/2000/svg" xmlns:xlink="http://www.w3.org/1999/xlink" xml:space="preserve" xmlns:serif="http://www.serif.com/" style="fill-rule:evenodd;clip-rule:evenodd;stroke-linejoin:round;stroke-miterlimit:2;">
    <g transform="matrix(1,0,0,1,-4821.74,-2993.39)">
        <g id="Page-50" serif:id="Page 50" transform="matrix(2.66667,0,0,2.66667,4821.74,2993.39)">
            <rect x="0" y="0" width="178.583" height="249.449" style="fill:white;"/>
            <g id="Слой-1" serif:id="Слой 1">
                <g transform="matrix(1,0,0,1,72.9749,17.4729)">
                    <path d="M0,72.261L-27.342,45.943L-18.879,36.921L8.742,63.798L0,72.261ZM-27.342,54.219C-23.808,54.219 -20.771,53.399 -18.228,51.755C-15.686,50.113 -13.717,47.787 -12.322,44.78C-10.927,41.774 -10.229,38.223 -10.229,34.131C-10.229,29.979 -10.927,26.398 -12.322,23.39C-13.717,20.383 -15.686,18.058 -18.228,16.415C-20.771,14.773 -23.808,13.95 -27.342,13.95C-30.814,13.95 -33.837,14.757 -36.409,16.368C-38.982,17.982 -40.966,20.29 -42.361,23.297C-43.756,26.305 -44.453,29.916 -44.453,34.131C-44.453,38.285 -43.756,41.866 -42.361,44.873C-40.966,47.881 -38.982,50.19 -36.409,51.801C-33.837,53.414 -30.814,54.219 -27.342,54.219M-27.342,68.169C-33.542,68.169 -39.029,66.758 -43.803,63.938C-48.577,61.117 -52.313,57.149 -55.009,52.033C-57.706,46.919 -59.055,40.952 -59.055,34.131C-59.055,27.312 -57.722,21.344 -55.056,16.229C-52.391,11.114 -48.671,7.131 -43.896,4.279C-39.122,1.427 -33.604,0 -27.342,0C-21.018,0 -15.47,1.411 -10.694,4.232C-5.921,7.054 -2.201,11.021 0.466,16.136C3.131,21.251 4.465,27.249 4.465,34.131C4.465,40.952 3.116,46.919 0.419,52.033C-2.278,57.149 -6.014,61.117 -10.787,63.938C-15.563,66.758 -21.08,68.169 -27.342,68.169" style="fill:rgb(209,45,37);fill-rule:nonzero;"/>
                </g>
                <g transform="matrix(1,0,0,1,109.406,233.881)">
                    <path d="M0,-72.261L27.342,-45.943L18.879,-36.921L-8.742,-63.798L0,-72.261ZM27.342,-54.219C23.808,-54.219 20.771,-53.399 18.228,-51.755C15.686,-50.113 13.717,-47.787 12.322,-44.78C10.927,-41.774 10.229,-38.223 10.229,-34.131C10.229,-29.979 10.927,-26.398 12.322,-23.39C13.717,-20.383 15.686,-18.058 18.228,-16.415C20.771,-14.773 23.808,-13.95 27.342,-13.95C30.814,-13.95 33.837,-14.757 36.409,-16.368C38.982,-17.982 40.966,-20.29 42.361,-23.297C43.756,-26.305 44.453,-29.916 44.453,-34.131C44.453,-38.285 43.756,-41.866 42.361,-44.873C40.966,-47.881 38.982,-50.19 36.409,-51.801C33.837,-53.414 30.814,-54.219 27.342,-54.219M27.342,-68.169C33.542,-68.169 39.029,-66.758 43.803,-63.938C48.577,-61.117 52.313,-57.149 55.009,-52.033C57.706,-46.919 59.055,-40.952 59.055,-34.131C59.055,-27.312 57.722,-21.344 55.056,-16.229C52.391,-11.114 48.671,-7.131 43.896,-4.279C39.122,-1.427 33.604,0 27.342,0C21.018,0 15.47,-1.411 10.694,-4.232C5.921,-7.054 2.201,-11.021 -0.466,-16.136C-3.131,-21.251 -4.465,-27.249 -4.465,-34.131C-4.465,-40.952 -3.116,-46.919 -0.419,-52.033C2.278,-57.149 6.014,-61.117 10.787,-63.938C15.563,-66.758 21.08,-68.169 27.342,-68.169" style="fill:rgb(209,45,37);fill-rule:nonzero;"/>
                </g>
                <g transform="matrix(1,0,0,1,165.563,52.3643)">
                    <path d="M0,-0.034C-4.304,-3.942 -9.671,-9.621 -14.572,-17.36C-18.676,-23.84 -21.299,-29.941 -23.005,-34.86L-23.005,-34.894C-23.007,-34.889 -23.009,-34.882 -23.011,-34.877C-23.013,-34.884 -23.017,-34.892 -23.019,-34.899L-23.019,-34.854C-24.724,-29.936 -27.348,-23.834 -31.451,-17.355C-36.364,-9.598 -41.745,-3.909 -46.054,-0.001C-46.034,-0.001 -46.013,0 -45.993,0C-41.689,3.908 -36.322,9.587 -31.421,17.326C-27.317,23.805 -24.694,29.906 -22.988,34.825L-22.988,34.86C-22.987,34.854 -22.984,34.848 -22.982,34.843C-22.98,34.85 -22.976,34.858 -22.974,34.865L-22.974,34.82C-21.269,29.901 -18.645,23.8 -14.542,17.321C-9.629,9.564 -4.248,3.875 0.061,-0.034L0,-0.034" style="fill:rgb(209,45,37);fill-rule:nonzero;"/>
                </g>
                <g transform="matrix(1,0,0,1,59.0759,196.532)">
                    <path d="M0,-0.034C-4.304,-3.942 -9.671,-9.621 -14.572,-17.36C-18.676,-23.84 -21.299,-29.941 -23.005,-34.86L-23.005,-34.894C-23.007,-34.889 -23.009,-34.882 -23.011,-34.877C-23.013,-34.884 -23.017,-34.892 -23.019,-34.899L-23.019,-34.854C-24.724,-29.936 -27.348,-23.834 -31.451,-17.355C-36.364,-9.598 -41.745,-3.909 -46.054,-0.001C-46.034,-0.001 -46.013,0 -45.993,0C-41.689,3.908 -36.322,9.587 -31.421,17.326C-27.317,23.805 -24.694,29.906 -22.988,34.825L-22.988,34.86C-22.987,34.854 -22.984,34.848 -22.982,34.843C-22.98,34.85 -22.976,34.858 -22.974,34.865L-22.974,34.82C-21.269,29.901 -18.645,23.8 -14.542,17.321C-9.629,9.564 -4.248,3.875 0.061,-0.034L0,-0.034" style="fill:rgb(209,45,37);fill-rule:nonzero;"/>
                </g>
            </g>
        </g>
    </g>
</svg>
