<?xml version="1.0" encoding="UTF-8" standalone="no"?>
<!DOCTYPE svg PUBLIC "-//W3C//DTD SVG 1.1//EN" "http://www.w3.org/Graphics/SVG/1.1/DTD/svg11.dtd">
<svg width="100%" height="100%" viewBox="0 0 477 666" version="1.1" xmlns="http://www.w3.org/2000/svg" xmlns:xlink="http://www.w3.org/1999/xlink" xml:space="preserve" xmlns:serif="http://www.serif.com/" style="fill-rule:evenodd;clip-rule:evenodd;stroke-linejoin:round;stroke-miterlimit:2;">
    <g transform="matrix(1,0,0,1,-535.749,-1496.69)">
        <g id="Page-22" serif:id="Page 22" transform="matrix(2.66667,0,0,2.66667,535.749,1496.69)">
            <rect x="0" y="0" width="178.583" height="249.449" style="fill:white;"/>
            <g id="Слой-1" serif:id="Слой 1">
                <g transform="matrix(1,0,0,1,29.0166,18.7013)">
                    <path d="M0,66.485L0,14.595L4.102,21.558L-16.788,21.558L-16.788,10.207L-7.345,10.207C-4.929,10.207 -3.1,9.682 -1.86,8.633C-0.62,7.584 0,5.724 0,3.053L0,0L14.403,0L14.403,66.485L0,66.485Z" style="fill:rgb(209,45,37);fill-rule:nonzero;"/>
                </g>
                <g transform="matrix(1,0,0,1,74.7956,31.2926)">
                    <path d="M0,41.112C2.798,41.112 4.865,40.158 6.2,38.25C7.536,36.342 8.409,33.831 8.823,30.715C9.236,27.6 9.443,24.262 9.443,20.699C9.443,16.948 9.236,13.514 8.823,10.397C8.409,7.282 7.536,4.786 6.2,2.909C4.865,1.035 2.798,0.096 0,0.096C-2.098,0.096 -3.784,0.636 -5.056,1.717C-6.328,2.799 -7.266,4.292 -7.869,6.2C-8.475,8.109 -8.887,10.302 -9.109,12.782C-9.333,15.262 -9.443,17.901 -9.443,20.699C-9.443,23.37 -9.333,25.93 -9.109,28.377C-8.887,30.826 -8.475,33.004 -7.869,34.912C-7.266,36.819 -6.328,38.33 -5.056,39.442C-3.784,40.556 -2.098,41.112 0,41.112M0,54.847C-4.452,54.847 -8.141,54.084 -11.065,52.559C-13.991,51.032 -16.327,49.014 -18.076,46.502C-19.826,43.99 -21.145,41.224 -22.034,38.202C-22.926,35.183 -23.498,32.097 -23.751,28.95C-24.006,25.802 -24.133,22.894 -24.133,20.222C-24.133,17.68 -24.006,14.897 -23.751,11.876C-23.498,8.857 -22.941,5.835 -22.082,2.814C-21.223,-0.205 -19.921,-2.956 -18.171,-5.436C-16.423,-7.916 -14.07,-9.92 -11.112,-11.446C-8.156,-12.973 -4.452,-13.735 0,-13.735C4.514,-13.735 8.251,-12.973 11.208,-11.446C14.165,-9.92 16.517,-7.9 18.267,-5.389C20.015,-2.876 21.302,-0.11 22.13,2.909C22.955,5.931 23.497,8.952 23.751,11.972C24.004,14.993 24.133,17.742 24.133,20.222C24.133,22.894 24.004,25.802 23.751,28.95C23.497,32.097 22.924,35.183 22.034,38.202C21.143,41.224 19.824,43.99 18.076,46.502C16.326,49.014 13.989,51.032 11.065,52.559C8.139,54.084 4.45,54.847 0,54.847" style="fill:rgb(209,45,37);fill-rule:nonzero;"/>
                </g>
                <g transform="matrix(1,0,0,1,151.548,230.203)">
                    <path d="M0,-66.485L0,-14.595L-4.102,-21.558L16.788,-21.558L16.788,-10.207L7.345,-10.207C4.929,-10.207 3.1,-9.682 1.86,-8.633C0.62,-7.584 0,-5.724 0,-3.053L0,0L-14.403,0L-14.403,-66.485L0,-66.485Z" style="fill:rgb(209,45,37);fill-rule:nonzero;"/>
                </g>
                <g transform="matrix(1,0,0,1,105.77,217.611)">
                    <path d="M0,-41.112C-2.798,-41.112 -4.865,-40.158 -6.2,-38.25C-7.536,-36.342 -8.409,-33.831 -8.823,-30.715C-9.236,-27.6 -9.443,-24.262 -9.443,-20.699C-9.443,-16.948 -9.236,-13.514 -8.823,-10.397C-8.409,-7.282 -7.536,-4.786 -6.2,-2.909C-4.865,-1.035 -2.798,-0.096 0,-0.096C2.098,-0.096 3.784,-0.636 5.056,-1.717C6.328,-2.799 7.266,-4.292 7.869,-6.2C8.475,-8.109 8.887,-10.302 9.109,-12.782C9.333,-15.262 9.443,-17.901 9.443,-20.699C9.443,-23.37 9.333,-25.93 9.109,-28.377C8.887,-30.826 8.475,-33.004 7.869,-34.912C7.266,-36.819 6.328,-38.33 5.056,-39.442C3.784,-40.556 2.098,-41.112 0,-41.112M0,-54.847C4.452,-54.847 8.141,-54.084 11.065,-52.559C13.991,-51.032 16.327,-49.014 18.076,-46.502C19.826,-43.99 21.145,-41.224 22.034,-38.202C22.926,-35.183 23.498,-32.097 23.751,-28.95C24.006,-25.802 24.133,-22.893 24.133,-20.222C24.133,-17.68 24.006,-14.897 23.751,-11.876C23.498,-8.857 22.941,-5.835 22.082,-2.814C21.223,0.205 19.921,2.956 18.171,5.436C16.423,7.916 14.07,9.92 11.112,11.446C8.156,12.973 4.452,13.735 0,13.735C-4.514,13.735 -8.251,12.973 -11.208,11.446C-14.165,9.92 -16.517,7.9 -18.267,5.389C-20.015,2.876 -21.302,0.11 -22.13,-2.909C-22.955,-5.931 -23.497,-8.952 -23.751,-11.972C-24.004,-14.993 -24.133,-17.742 -24.133,-20.222C-24.133,-22.893 -24.004,-25.802 -23.751,-28.95C-23.497,-32.097 -22.924,-35.183 -22.034,-38.202C-21.143,-41.224 -19.824,-43.99 -18.076,-46.502C-16.326,-49.014 -13.989,-51.032 -11.065,-52.559C-8.139,-54.084 -4.45,-54.847 0,-54.847" style="fill:rgb(209,45,37);fill-rule:nonzero;"/>
                </g>
                <g transform="matrix(1,0,0,1,163.122,75.1987)">
                    <path d="M0,-45.461C-0.468,-46.639 -1.844,-49.971 -5.302,-52.243C-9.745,-55.162 -16.342,-55.487 -20.222,-52.366C-23.368,-49.836 -23.924,-45.69 -24.153,-43.504C-24.375,-45.655 -24.894,-49.912 -28.098,-52.49C-31.978,-55.61 -38.574,-55.285 -43.018,-52.366C-46.476,-50.094 -47.852,-46.762 -48.319,-45.584C-50.068,-41.182 -49.299,-37.132 -48.937,-35.227C-47.456,-27.44 -38.565,-10.528 -24.176,9.99C-24.173,10.04 -24.17,10.103 -24.168,10.149C-9.764,-10.385 -0.864,-27.312 0.617,-35.103C0.979,-37.009 1.749,-41.058 0,-45.461" style="fill:rgb(209,45,37);fill-rule:nonzero;"/>
                </g>
                <g transform="matrix(1,0,0,1,14.3695,178.695)">
                    <path d="M0,45.461C0.468,46.639 1.844,49.971 5.302,52.243C9.745,55.162 16.342,55.487 20.222,52.366C23.368,49.836 23.924,45.69 24.153,43.504C24.375,45.655 24.894,49.912 28.098,52.49C31.978,55.61 38.574,55.285 43.018,52.366C46.476,50.094 47.852,46.762 48.319,45.584C50.068,41.182 49.299,37.132 48.937,35.227C47.456,27.44 38.565,10.528 24.176,-9.99C24.173,-10.04 24.17,-10.103 24.168,-10.149C9.764,10.385 0.864,27.312 -0.617,35.103C-0.979,37.009 -1.749,41.058 0,45.461" style="fill:rgb(209,45,37);fill-rule:nonzero;"/>
                </g>
            </g>
        </g>
    </g>
</svg>
