<?xml version="1.0" encoding="UTF-8" standalone="no"?>
<!DOCTYPE svg PUBLIC "-//W3C//DTD SVG 1.1//EN" "http://www.w3.org/Graphics/SVG/1.1/DTD/svg11.dtd">
<svg width="100%" height="100%" viewBox="0 0 477 666" version="1.1" xmlns="http://www.w3.org/2000/svg" xmlns:xlink="http://www.w3.org/1999/xlink" xml:space="preserve" xmlns:serif="http://www.serif.com/" style="fill-rule:evenodd;clip-rule:evenodd;stroke-linejoin:round;stroke-miterlimit:2;">
    <g transform="matrix(1,0,0,1,-3750.24,-748.347)">
        <g id="Page-18" serif:id="Page 18" transform="matrix(2.66667,0,0,2.66667,3750.24,748.347)">
            <rect x="0" y="0" width="178.583" height="249.449" style="fill:white;"/>
            <g id="Слой-1" serif:id="Слой 1">
                <g transform="matrix(1,0,0,1,37.0043,52.3203)">
                    <path d="M0,-0.202C-2.09,-0.202 -3.978,0.22 -5.663,1.063C-7.349,1.906 -8.697,3.12 -9.708,4.703C-10.72,6.287 -11.225,8.226 -11.225,10.518C-11.225,12.743 -10.72,14.648 -9.708,16.231C-8.697,17.817 -7.349,19.03 -5.663,19.873C-3.978,20.716 -2.09,21.136 0,21.136C2.089,21.136 3.96,20.716 5.613,19.873C7.264,19.03 8.596,17.817 9.607,16.231C10.619,14.648 11.124,12.743 11.124,10.518C11.124,8.226 10.635,6.287 9.658,4.703C8.68,3.12 7.348,1.906 5.663,1.063C3.977,0.22 2.089,-0.202 0,-0.202M15.776,-35.901L-1.315,-10.719L-3.236,-13.147C-2.293,-13.281 -1.383,-13.4 -0.505,-13.5C0.37,-13.601 1.247,-13.652 2.124,-13.652C6.776,-13.652 10.955,-12.59 14.664,-10.467C18.371,-8.343 21.288,-5.461 23.412,-1.82C25.535,1.821 26.597,5.934 26.597,10.518C26.597,15.508 25.384,19.89 22.957,23.665C20.53,27.441 17.309,30.39 13.298,32.514C9.286,34.637 4.855,35.699 0,35.699C-4.854,35.699 -9.321,34.637 -13.399,32.514C-17.479,30.39 -20.731,27.441 -23.158,23.665C-25.585,19.89 -26.799,15.541 -26.799,10.619C-26.799,8.259 -26.445,5.934 -25.737,3.641C-25.029,1.349 -24.035,-0.841 -22.754,-2.932L-1.82,-35.901L15.776,-35.901Z" style="fill:rgb(209,45,37);fill-rule:nonzero;"/>
                </g>
                <g transform="matrix(1,0,0,1,140.192,197.677)">
                    <path d="M0,0.202C2.09,0.202 3.978,-0.22 5.663,-1.063C7.349,-1.906 8.697,-3.12 9.708,-4.703C10.72,-6.287 11.225,-8.226 11.225,-10.518C11.225,-12.743 10.72,-14.648 9.708,-16.231C8.697,-17.817 7.349,-19.03 5.663,-19.873C3.978,-20.716 2.09,-21.136 0,-21.136C-2.089,-21.136 -3.96,-20.716 -5.613,-19.873C-7.264,-19.03 -8.596,-17.817 -9.607,-16.231C-10.619,-14.648 -11.124,-12.743 -11.124,-10.518C-11.124,-8.226 -10.635,-6.287 -9.658,-4.703C-8.68,-3.12 -7.348,-1.906 -5.663,-1.063C-3.977,-0.22 -2.089,0.202 0,0.202M-15.776,35.901L1.315,10.719L3.236,13.147C2.293,13.281 1.383,13.4 0.505,13.5C-0.37,13.601 -1.247,13.652 -2.124,13.652C-6.776,13.652 -10.955,12.59 -14.664,10.467C-18.371,8.343 -21.288,5.461 -23.412,1.82C-25.535,-1.821 -26.597,-5.934 -26.597,-10.518C-26.597,-15.508 -25.384,-19.89 -22.957,-23.665C-20.53,-27.441 -17.309,-30.39 -13.298,-32.514C-9.286,-34.637 -4.855,-35.699 0,-35.699C4.854,-35.699 9.321,-34.637 13.399,-32.514C17.479,-30.39 20.731,-27.441 23.158,-23.665C25.585,-19.89 26.799,-15.541 26.799,-10.619C26.799,-8.259 26.445,-5.934 25.737,-3.641C25.029,-1.349 24.035,0.841 22.754,2.932L1.82,35.901L-15.776,35.901Z" style="fill:rgb(209,45,37);fill-rule:nonzero;"/>
                </g>
                <g transform="matrix(1,0,0,1,158.675,74.587)">
                    <path d="M0,-45.461C-0.468,-46.639 -1.844,-49.971 -5.302,-52.243C-9.745,-55.162 -16.342,-55.487 -20.222,-52.366C-23.368,-49.836 -23.924,-45.69 -24.153,-43.504C-24.375,-45.655 -24.894,-49.912 -28.098,-52.49C-31.978,-55.61 -38.574,-55.285 -43.018,-52.366C-46.476,-50.094 -47.852,-46.762 -48.319,-45.584C-50.068,-41.182 -49.299,-37.132 -48.937,-35.227C-47.456,-27.44 -38.565,-10.528 -24.176,9.99C-24.173,10.04 -24.17,10.103 -24.168,10.149C-9.764,-10.385 -0.864,-27.312 0.617,-35.103C0.979,-37.009 1.749,-41.058 0,-45.461" style="fill:rgb(209,45,37);fill-rule:nonzero;"/>
                </g>
                <g transform="matrix(1,0,0,1,14.9232,178.083)">
                    <path d="M0,45.461C0.468,46.639 1.844,49.971 5.302,52.243C9.745,55.162 16.342,55.487 20.222,52.366C23.368,49.836 23.924,45.69 24.153,43.504C24.375,45.655 24.894,49.912 28.098,52.49C31.978,55.61 38.574,55.285 43.018,52.366C46.476,50.094 47.852,46.762 48.319,45.584C50.068,41.182 49.299,37.132 48.937,35.227C47.456,27.44 38.565,10.528 24.176,-9.99C24.173,-10.04 24.17,-10.103 24.168,-10.149C9.764,10.385 0.864,27.312 -0.617,35.103C-0.979,37.009 -1.749,41.058 0,45.461" style="fill:rgb(209,45,37);fill-rule:nonzero;"/>
                </g>
            </g>
        </g>
    </g>
</svg>
