<?xml version="1.0" encoding="UTF-8" standalone="no"?>
<!DOCTYPE svg PUBLIC "-//W3C//DTD SVG 1.1//EN" "http://www.w3.org/Graphics/SVG/1.1/DTD/svg11.dtd">
<svg width="100%" height="100%" viewBox="0 0 477 666" version="1.1" xmlns="http://www.w3.org/2000/svg" xmlns:xlink="http://www.w3.org/1999/xlink" xml:space="preserve" xmlns:serif="http://www.serif.com/" style="fill-rule:evenodd;clip-rule:evenodd;stroke-linejoin:round;stroke-miterlimit:2;">
    <g transform="matrix(1,0,0,1,-4821.74,-748.347)">
        <g id="Page-20" serif:id="Page 20" transform="matrix(2.66667,0,0,2.66667,4821.74,748.347)">
            <rect x="0" y="0" width="178.583" height="249.449" style="fill:white;"/>
            <g id="Слой-1" serif:id="Слой 1">
                <g transform="matrix(1,0,0,1,37.1525,58.8812)">
                    <path d="M0,-14.021C2.577,-14.021 4.656,-14.616 6.237,-15.809C7.815,-17.001 8.605,-18.629 8.605,-20.693C8.605,-22.883 7.847,-24.623 6.333,-25.913C4.818,-27.202 2.707,-27.848 0,-27.848C-1.805,-27.848 -3.353,-27.557 -4.641,-26.977C-5.931,-26.397 -6.913,-25.575 -7.591,-24.511C-8.267,-23.448 -8.605,-22.174 -8.605,-20.693C-8.605,-18.629 -7.817,-17.001 -6.237,-15.809C-4.658,-14.616 -2.579,-14.021 0,-14.021M0,13.923C2.321,13.923 4.351,13.584 6.091,12.907C7.832,12.231 9.186,11.216 10.153,9.862C11.119,8.508 11.603,6.833 11.603,4.834C11.603,2.836 11.103,1.176 10.104,-0.146C9.104,-1.466 7.735,-2.466 5.995,-3.143C4.254,-3.82 2.256,-4.158 0,-4.158C-2.257,-4.158 -4.254,-3.82 -5.995,-3.143C-7.735,-2.466 -9.105,-1.466 -10.104,-0.146C-11.105,1.176 -11.603,2.836 -11.603,4.834C-11.603,6.833 -11.119,8.508 -10.153,9.862C-9.186,11.216 -7.832,12.231 -6.091,12.907C-4.351,13.584 -2.321,13.923 0,13.923M0,27.75C-4.578,27.75 -8.864,26.959 -12.86,25.38C-16.857,23.802 -20.08,21.417 -22.529,18.225C-24.979,15.035 -26.203,11.055 -26.203,6.284C-26.203,2.997 -25.56,-0.032 -24.27,-2.805C-22.981,-5.576 -20.919,-7.961 -18.081,-9.96C-19.693,-11.442 -20.95,-13.117 -21.852,-14.988C-22.756,-16.857 -23.206,-19.08 -23.206,-21.659C-23.206,-25.848 -22.127,-29.443 -19.967,-32.44C-17.808,-35.438 -14.956,-37.742 -11.41,-39.353C-7.865,-40.964 -4.061,-41.771 0,-41.771C4.061,-41.771 7.847,-40.964 11.361,-39.353C14.874,-37.742 17.694,-35.438 19.822,-32.44C21.949,-29.443 23.012,-25.848 23.012,-21.659C23.012,-19.08 22.592,-16.857 21.755,-14.988C20.917,-13.117 19.692,-11.442 18.081,-9.96C20.917,-7.961 22.979,-5.576 24.269,-2.805C25.558,-0.032 26.203,2.997 26.203,6.284C26.203,11.055 24.978,15.035 22.529,18.225C20.078,21.417 16.873,23.802 12.908,25.38C8.944,26.959 4.641,27.75 0,27.75" style="fill:rgb(209,45,37);fill-rule:nonzero;"/>
                </g>
                <g transform="matrix(1,0,0,1,134.002,187.584)">
                    <path d="M0,14.021C-2.577,14.021 -4.656,14.616 -6.237,15.809C-7.815,17.001 -8.605,18.629 -8.605,20.693C-8.605,22.883 -7.847,24.623 -6.333,25.913C-4.818,27.202 -2.707,27.848 0,27.848C1.805,27.848 3.353,27.557 4.641,26.977C5.931,26.397 6.913,25.575 7.591,24.511C8.267,23.448 8.605,22.174 8.605,20.693C8.605,18.629 7.817,17.001 6.237,15.809C4.658,14.616 2.579,14.021 0,14.021M0,-13.923C-2.321,-13.923 -4.351,-13.584 -6.091,-12.907C-7.832,-12.231 -9.186,-11.216 -10.153,-9.862C-11.119,-8.508 -11.603,-6.833 -11.603,-4.834C-11.603,-2.836 -11.103,-1.176 -10.104,0.146C-9.104,1.466 -7.735,2.466 -5.995,3.143C-4.254,3.82 -2.256,4.158 0,4.158C2.257,4.158 4.254,3.82 5.995,3.143C7.735,2.466 9.105,1.466 10.104,0.146C11.105,-1.176 11.603,-2.836 11.603,-4.834C11.603,-6.833 11.119,-8.508 10.153,-9.862C9.186,-11.216 7.832,-12.231 6.091,-12.907C4.351,-13.584 2.321,-13.923 0,-13.923M0,-27.75C4.578,-27.75 8.864,-26.959 12.86,-25.38C16.857,-23.802 20.08,-21.417 22.529,-18.225C24.979,-15.035 26.203,-11.055 26.203,-6.284C26.203,-2.997 25.56,0.032 24.27,2.805C22.981,5.576 20.919,7.961 18.081,9.96C19.693,11.442 20.95,13.117 21.852,14.988C22.756,16.857 23.206,19.08 23.206,21.659C23.206,25.848 22.127,29.443 19.967,32.44C17.808,35.438 14.956,37.742 11.41,39.353C7.865,40.964 4.061,41.771 0,41.771C-4.061,41.771 -7.847,40.964 -11.361,39.353C-14.874,37.742 -17.694,35.438 -19.822,32.44C-21.949,29.443 -23.012,25.848 -23.012,21.659C-23.012,19.08 -22.592,16.857 -21.755,14.988C-20.917,13.117 -19.692,11.442 -18.081,9.96C-20.917,7.961 -22.979,5.576 -24.269,2.805C-25.558,0.032 -26.203,-2.997 -26.203,-6.284C-26.203,-11.055 -24.978,-15.035 -22.529,-18.225C-20.078,-21.417 -16.873,-23.802 -12.908,-25.38C-8.944,-26.959 -4.641,-27.75 0,-27.75" style="fill:rgb(209,45,37);fill-rule:nonzero;"/>
                </g>
                <g transform="matrix(1,0,0,1,157.667,73.3635)">
                    <path d="M0,-45.461C-0.468,-46.639 -1.844,-49.971 -5.302,-52.243C-9.745,-55.162 -16.342,-55.487 -20.222,-52.366C-23.368,-49.836 -23.924,-45.69 -24.153,-43.504C-24.375,-45.655 -24.894,-49.912 -28.098,-52.49C-31.978,-55.61 -38.574,-55.285 -43.018,-52.366C-46.476,-50.094 -47.852,-46.762 -48.319,-45.584C-50.068,-41.182 -49.299,-37.132 -48.937,-35.227C-47.456,-27.44 -38.565,-10.528 -24.176,9.99C-24.173,10.04 -24.17,10.103 -24.168,10.149C-9.764,-10.385 -0.864,-27.312 0.617,-35.103C0.979,-37.009 1.749,-41.058 0,-45.461" style="fill:rgb(209,45,37);fill-rule:nonzero;"/>
                </g>
                <g transform="matrix(1,0,0,1,13.9146,176.86)">
                    <path d="M0,45.461C0.468,46.639 1.844,49.971 5.302,52.243C9.745,55.162 16.342,55.487 20.222,52.366C23.368,49.836 23.924,45.69 24.153,43.504C24.375,45.655 24.894,49.912 28.098,52.49C31.978,55.61 38.574,55.285 43.018,52.366C46.476,50.094 47.852,46.762 48.319,45.584C50.068,41.182 49.299,37.132 48.937,35.227C47.456,27.44 38.565,10.528 24.176,-9.99C24.173,-10.04 24.17,-10.103 24.168,-10.149C9.764,10.385 0.864,27.312 -0.617,35.103C-0.979,37.009 -1.749,41.058 0,45.461" style="fill:rgb(209,45,37);fill-rule:nonzero;"/>
                </g>
            </g>
        </g>
    </g>
</svg>
