<?xml version="1.0" encoding="UTF-8" standalone="no"?>
<!DOCTYPE svg PUBLIC "-//W3C//DTD SVG 1.1//EN" "http://www.w3.org/Graphics/SVG/1.1/DTD/svg11.dtd">
<svg width="100%" height="100%" viewBox="0 0 477 666" version="1.1" xmlns="http://www.w3.org/2000/svg" xmlns:xlink="http://www.w3.org/1999/xlink" xml:space="preserve" xmlns:serif="http://www.serif.com/" style="fill-rule:evenodd;clip-rule:evenodd;stroke-linejoin:round;stroke-miterlimit:2;">
    <g transform="matrix(1,0,0,1,0,-1496.69)">
        <g id="Page-21" serif:id="Page 21" transform="matrix(2.66667,0,0,2.66667,0,1496.69)">
            <rect x="0" y="0" width="178.583" height="249.449" style="fill:white;"/>
            <g id="Слой-1" serif:id="Слой 1">
                <g transform="matrix(1,0,0,1,41.6136,51.4991)">
                    <path d="M0,0.202C2.088,0.202 3.975,-0.218 5.659,-1.061C7.343,-1.902 8.691,-3.115 9.702,-4.7C10.713,-6.282 11.218,-8.219 11.218,-10.51C11.218,-12.8 10.713,-14.719 9.702,-16.271C8.691,-17.819 7.343,-19.015 5.659,-19.858C3.975,-20.7 2.088,-21.121 0,-21.121C-2.021,-21.121 -3.875,-20.7 -5.558,-19.858C-7.243,-19.015 -8.59,-17.819 -9.601,-16.271C-10.611,-14.719 -11.116,-12.8 -11.116,-10.51C-11.116,-8.286 -10.628,-6.367 -9.651,-4.75C-8.675,-3.133 -7.344,-1.902 -5.659,-1.061C-3.976,-0.218 -2.089,0.202 0,0.202M-15.765,35.876L1.314,10.712L3.234,13.138C2.358,13.274 1.465,13.39 0.556,13.491C-0.353,13.592 -1.247,13.643 -2.122,13.643C-6.771,13.643 -10.931,12.582 -14.603,10.459C-18.276,8.337 -21.189,5.457 -23.345,1.819C-25.501,-1.82 -26.578,-5.927 -26.578,-10.51C-26.578,-15.495 -25.366,-19.874 -22.94,-23.648C-20.515,-27.42 -17.281,-30.369 -13.238,-32.49C-9.196,-34.612 -4.784,-35.674 0,-35.674C4.918,-35.674 9.399,-34.612 13.441,-32.49C17.484,-30.369 20.718,-27.42 23.143,-23.648C25.568,-19.874 26.781,-15.528 26.781,-10.611C26.781,-8.32 26.443,-6.013 25.77,-3.688C25.096,-1.364 24.085,0.843 22.739,2.93L1.819,35.876L-15.765,35.876Z" style="fill:rgb(209,45,37);fill-rule:nonzero;"/>
                </g>
                <g transform="matrix(1,0,0,1,134.225,196.808)">
                    <path d="M0,-0.202C-2.088,-0.202 -3.975,0.218 -5.659,1.061C-7.343,1.902 -8.691,3.115 -9.702,4.7C-10.713,6.282 -11.218,8.219 -11.218,10.51C-11.218,12.8 -10.713,14.719 -9.702,16.271C-8.691,17.819 -7.343,19.015 -5.659,19.858C-3.975,20.7 -2.088,21.122 0,21.122C2.021,21.122 3.875,20.7 5.558,19.858C7.243,19.015 8.59,17.819 9.601,16.271C10.611,14.719 11.116,12.8 11.116,10.51C11.116,8.286 10.628,6.367 9.651,4.75C8.675,3.133 7.344,1.902 5.659,1.061C3.976,0.218 2.089,-0.202 0,-0.202M15.765,-35.876L-1.314,-10.712L-3.234,-13.138C-2.358,-13.274 -1.465,-13.39 -0.556,-13.491C0.353,-13.592 1.247,-13.643 2.122,-13.643C6.771,-13.643 10.931,-12.582 14.603,-10.459C18.276,-8.337 21.189,-5.457 23.345,-1.819C25.501,1.82 26.578,5.927 26.578,10.51C26.578,15.495 25.366,19.874 22.94,23.648C20.515,27.42 17.281,30.369 13.238,32.49C9.196,34.612 4.784,35.674 0,35.674C-4.918,35.674 -9.399,34.612 -13.441,32.49C-17.484,30.369 -20.718,27.42 -23.143,23.648C-25.568,19.874 -26.781,15.528 -26.781,10.612C-26.781,8.32 -26.443,6.013 -25.77,3.688C-25.096,1.364 -24.085,-0.843 -22.739,-2.93L-1.819,-35.876L15.765,-35.876Z" style="fill:rgb(209,45,37);fill-rule:nonzero;"/>
                </g>
                <g transform="matrix(1,0,0,1,156.671,73.9752)">
                    <path d="M0,-45.461C-0.468,-46.639 -1.844,-49.971 -5.302,-52.243C-9.745,-55.162 -16.342,-55.487 -20.222,-52.366C-23.368,-49.836 -23.924,-45.69 -24.153,-43.504C-24.375,-45.655 -24.894,-49.912 -28.098,-52.49C-31.978,-55.61 -38.574,-55.285 -43.018,-52.366C-46.476,-50.094 -47.852,-46.762 -48.319,-45.584C-50.068,-41.182 -49.299,-37.132 -48.937,-35.227C-47.456,-27.44 -38.565,-10.528 -24.176,9.99C-24.173,10.04 -24.17,10.103 -24.168,10.149C-9.764,-10.385 -0.864,-27.312 0.617,-35.103C0.979,-37.009 1.749,-41.058 0,-45.461" style="fill:rgb(209,45,37);fill-rule:nonzero;"/>
                </g>
                <g transform="matrix(1,0,0,1,12.9186,177.471)">
                    <path d="M0,45.461C0.468,46.639 1.844,49.971 5.302,52.243C9.745,55.162 16.342,55.487 20.222,52.366C23.368,49.836 23.924,45.69 24.153,43.504C24.375,45.655 24.894,49.912 28.098,52.49C31.978,55.61 38.574,55.285 43.018,52.366C46.476,50.094 47.852,46.762 48.319,45.584C50.068,41.182 49.299,37.132 48.937,35.227C47.456,27.44 38.565,10.528 24.176,-9.99C24.173,-10.04 24.17,-10.103 24.168,-10.149C9.764,10.385 0.864,27.312 -0.617,35.103C-0.979,37.009 -1.749,41.058 0,45.461" style="fill:rgb(209,45,37);fill-rule:nonzero;"/>
                </g>
            </g>
        </g>
    </g>
</svg>
