<?xml version="1.0" encoding="UTF-8" standalone="no"?>
<!DOCTYPE svg PUBLIC "-//W3C//DTD SVG 1.1//EN" "http://www.w3.org/Graphics/SVG/1.1/DTD/svg11.dtd">
<svg width="100%" height="100%" viewBox="0 0 477 666" version="1.1" xmlns="http://www.w3.org/2000/svg" xmlns:xlink="http://www.w3.org/1999/xlink" xml:space="preserve" xmlns:serif="http://www.serif.com/" style="fill-rule:evenodd;clip-rule:evenodd;stroke-linejoin:round;stroke-miterlimit:2;">
    <g transform="matrix(1,0,0,1,-1071.5,-1496.69)">
        <g id="Page-23" serif:id="Page 23" transform="matrix(2.66667,0,0,2.66667,1071.5,1496.69)">
            <rect x="0" y="0" width="178.583" height="249.449" style="fill:white;"/>
            <g id="Слой-1" serif:id="Слой 1">
                <g transform="matrix(1,0,0,1,59.99,82.5027)">
                    <path d="M0,-66.496L0,-23.808C0,-18.973 -0.93,-14.771 -2.79,-11.207C-4.65,-7.641 -7.286,-4.883 -10.695,-2.93C-14.105,-0.976 -18.104,0 -22.692,0C-29.202,0 -34.489,-1.984 -38.548,-5.953C-42.61,-9.92 -44.889,-15.469 -45.384,-22.6L-30.969,-24.18C-30.722,-20.273 -29.946,-17.516 -28.644,-15.902C-27.342,-14.291 -25.358,-13.484 -22.692,-13.484C-19.53,-13.484 -17.407,-14.492 -16.322,-16.508C-15.237,-18.521 -14.694,-21.234 -14.694,-24.644L-14.694,-66.423L0,-66.496Z" style="fill:rgb(209,45,37);fill-rule:nonzero;"/>
                </g>
                <g transform="matrix(1,0,0,1,123.47,162.115)">
                    <path d="M0,66.496L0,23.808C0,18.973 0.93,14.771 2.79,11.207C4.65,7.641 7.286,4.883 10.695,2.93C14.105,0.976 18.104,0 22.692,0C29.202,0 34.489,1.984 38.548,5.953C42.61,9.92 44.889,15.469 45.384,22.6L30.969,24.18C30.722,20.273 29.946,17.516 28.644,15.902C27.342,14.291 25.358,13.484 22.692,13.484C19.53,13.484 17.407,14.492 16.322,16.508C15.237,18.521 14.694,21.234 14.694,24.644L14.694,66.423L0,66.496Z" style="fill:rgb(209,45,37);fill-rule:nonzero;"/>
                </g>
                <g transform="matrix(1,0,0,1,160.74,74.3517)">
                    <path d="M0,-45.461C-0.468,-46.639 -1.844,-49.971 -5.302,-52.243C-9.745,-55.162 -16.342,-55.487 -20.222,-52.366C-23.368,-49.836 -23.924,-45.69 -24.153,-43.504C-24.375,-45.655 -24.894,-49.912 -28.098,-52.49C-31.978,-55.61 -38.574,-55.285 -43.018,-52.366C-46.476,-50.094 -47.852,-46.762 -48.319,-45.584C-50.068,-41.182 -49.299,-37.132 -48.937,-35.227C-47.456,-27.44 -38.565,-10.528 -24.176,9.99C-24.173,10.04 -24.17,10.103 -24.168,10.149C-9.764,-10.385 -0.864,-27.312 0.617,-35.103C0.979,-37.009 1.749,-41.058 0,-45.461" style="fill:rgb(209,45,37);fill-rule:nonzero;"/>
                </g>
                <g transform="matrix(1,0,0,1,11.9879,177.848)">
                    <path d="M0,45.461C0.468,46.639 1.844,49.971 5.302,52.243C9.745,55.162 16.342,55.487 20.222,52.366C23.368,49.836 23.924,45.69 24.153,43.504C24.375,45.655 24.894,49.912 28.098,52.49C31.978,55.61 38.574,55.285 43.018,52.366C46.476,50.094 47.852,46.762 48.319,45.584C50.068,41.182 49.299,37.132 48.937,35.227C47.456,27.44 38.565,10.528 24.176,-9.99C24.173,-10.04 24.17,-10.103 24.168,-10.149C9.764,10.385 0.864,27.312 -0.617,35.103C-0.979,37.009 -1.749,41.058 0,45.461" style="fill:rgb(209,45,37);fill-rule:nonzero;"/>
                </g>
            </g>
        </g>
    </g>
</svg>
