<?xml version="1.0" encoding="UTF-8" standalone="no"?>
<!DOCTYPE svg PUBLIC "-//W3C//DTD SVG 1.1//EN" "http://www.w3.org/Graphics/SVG/1.1/DTD/svg11.dtd">
<svg width="100%" height="100%" viewBox="0 0 477 666" version="1.1" xmlns="http://www.w3.org/2000/svg" xmlns:xlink="http://www.w3.org/1999/xlink" xml:space="preserve" xmlns:serif="http://www.serif.com/" style="fill-rule:evenodd;clip-rule:evenodd;stroke-linejoin:round;stroke-miterlimit:2;">
    <g transform="matrix(1,0,0,1,-1607.25,-1496.69)">
        <g id="Page-24" serif:id="Page 24" transform="matrix(2.66667,0,0,2.66667,1607.25,1496.69)">
            <rect x="0" y="0" width="178.583" height="249.449" style="fill:white;"/>
            <g id="Слой-1" serif:id="Слой 1">
                <g transform="matrix(1,0,0,1,73.3735,14.52)">
                    <path d="M0,72.261L-27.342,45.943L-18.879,36.921L8.742,63.798L0,72.261ZM-27.342,54.219C-23.808,54.219 -20.771,53.399 -18.228,51.755C-15.686,50.113 -13.717,47.787 -12.322,44.78C-10.927,41.774 -10.229,38.223 -10.229,34.131C-10.229,29.979 -10.927,26.398 -12.322,23.39C-13.717,20.383 -15.686,18.058 -18.228,16.415C-20.771,14.773 -23.808,13.95 -27.342,13.95C-30.814,13.95 -33.837,14.757 -36.409,16.368C-38.982,17.982 -40.966,20.29 -42.361,23.297C-43.756,26.305 -44.453,29.916 -44.453,34.131C-44.453,38.285 -43.756,41.866 -42.361,44.873C-40.966,47.881 -38.982,50.19 -36.409,51.801C-33.837,53.414 -30.814,54.219 -27.342,54.219M-27.342,68.169C-33.542,68.169 -39.029,66.758 -43.803,63.938C-48.577,61.117 -52.313,57.149 -55.009,52.033C-57.706,46.919 -59.055,40.952 -59.055,34.131C-59.055,27.312 -57.722,21.344 -55.056,16.229C-52.391,11.114 -48.671,7.131 -43.896,4.279C-39.122,1.427 -33.604,0 -27.342,0C-21.018,0 -15.47,1.411 -10.694,4.232C-5.921,7.054 -2.201,11.021 0.466,16.136C3.131,21.251 4.465,27.249 4.465,34.131C4.465,40.952 3.116,46.919 0.419,52.033C-2.278,57.149 -6.014,61.117 -10.787,63.938C-15.563,66.758 -21.08,68.169 -27.342,68.169" style="fill:rgb(209,45,37);fill-rule:nonzero;"/>
                </g>
                <g transform="matrix(1,0,0,1,109.804,230.928)">
                    <path d="M0,-72.261L27.342,-45.943L18.879,-36.921L-8.742,-63.798L0,-72.261ZM27.342,-54.219C23.808,-54.219 20.77,-53.399 18.228,-51.755C15.686,-50.113 13.717,-47.787 12.322,-44.78C10.927,-41.774 10.229,-38.223 10.229,-34.131C10.229,-29.979 10.927,-26.398 12.322,-23.39C13.717,-20.383 15.686,-18.058 18.228,-16.415C20.77,-14.773 23.808,-13.95 27.342,-13.95C30.814,-13.95 33.837,-14.757 36.409,-16.368C38.982,-17.982 40.966,-20.29 42.361,-23.297C43.756,-26.305 44.453,-29.916 44.453,-34.131C44.453,-38.285 43.756,-41.866 42.361,-44.873C40.966,-47.881 38.982,-50.19 36.409,-51.801C33.837,-53.414 30.814,-54.219 27.342,-54.219M27.342,-68.169C33.542,-68.169 39.029,-66.758 43.803,-63.938C48.577,-61.117 52.312,-57.149 55.009,-52.033C57.706,-46.919 59.055,-40.952 59.055,-34.131C59.055,-27.312 57.722,-21.344 55.056,-16.229C52.391,-11.114 48.671,-7.131 43.895,-4.279C39.122,-1.427 33.604,0 27.342,0C21.018,0 15.47,-1.411 10.694,-4.232C5.921,-7.054 2.201,-11.021 -0.466,-16.136C-3.131,-21.251 -4.465,-27.249 -4.465,-34.131C-4.465,-40.952 -3.116,-46.919 -0.419,-52.033C2.278,-57.149 6.014,-61.117 10.787,-63.938C15.563,-66.758 21.08,-68.169 27.342,-68.169" style="fill:rgb(209,45,37);fill-rule:nonzero;"/>
                </g>
                <g transform="matrix(1,0,0,1,164.288,76.0458)">
                    <path d="M0,-45.461C-0.468,-46.639 -1.844,-49.971 -5.302,-52.243C-9.745,-55.162 -16.342,-55.487 -20.222,-52.366C-23.368,-49.836 -23.924,-45.69 -24.153,-43.504C-24.375,-45.655 -24.894,-49.912 -28.098,-52.49C-31.978,-55.61 -38.574,-55.285 -43.018,-52.366C-46.476,-50.094 -47.852,-46.762 -48.319,-45.584C-50.068,-41.182 -49.299,-37.132 -48.937,-35.227C-47.456,-27.44 -38.565,-10.528 -24.176,9.99C-24.173,10.04 -24.17,10.103 -24.168,10.149C-9.764,-10.385 -0.864,-27.312 0.617,-35.103C0.979,-37.009 1.749,-41.058 0,-45.461" style="fill:rgb(209,45,37);fill-rule:nonzero;"/>
                </g>
                <g transform="matrix(1,0,0,1,15.5357,179.542)">
                    <path d="M0,45.461C0.468,46.639 1.844,49.971 5.302,52.243C9.745,55.162 16.342,55.487 20.222,52.366C23.368,49.836 23.924,45.69 24.153,43.504C24.375,45.655 24.894,49.912 28.098,52.49C31.978,55.61 38.574,55.285 43.018,52.366C46.476,50.094 47.852,46.762 48.319,45.584C50.068,41.182 49.299,37.132 48.937,35.227C47.456,27.44 38.565,10.528 24.176,-9.99C24.173,-10.04 24.17,-10.103 24.168,-10.149C9.764,10.385 0.864,27.312 -0.617,35.103C-0.979,37.009 -1.749,41.058 0,45.461" style="fill:rgb(209,45,37);fill-rule:nonzero;"/>
                </g>
            </g>
        </g>
    </g>
</svg>
