<?xml version="1.0" encoding="UTF-8" standalone="no"?>
<!DOCTYPE svg PUBLIC "-//W3C//DTD SVG 1.1//EN" "http://www.w3.org/Graphics/SVG/1.1/DTD/svg11.dtd">
<svg width="100%" height="100%" viewBox="0 0 477 666" version="1.1" xmlns="http://www.w3.org/2000/svg" xmlns:xlink="http://www.w3.org/1999/xlink" xml:space="preserve" xmlns:serif="http://www.serif.com/" style="fill-rule:evenodd;clip-rule:evenodd;stroke-linejoin:round;stroke-miterlimit:2;">
    <g id="Page-1" serif:id="Page 1" transform="matrix(2.66667,0,0,2.66667,0,0)">
        <rect x="0" y="0" width="178.583" height="249.449" style="fill:white;"/>
        <g id="Слой-1" serif:id="Слой 1">
            <g transform="matrix(1,0,0,1,13.3185,17.2444)">
                <path d="M0,71.91L0,60.69C2.04,59.262 4.437,57.563 7.191,55.59C9.945,53.619 12.766,51.443 15.657,49.062C18.546,46.682 21.232,44.115 23.715,41.361C26.197,38.607 28.219,35.768 29.784,32.844C31.348,29.921 32.13,26.928 32.13,23.868C32.13,21.42 31.518,19.313 30.294,17.544C29.07,15.776 26.995,14.892 24.072,14.892C21.487,14.892 19.516,15.59 18.156,16.983C16.795,18.378 15.826,20.078 15.249,22.083C14.67,24.09 14.313,26.01 14.178,27.846L-0.918,26.622C-0.918,23.495 -0.375,20.366 0.714,17.238C1.801,14.111 3.417,11.237 5.559,8.619C7.701,6.002 10.353,3.911 13.515,2.346C16.677,0.782 20.332,0 24.48,0C28.899,0 32.844,0.969 36.312,2.907C39.78,4.845 42.499,7.565 44.472,11.067C46.443,14.57 47.43,18.666 47.43,23.358C47.43,26.759 46.903,30.056 45.849,33.252C44.794,36.449 43.282,39.525 41.31,42.483C39.337,45.441 36.924,48.23 34.068,50.847C31.212,53.466 27.948,55.896 24.276,58.14C20.604,60.384 16.591,62.39 12.24,64.158L16.32,57.63L50.184,57.63L50.184,71.91L0,71.91Z" style="fill:rgb(29,30,28);fill-rule:nonzero;"/>
            </g>
            <g transform="matrix(1,0,0,1,162.518,236.96)">
                <path d="M0,-71.91L0,-60.69C-2.04,-59.262 -4.437,-57.563 -7.191,-55.59C-9.945,-53.619 -12.766,-51.443 -15.657,-49.062C-18.546,-46.682 -21.232,-44.115 -23.715,-41.361C-26.197,-38.607 -28.219,-35.768 -29.784,-32.844C-31.348,-29.921 -32.13,-26.928 -32.13,-23.868C-32.13,-21.42 -31.518,-19.313 -30.294,-17.544C-29.07,-15.776 -26.995,-14.892 -24.072,-14.892C-21.487,-14.892 -19.516,-15.59 -18.156,-16.983C-16.795,-18.378 -15.826,-20.078 -15.249,-22.083C-14.67,-24.09 -14.313,-26.01 -14.178,-27.846L0.918,-26.622C0.918,-23.495 0.375,-20.366 -0.714,-17.238C-1.801,-14.111 -3.417,-11.237 -5.559,-8.619C-7.701,-6.002 -10.353,-3.911 -13.515,-2.346C-16.677,-0.782 -20.332,0 -24.48,0C-28.899,0 -32.844,-0.969 -36.312,-2.907C-39.78,-4.845 -42.499,-7.565 -44.472,-11.067C-46.443,-14.57 -47.43,-18.666 -47.43,-23.358C-47.43,-26.759 -46.903,-30.056 -45.849,-33.252C-44.794,-36.449 -43.282,-39.525 -41.31,-42.483C-39.337,-45.441 -36.924,-48.23 -34.068,-50.847C-31.212,-53.466 -27.948,-55.896 -24.276,-58.14C-20.604,-60.384 -16.591,-62.39 -12.24,-64.158L-16.32,-57.63L-50.184,-57.63L-50.184,-71.91L0,-71.91Z" style="fill:rgb(29,30,28);fill-rule:nonzero;"/>
            </g>
            <g transform="matrix(1,0,0,1,166.307,52.8366)">
                <path d="M0,3.895C-1.749,-5.891 -11.326,-8.743 -19.94,-21.575C-22.984,-26.11 -24.787,-30.221 -25.787,-32.797L-27.839,-32.802L-27.839,-32.927L-29.952,-32.921C-30.951,-30.346 -32.754,-26.235 -35.798,-21.7C-44.413,-8.868 -53.989,-6.016 -55.738,3.77C-56.133,5.979 -56.298,9.486 -54.512,14.179C-52.554,19.542 -47.34,22.976 -41.83,22.621C-36.82,22.299 -32.418,18.9 -30.729,14.024C-30.671,16.63 -30.871,20.285 -32.028,24.465C-33.289,29.026 -35.215,32.495 -36.72,34.77L-36.72,36.697L-27.9,36.697L-27.9,36.822L-19.019,36.822L-19.019,34.895C-20.523,32.619 -22.449,29.151 -23.711,24.589C-24.867,20.409 -25.067,16.754 -25.009,14.149C-23.32,19.025 -18.918,22.424 -13.908,22.746C-8.399,23.1 -3.184,19.667 -1.226,14.304C0.559,9.611 0.395,6.104 0,3.895" style="fill:rgb(29,29,27);fill-rule:nonzero;"/>
            </g>
            <g transform="matrix(1,0,0,1,12.7025,201.741)">
                <path d="M0,-3.895C1.749,5.891 11.326,8.743 19.94,21.575C22.984,26.11 24.787,30.221 25.787,32.797L27.839,32.802L27.839,32.927L29.952,32.921C30.951,30.346 32.754,26.235 35.798,21.7C44.413,8.868 53.989,6.016 55.738,-3.77C56.133,-5.979 56.298,-9.486 54.512,-14.179C52.554,-19.542 47.34,-22.976 41.83,-22.621C36.82,-22.299 32.418,-18.9 30.729,-14.024C30.671,-16.63 30.871,-20.285 32.028,-24.465C33.289,-29.026 35.215,-32.495 36.72,-34.77L36.72,-36.697L27.9,-36.697L27.9,-36.822L19.019,-36.822L19.019,-34.895C20.523,-32.619 22.449,-29.151 23.711,-24.589C24.867,-20.409 25.067,-16.754 25.009,-14.149C23.32,-19.025 18.918,-22.424 13.908,-22.746C8.399,-23.1 3.184,-19.667 1.226,-14.304C-0.559,-9.611 -0.395,-6.104 0,-3.895" style="fill:rgb(29,29,27);fill-rule:nonzero;"/>
            </g>
        </g>
    </g>
</svg>
