<?xml version="1.0" encoding="UTF-8" standalone="no"?>
<!DOCTYPE svg PUBLIC "-//W3C//DTD SVG 1.1//EN" "http://www.w3.org/Graphics/SVG/1.1/DTD/svg11.dtd">
<svg width="100%" height="100%" viewBox="0 0 477 666" version="1.1" xmlns="http://www.w3.org/2000/svg" xmlns:xlink="http://www.w3.org/1999/xlink" xml:space="preserve" xmlns:serif="http://www.serif.com/" style="fill-rule:evenodd;clip-rule:evenodd;stroke-linejoin:round;stroke-miterlimit:2;">
    <g transform="matrix(1,0,0,1,-535.749,0)">
        <g id="Page-2" serif:id="Page 2" transform="matrix(2.66667,0,0,2.66667,535.749,0)">
            <rect x="0" y="0" width="178.583" height="249.449" style="fill:white;"/>
            <g id="Слой-1" serif:id="Слой 1">
                <g transform="matrix(1,0,0,1,40.4074,19.7216)">
                    <path d="M0,69.655C-5.182,69.655 -9.715,68.699 -13.601,66.789C-17.486,64.88 -20.515,62.192 -22.684,58.726C-24.855,55.262 -25.939,51.231 -25.939,46.631L-11.366,45.757C-11.366,48.736 -10.282,51.134 -8.112,52.945C-5.943,54.76 -3.077,55.666 0.486,55.666C2.818,55.666 4.776,55.343 6.364,54.695C7.949,54.048 9.164,53.091 10.006,51.828C10.848,50.565 11.269,49.06 11.269,47.311C11.269,45.887 10.993,44.656 10.444,43.619C9.893,42.584 9.018,41.741 7.82,41.094C6.621,40.447 5.115,39.961 3.303,39.637C1.489,39.313 -0.68,39.15 -3.206,39.15L-3.206,27.687C-1.457,27.687 0.081,27.541 1.409,27.25C2.735,26.959 3.837,26.521 4.712,25.939C5.586,25.356 6.233,24.611 6.655,23.704C7.075,22.798 7.286,21.729 7.286,20.498C7.286,19.074 6.995,17.892 6.412,16.952C5.829,16.014 4.986,15.285 3.886,14.766C2.784,14.249 1.457,13.989 -0.097,13.989C-2.688,13.989 -4.728,14.669 -6.218,16.029C-7.708,17.39 -8.485,19.301 -8.549,21.761L-23.024,20.79C-23.024,16.775 -22.021,13.197 -20.012,10.054C-18.006,6.914 -15.237,4.454 -11.706,2.672C-8.177,0.89 -4.145,0 0.389,0C4.663,0 8.419,0.811 11.658,2.429C14.896,4.048 17.422,6.265 19.236,9.083C21.048,11.901 21.956,15.188 21.956,18.944C21.956,20.303 21.81,21.6 21.519,22.829C21.227,24.06 20.805,25.226 20.256,26.327C19.705,27.429 19.024,28.415 18.215,29.29C17.405,30.165 16.482,30.959 15.447,31.671C17.13,32.384 18.636,33.273 19.964,34.341C21.291,35.41 22.393,36.61 23.267,37.936C24.141,39.264 24.805,40.722 25.259,42.308C25.711,43.896 25.939,45.596 25.939,47.408C25.939,51.813 24.853,55.682 22.684,59.017C20.514,62.354 17.487,64.96 13.601,66.838C9.715,68.715 5.181,69.655 0,69.655" style="fill:rgb(29,30,28);fill-rule:nonzero;"/>
                </g>
                <g transform="matrix(1,0,0,1,134.195,235.334)">
                    <path d="M0,-69.655C5.182,-69.655 9.715,-68.699 13.601,-66.789C17.486,-64.88 20.515,-62.192 22.684,-58.726C24.855,-55.262 25.939,-51.231 25.939,-46.631L11.366,-45.757C11.366,-48.736 10.282,-51.134 8.112,-52.945C5.943,-54.76 3.077,-55.666 -0.486,-55.666C-2.818,-55.666 -4.776,-55.343 -6.364,-54.695C-7.949,-54.048 -9.164,-53.091 -10.006,-51.828C-10.848,-50.565 -11.269,-49.06 -11.269,-47.311C-11.269,-45.887 -10.993,-44.656 -10.444,-43.619C-9.893,-42.584 -9.018,-41.741 -7.82,-41.094C-6.621,-40.447 -5.115,-39.961 -3.303,-39.637C-1.489,-39.313 0.68,-39.15 3.206,-39.15L3.206,-27.687C1.457,-27.687 -0.081,-27.541 -1.409,-27.25C-2.735,-26.959 -3.837,-26.521 -4.712,-25.939C-5.586,-25.356 -6.233,-24.611 -6.655,-23.704C-7.075,-22.798 -7.286,-21.729 -7.286,-20.498C-7.286,-19.074 -6.995,-17.892 -6.412,-16.952C-5.829,-16.014 -4.986,-15.285 -3.886,-14.766C-2.784,-14.249 -1.457,-13.989 0.097,-13.989C2.688,-13.989 4.728,-14.669 6.218,-16.029C7.708,-17.39 8.485,-19.301 8.549,-21.761L23.024,-20.79C23.024,-16.775 22.021,-13.197 20.012,-10.054C18.006,-6.914 15.237,-4.454 11.706,-2.671C8.177,-0.89 4.145,0 -0.389,0C-4.663,0 -8.419,-0.811 -11.658,-2.429C-14.896,-4.048 -17.422,-6.265 -19.235,-9.083C-21.048,-11.901 -21.956,-15.188 -21.956,-18.944C-21.956,-20.303 -21.81,-21.6 -21.519,-22.829C-21.227,-24.06 -20.805,-25.226 -20.256,-26.327C-19.705,-27.429 -19.024,-28.415 -18.215,-29.29C-17.405,-30.165 -16.482,-30.959 -15.447,-31.671C-17.13,-32.384 -18.636,-33.273 -19.964,-34.341C-21.291,-35.41 -22.393,-36.61 -23.267,-37.936C-24.141,-39.264 -24.805,-40.722 -25.259,-42.308C-25.711,-43.896 -25.939,-45.596 -25.939,-47.408C-25.939,-51.813 -24.853,-55.682 -22.684,-59.017C-20.514,-62.354 -17.487,-64.96 -13.601,-66.838C-9.715,-68.715 -5.181,-69.655 0,-69.655" style="fill:rgb(29,30,28);fill-rule:nonzero;"/>
                </g>
                <g transform="matrix(1,0,0,1,167.206,51.0464)">
                    <path d="M0,3.895C-1.749,-5.891 -11.326,-8.743 -19.94,-21.575C-22.984,-26.11 -24.787,-30.221 -25.787,-32.797L-27.839,-32.802L-27.839,-32.927L-29.952,-32.921C-30.951,-30.346 -32.754,-26.235 -35.798,-21.7C-44.413,-8.868 -53.989,-6.016 -55.738,3.77C-56.133,5.979 -56.298,9.486 -54.512,14.179C-52.554,19.542 -47.34,22.976 -41.83,22.621C-36.82,22.299 -32.418,18.9 -30.729,14.024C-30.671,16.63 -30.871,20.285 -32.028,24.465C-33.289,29.026 -35.215,32.495 -36.72,34.77L-36.72,36.697L-27.9,36.697L-27.9,36.822L-19.019,36.822L-19.019,34.895C-20.523,32.619 -22.449,29.151 -23.711,24.589C-24.867,20.409 -25.067,16.754 -25.009,14.149C-23.32,19.025 -18.918,22.424 -13.908,22.746C-8.399,23.1 -3.184,19.667 -1.226,14.304C0.559,9.611 0.395,6.104 0,3.895" style="fill:rgb(29,29,27);fill-rule:nonzero;"/>
                </g>
                <g transform="matrix(1,0,0,1,13.601,199.95)">
                    <path d="M0,-3.895C1.749,5.891 11.326,8.743 19.94,21.575C22.984,26.11 24.787,30.221 25.787,32.797L27.839,32.802L27.839,32.927L29.952,32.921C30.951,30.346 32.754,26.235 35.798,21.7C44.413,8.868 53.989,6.016 55.738,-3.77C56.133,-5.979 56.298,-9.486 54.512,-14.179C52.554,-19.542 47.34,-22.976 41.83,-22.621C36.82,-22.299 32.418,-18.9 30.729,-14.024C30.671,-16.63 30.871,-20.285 32.028,-24.465C33.289,-29.026 35.215,-32.495 36.72,-34.77L36.72,-36.697L27.9,-36.697L27.9,-36.822L19.019,-36.822L19.019,-34.895C20.523,-32.619 22.449,-29.151 23.711,-24.589C24.867,-20.409 25.067,-16.754 25.009,-14.149C23.32,-19.025 18.918,-22.424 13.908,-22.746C8.399,-23.1 3.184,-19.667 1.226,-14.304C-0.559,-9.611 -0.395,-6.104 0,-3.895" style="fill:rgb(29,29,27);fill-rule:nonzero;"/>
                </g>
            </g>
        </g>
    </g>
</svg>
