<?xml version="1.0" encoding="UTF-8" standalone="no"?>
<!DOCTYPE svg PUBLIC "-//W3C//DTD SVG 1.1//EN" "http://www.w3.org/Graphics/SVG/1.1/DTD/svg11.dtd">
<svg width="100%" height="100%" viewBox="0 0 477 666" version="1.1" xmlns="http://www.w3.org/2000/svg" xmlns:xlink="http://www.w3.org/1999/xlink" xml:space="preserve" xmlns:serif="http://www.serif.com/" style="fill-rule:evenodd;clip-rule:evenodd;stroke-linejoin:round;stroke-miterlimit:2;">
    <g transform="matrix(1,0,0,1,-1607.25,0)">
        <g id="Page-4" serif:id="Page 4" transform="matrix(2.66667,0,0,2.66667,1607.25,0)">
            <rect x="0" y="0" width="178.583" height="249.449" style="fill:white;"/>
            <g id="Слой-1" serif:id="Слой 1">
                <g transform="matrix(1,0,0,1,39.9651,20.1607)">
                    <path d="M0,70.327C-4.569,70.327 -8.725,69.349 -12.466,67.396C-16.208,65.444 -19.254,62.844 -21.604,59.598C-23.955,56.356 -25.396,52.745 -25.925,48.772L-11.224,46.288C-11.159,47.614 -10.745,49.038 -9.983,50.559C-9.222,52.084 -8.03,53.376 -6.407,54.433C-4.785,55.494 -2.716,56.023 -0.199,56.023C2.449,56.023 4.519,55.444 6.009,54.285C7.499,53.127 8.575,51.669 9.238,49.914C9.899,48.16 10.231,46.422 10.231,44.7C10.231,43.044 9.916,41.471 9.287,39.981C8.657,38.492 7.582,37.267 6.059,36.306C4.535,35.347 2.449,34.866 -0.199,34.866C-2.848,34.866 -4.966,35.429 -6.556,36.555C-8.145,37.681 -9.337,38.906 -10.132,40.229L-23.939,36.852L-16.985,0L23.144,0L23.144,13.907L-11.423,13.907L-3.476,7.649L-7.549,28.41L-12.515,27.018C-9.933,24.237 -7.367,22.516 -4.817,21.853C-2.269,21.192 -0.034,20.86 1.887,20.86C6.72,20.86 10.959,21.97 14.601,24.187C18.243,26.407 21.073,29.337 23.094,32.978C25.114,36.621 26.124,40.528 26.124,44.7C26.124,48.011 25.494,51.19 24.236,54.235C22.978,57.282 21.19,60.013 18.873,62.43C16.554,64.848 13.79,66.768 10.578,68.191C7.366,69.615 3.84,70.327 0,70.327" style="fill:rgb(29,30,28);fill-rule:nonzero;"/>
                </g>
                <g transform="matrix(1,0,0,1,139.151,235.768)">
                    <path d="M0,-70.327C4.569,-70.327 8.725,-69.349 12.466,-67.396C16.208,-65.444 19.254,-62.844 21.604,-59.598C23.955,-56.356 25.396,-52.745 25.925,-48.772L11.224,-46.288C11.159,-47.614 10.745,-49.038 9.983,-50.559C9.222,-52.084 8.03,-53.376 6.407,-54.433C4.785,-55.494 2.716,-56.023 0.199,-56.023C-2.449,-56.023 -4.519,-55.444 -6.009,-54.285C-7.499,-53.127 -8.575,-51.669 -9.238,-49.914C-9.899,-48.16 -10.231,-46.422 -10.231,-44.7C-10.231,-43.044 -9.916,-41.471 -9.287,-39.981C-8.657,-38.492 -7.582,-37.267 -6.059,-36.306C-4.535,-35.347 -2.449,-34.866 0.199,-34.866C2.848,-34.866 4.966,-35.429 6.556,-36.555C8.145,-37.681 9.337,-38.906 10.132,-40.229L23.939,-36.852L16.985,0L-23.144,0L-23.144,-13.907L11.423,-13.907L3.476,-7.649L7.549,-28.41L12.515,-27.018C9.933,-24.237 7.367,-22.516 4.817,-21.853C2.269,-21.192 0.034,-20.86 -1.887,-20.86C-6.72,-20.86 -10.959,-21.97 -14.601,-24.187C-18.243,-26.407 -21.073,-29.337 -23.094,-32.978C-25.114,-36.621 -26.124,-40.528 -26.124,-44.7C-26.124,-48.011 -25.494,-51.19 -24.236,-54.235C-22.978,-57.282 -21.19,-60.013 -18.873,-62.43C-16.554,-64.848 -13.79,-66.768 -10.578,-68.191C-7.366,-69.615 -3.84,-70.327 0,-70.327" style="fill:rgb(29,30,28);fill-rule:nonzero;"/>
                </g>
                <g transform="matrix(1,0,0,1,169.36,52.8366)">
                    <path d="M0,3.895C-1.749,-5.891 -11.326,-8.743 -19.94,-21.575C-22.984,-26.11 -24.787,-30.221 -25.787,-32.797L-27.839,-32.802L-27.839,-32.927L-29.952,-32.921C-30.951,-30.346 -32.754,-26.235 -35.798,-21.7C-44.413,-8.868 -53.989,-6.016 -55.738,3.77C-56.133,5.979 -56.298,9.486 -54.512,14.179C-52.554,19.542 -47.34,22.976 -41.83,22.621C-36.82,22.299 -32.418,18.9 -30.729,14.024C-30.671,16.63 -30.871,20.285 -32.028,24.465C-33.289,29.026 -35.215,32.495 -36.72,34.77L-36.72,36.697L-27.9,36.697L-27.9,36.822L-19.019,36.822L-19.019,34.895C-20.523,32.619 -22.449,29.151 -23.711,24.589C-24.867,20.409 -25.067,16.754 -25.009,14.149C-23.32,19.025 -18.918,22.424 -13.908,22.746C-8.399,23.1 -3.184,19.667 -1.226,14.304C0.559,9.611 0.395,6.104 0,3.895" style="fill:rgb(29,29,27);fill-rule:nonzero;"/>
                </g>
                <g transform="matrix(1,0,0,1,15.7549,201.741)">
                    <path d="M0,-3.895C1.749,5.891 11.326,8.743 19.94,21.575C22.984,26.11 24.787,30.221 25.787,32.797L27.839,32.802L27.839,32.927L29.952,32.921C30.951,30.346 32.754,26.235 35.798,21.7C44.413,8.868 53.989,6.016 55.738,-3.77C56.133,-5.979 56.298,-9.486 54.512,-14.179C52.554,-19.542 47.34,-22.976 41.83,-22.621C36.82,-22.299 32.418,-18.9 30.729,-14.024C30.671,-16.63 30.871,-20.285 32.028,-24.465C33.289,-29.026 35.215,-32.495 36.72,-34.77L36.72,-36.697L27.9,-36.697L27.9,-36.822L19.019,-36.822L19.019,-34.895C20.523,-32.619 22.449,-29.151 23.711,-24.589C24.867,-20.409 25.067,-16.754 25.009,-14.149C23.32,-19.025 18.918,-22.424 13.908,-22.746C8.399,-23.1 3.184,-19.667 1.226,-14.304C-0.559,-9.611 -0.395,-6.104 0,-3.895" style="fill:rgb(29,29,27);fill-rule:nonzero;"/>
                </g>
            </g>
        </g>
    </g>
</svg>
