<?xml version="1.0" encoding="UTF-8" standalone="no"?>
<!DOCTYPE svg PUBLIC "-//W3C//DTD SVG 1.1//EN" "http://www.w3.org/Graphics/SVG/1.1/DTD/svg11.dtd">
<svg width="100%" height="100%" viewBox="0 0 477 666" version="1.1" xmlns="http://www.w3.org/2000/svg" xmlns:xlink="http://www.w3.org/1999/xlink" xml:space="preserve" xmlns:serif="http://www.serif.com/" style="fill-rule:evenodd;clip-rule:evenodd;stroke-linejoin:round;stroke-miterlimit:2;">
    <g transform="matrix(1,0,0,1,-2143,0)">
        <g id="Page-5" serif:id="Page 5" transform="matrix(2.66667,0,0,2.66667,2143,0)">
            <rect x="0" y="0" width="178.583" height="249.449" style="fill:white;"/>
            <g id="Слой-1" serif:id="Слой 1">
                <g transform="matrix(1,0,0,1,39.245,54.3625)">
                    <path d="M0,-0.202C-2.09,-0.202 -3.978,0.22 -5.663,1.063C-7.349,1.906 -8.697,3.12 -9.708,4.703C-10.72,6.287 -11.225,8.226 -11.225,10.518C-11.225,12.743 -10.72,14.648 -9.708,16.231C-8.697,17.817 -7.349,19.03 -5.663,19.873C-3.978,20.716 -2.09,21.136 0,21.136C2.089,21.136 3.96,20.716 5.613,19.873C7.264,19.03 8.596,17.817 9.607,16.231C10.619,14.648 11.124,12.743 11.124,10.518C11.124,8.226 10.635,6.287 9.658,4.703C8.68,3.12 7.348,1.906 5.663,1.063C3.977,0.22 2.089,-0.202 0,-0.202M15.776,-35.901L-1.315,-10.719L-3.236,-13.147C-2.293,-13.281 -1.383,-13.4 -0.505,-13.5C0.37,-13.601 1.247,-13.652 2.124,-13.652C6.776,-13.652 10.955,-12.59 14.664,-10.467C18.371,-8.343 21.288,-5.461 23.412,-1.82C25.535,1.821 26.597,5.934 26.597,10.518C26.597,15.508 25.384,19.89 22.957,23.665C20.53,27.441 17.309,30.39 13.298,32.514C9.286,34.637 4.855,35.699 0,35.699C-4.854,35.699 -9.321,34.637 -13.399,32.514C-17.479,30.39 -20.731,27.441 -23.158,23.665C-25.585,19.89 -26.799,15.541 -26.799,10.619C-26.799,8.259 -26.445,5.934 -25.737,3.641C-25.029,1.349 -24.035,-0.841 -22.754,-2.932L-1.82,-35.901L15.776,-35.901Z" style="fill:rgb(29,30,28);fill-rule:nonzero;"/>
                </g>
                <g transform="matrix(1,0,0,1,142.433,199.719)">
                    <path d="M0,0.202C2.09,0.202 3.978,-0.22 5.663,-1.063C7.349,-1.906 8.697,-3.12 9.708,-4.703C10.72,-6.287 11.225,-8.226 11.225,-10.518C11.225,-12.743 10.72,-14.648 9.708,-16.231C8.697,-17.817 7.349,-19.03 5.663,-19.873C3.978,-20.716 2.09,-21.136 0,-21.136C-2.089,-21.136 -3.96,-20.716 -5.613,-19.873C-7.264,-19.03 -8.596,-17.817 -9.607,-16.231C-10.619,-14.648 -11.124,-12.743 -11.124,-10.518C-11.124,-8.226 -10.635,-6.287 -9.658,-4.703C-8.68,-3.12 -7.348,-1.906 -5.663,-1.063C-3.977,-0.22 -2.089,0.202 0,0.202M-15.776,35.901L1.315,10.719L3.236,13.147C2.293,13.281 1.383,13.4 0.505,13.5C-0.37,13.601 -1.247,13.652 -2.124,13.652C-6.776,13.652 -10.955,12.59 -14.664,10.467C-18.371,8.343 -21.288,5.461 -23.412,1.82C-25.535,-1.821 -26.597,-5.934 -26.597,-10.518C-26.597,-15.508 -25.384,-19.89 -22.957,-23.665C-20.53,-27.441 -17.309,-30.39 -13.298,-32.514C-9.286,-34.637 -4.855,-35.699 0,-35.699C4.854,-35.699 9.321,-34.637 13.399,-32.514C17.479,-30.39 20.731,-27.441 23.158,-23.665C25.585,-19.89 26.799,-15.541 26.799,-10.619C26.799,-8.259 26.445,-5.934 25.737,-3.641C25.029,-1.349 24.035,0.841 22.754,2.932L1.82,35.901L-15.776,35.901Z" style="fill:rgb(29,30,28);fill-rule:nonzero;"/>
                </g>
                <g transform="matrix(1,0,0,1,165.961,52.8366)">
                    <path d="M0,3.895C-1.749,-5.891 -11.326,-8.743 -19.94,-21.575C-22.984,-26.11 -24.787,-30.221 -25.787,-32.797L-27.839,-32.802L-27.839,-32.927L-29.952,-32.921C-30.951,-30.346 -32.754,-26.235 -35.798,-21.7C-44.413,-8.868 -53.989,-6.016 -55.738,3.77C-56.133,5.979 -56.298,9.486 -54.512,14.179C-52.554,19.542 -47.34,22.976 -41.83,22.621C-36.82,22.299 -32.418,18.9 -30.729,14.024C-30.671,16.63 -30.871,20.285 -32.028,24.465C-33.289,29.026 -35.215,32.495 -36.72,34.77L-36.72,36.697L-27.9,36.697L-27.9,36.822L-19.019,36.822L-19.019,34.895C-20.523,32.619 -22.449,29.151 -23.711,24.589C-24.867,20.409 -25.067,16.754 -25.009,14.149C-23.32,19.025 -18.918,22.424 -13.908,22.746C-8.399,23.1 -3.184,19.667 -1.226,14.304C0.559,9.611 0.395,6.104 0,3.895" style="fill:rgb(29,29,27);fill-rule:nonzero;"/>
                </g>
                <g transform="matrix(1,0,0,1,12.3562,201.741)">
                    <path d="M0,-3.895C1.749,5.891 11.326,8.743 19.94,21.575C22.984,26.11 24.787,30.221 25.787,32.797L27.839,32.802L27.839,32.927L29.952,32.921C30.951,30.346 32.754,26.235 35.798,21.7C44.413,8.868 53.989,6.016 55.738,-3.77C56.133,-5.979 56.298,-9.486 54.512,-14.179C52.554,-19.542 47.34,-22.976 41.83,-22.621C36.82,-22.299 32.418,-18.9 30.729,-14.024C30.671,-16.63 30.871,-20.285 32.028,-24.465C33.289,-29.026 35.215,-32.495 36.72,-34.77L36.72,-36.697L27.9,-36.697L27.9,-36.822L19.019,-36.822L19.019,-34.895C20.523,-32.619 22.449,-29.151 23.711,-24.589C24.867,-20.409 25.067,-16.754 25.009,-14.149C23.32,-19.025 18.918,-22.424 13.908,-22.746C8.399,-23.1 3.184,-19.667 1.226,-14.304C-0.559,-9.611 -0.395,-6.104 0,-3.895" style="fill:rgb(29,29,27);fill-rule:nonzero;"/>
                </g>
            </g>
        </g>
    </g>
</svg>
