<?xml version="1.0" encoding="UTF-8" standalone="no"?>
<!DOCTYPE svg PUBLIC "-//W3C//DTD SVG 1.1//EN" "http://www.w3.org/Graphics/SVG/1.1/DTD/svg11.dtd">
<svg width="100%" height="100%" viewBox="0 0 477 666" version="1.1" xmlns="http://www.w3.org/2000/svg" xmlns:xlink="http://www.w3.org/1999/xlink" xml:space="preserve" xmlns:serif="http://www.serif.com/" style="fill-rule:evenodd;clip-rule:evenodd;stroke-linejoin:round;stroke-miterlimit:2;">
    <g transform="matrix(1,0,0,1,-3750.24,0)">
        <g id="Page-8" serif:id="Page 8" transform="matrix(2.66667,0,0,2.66667,3750.24,0)">
            <rect x="0" y="0" width="178.583" height="249.449" style="fill:white;"/>
            <g id="Слой-1" serif:id="Слой 1">
                <g transform="matrix(1,0,0,1,45.9743,53.5413)">
                    <path d="M0,0.202C2.088,0.202 3.975,-0.218 5.659,-1.061C7.343,-1.902 8.691,-3.115 9.702,-4.7C10.713,-6.282 11.218,-8.219 11.218,-10.51C11.218,-12.8 10.713,-14.719 9.702,-16.271C8.691,-17.819 7.343,-19.015 5.659,-19.858C3.975,-20.7 2.088,-21.121 0,-21.121C-2.021,-21.121 -3.875,-20.7 -5.558,-19.858C-7.243,-19.015 -8.59,-17.819 -9.601,-16.271C-10.611,-14.719 -11.116,-12.8 -11.116,-10.51C-11.116,-8.286 -10.628,-6.367 -9.651,-4.75C-8.675,-3.133 -7.344,-1.902 -5.659,-1.061C-3.976,-0.218 -2.089,0.202 0,0.202M-15.765,35.876L1.314,10.712L3.234,13.138C2.358,13.274 1.465,13.39 0.556,13.491C-0.353,13.592 -1.247,13.643 -2.122,13.643C-6.771,13.643 -10.931,12.582 -14.603,10.459C-18.276,8.337 -21.189,5.457 -23.345,1.819C-25.501,-1.82 -26.578,-5.927 -26.578,-10.51C-26.578,-15.495 -25.366,-19.874 -22.94,-23.648C-20.515,-27.42 -17.281,-30.369 -13.238,-32.49C-9.196,-34.612 -4.784,-35.674 0,-35.674C4.918,-35.674 9.399,-34.612 13.441,-32.49C17.484,-30.369 20.718,-27.42 23.143,-23.648C25.568,-19.874 26.781,-15.528 26.781,-10.611C26.781,-8.32 26.443,-6.013 25.77,-3.688C25.096,-1.364 24.085,0.843 22.739,2.93L1.819,35.876L-15.765,35.876Z" style="fill:rgb(29,30,28);fill-rule:nonzero;"/>
                </g>
                <g transform="matrix(1,0,0,1,138.585,199.85)">
                    <path d="M0,-0.202C-2.088,-0.202 -3.975,0.218 -5.659,1.061C-7.343,1.902 -8.691,3.115 -9.702,4.7C-10.713,6.282 -11.218,8.219 -11.218,10.51C-11.218,12.8 -10.713,14.719 -9.702,16.271C-8.691,17.819 -7.343,19.015 -5.659,19.858C-3.975,20.7 -2.088,21.122 0,21.122C2.021,21.122 3.875,20.7 5.558,19.858C7.243,19.015 8.59,17.819 9.601,16.271C10.611,14.719 11.116,12.8 11.116,10.51C11.116,8.286 10.628,6.367 9.651,4.75C8.675,3.133 7.344,1.902 5.659,1.061C3.976,0.218 2.089,-0.202 0,-0.202M15.765,-35.876L-1.314,-10.712L-3.234,-13.138C-2.358,-13.274 -1.465,-13.39 -0.556,-13.491C0.353,-13.592 1.247,-13.643 2.122,-13.643C6.771,-13.643 10.931,-12.582 14.603,-10.459C18.276,-8.337 21.189,-5.457 23.345,-1.819C25.501,1.82 26.578,5.927 26.578,10.51C26.578,15.495 25.366,19.874 22.94,23.648C20.515,27.42 17.281,30.369 13.238,32.49C9.196,34.612 4.784,35.674 0,35.674C-4.918,35.674 -9.399,34.612 -13.441,32.49C-17.484,30.369 -20.718,27.42 -23.143,23.648C-25.568,19.874 -26.781,15.528 -26.781,10.612C-26.781,8.32 -26.443,6.013 -25.77,3.688C-25.096,1.364 -24.085,-0.843 -22.739,-2.93L-1.819,-35.876L15.765,-35.876Z" style="fill:rgb(29,30,28);fill-rule:nonzero;"/>
                </g>
                <g transform="matrix(1,0,0,1,165.553,52.8366)">
                    <path d="M0,3.895C-1.749,-5.891 -11.326,-8.743 -19.94,-21.575C-22.984,-26.11 -24.787,-30.221 -25.787,-32.797L-27.839,-32.802L-27.839,-32.927L-29.952,-32.921C-30.951,-30.346 -32.754,-26.235 -35.798,-21.7C-44.413,-8.868 -53.989,-6.016 -55.738,3.77C-56.133,5.979 -56.298,9.486 -54.512,14.179C-52.554,19.542 -47.34,22.976 -41.83,22.621C-36.82,22.299 -32.418,18.9 -30.729,14.024C-30.671,16.63 -30.871,20.285 -32.028,24.465C-33.289,29.026 -35.215,32.495 -36.72,34.77L-36.72,36.697L-27.9,36.697L-27.9,36.822L-19.019,36.822L-19.019,34.895C-20.523,32.619 -22.449,29.151 -23.711,24.589C-24.867,20.409 -25.067,16.754 -25.009,14.149C-23.32,19.025 -18.918,22.424 -13.908,22.746C-8.399,23.1 -3.184,19.667 -1.226,14.304C0.559,9.611 0.395,6.104 0,3.895" style="fill:rgb(29,29,27);fill-rule:nonzero;"/>
                </g>
                <g transform="matrix(1,0,0,1,11.9481,201.741)">
                    <path d="M0,-3.895C1.749,5.891 11.326,8.743 19.94,21.575C22.984,26.11 24.787,30.221 25.787,32.797L27.839,32.802L27.839,32.927L29.952,32.921C30.951,30.346 32.754,26.235 35.798,21.7C44.413,8.868 53.989,6.016 55.738,-3.77C56.133,-5.979 56.298,-9.486 54.512,-14.179C52.554,-19.542 47.34,-22.976 41.83,-22.621C36.82,-22.299 32.418,-18.9 30.729,-14.024C30.671,-16.63 30.871,-20.285 32.028,-24.465C33.289,-29.026 35.215,-32.495 36.72,-34.77L36.72,-36.697L27.9,-36.697L27.9,-36.822L19.019,-36.822L19.019,-34.895C20.523,-32.619 22.449,-29.151 23.711,-24.589C24.867,-20.409 25.067,-16.754 25.009,-14.149C23.32,-19.025 18.918,-22.424 13.908,-22.746C8.399,-23.1 3.184,-19.667 1.226,-14.304C-0.559,-9.611 -0.395,-6.104 0,-3.895" style="fill:rgb(29,29,27);fill-rule:nonzero;"/>
                </g>
            </g>
        </g>
    </g>
</svg>
