<?xml version="1.0" encoding="UTF-8" standalone="no"?>
<!DOCTYPE svg PUBLIC "-//W3C//DTD SVG 1.1//EN" "http://www.w3.org/Graphics/SVG/1.1/DTD/svg11.dtd">
<svg width="100%" height="100%" viewBox="0 0 477 666" version="1.1" xmlns="http://www.w3.org/2000/svg" xmlns:xlink="http://www.w3.org/1999/xlink" xml:space="preserve" xmlns:serif="http://www.serif.com/" style="fill-rule:evenodd;clip-rule:evenodd;stroke-linejoin:round;stroke-miterlimit:2;">
    <g transform="matrix(1,0,0,1,0,-748.347)">
        <g id="Page-11" serif:id="Page 11" transform="matrix(2.66667,0,0,2.66667,0,748.347)">
            <rect x="0" y="0" width="178.583" height="249.449" style="fill:white;"/>
            <g id="Слой-1" serif:id="Слой 1">
                <g transform="matrix(1,0,0,1,70.7341,19.5622)">
                    <path d="M0,72.261L-27.342,45.943L-18.879,36.921L8.742,63.798L0,72.261ZM-27.342,54.219C-23.808,54.219 -20.771,53.399 -18.228,51.755C-15.686,50.113 -13.717,47.787 -12.322,44.78C-10.927,41.774 -10.229,38.223 -10.229,34.131C-10.229,29.979 -10.927,26.398 -12.322,23.39C-13.717,20.383 -15.686,18.058 -18.228,16.415C-20.771,14.773 -23.808,13.95 -27.342,13.95C-30.814,13.95 -33.837,14.757 -36.409,16.368C-38.982,17.982 -40.966,20.29 -42.361,23.297C-43.756,26.305 -44.453,29.916 -44.453,34.131C-44.453,38.285 -43.756,41.866 -42.361,44.873C-40.966,47.881 -38.982,50.19 -36.409,51.801C-33.837,53.414 -30.814,54.219 -27.342,54.219M-27.342,68.169C-33.542,68.169 -39.029,66.758 -43.803,63.938C-48.577,61.117 -52.313,57.149 -55.009,52.033C-57.706,46.919 -59.055,40.952 -59.055,34.131C-59.055,27.312 -57.722,21.344 -55.056,16.229C-52.391,11.114 -48.671,7.131 -43.896,4.279C-39.122,1.427 -33.604,0 -27.342,0C-21.018,0 -15.47,1.411 -10.694,4.232C-5.921,7.054 -2.201,11.021 0.466,16.136C3.131,21.251 4.465,27.249 4.465,34.131C4.465,40.952 3.116,46.919 0.419,52.033C-2.278,57.149 -6.014,61.117 -10.787,63.938C-15.563,66.758 -21.08,68.169 -27.342,68.169" style="fill:rgb(29,30,28);fill-rule:nonzero;"/>
                </g>
                <g transform="matrix(1,0,0,1,107.165,235.97)">
                    <path d="M0,-72.261L27.342,-45.943L18.879,-36.921L-8.742,-63.798L0,-72.261ZM27.342,-54.219C23.808,-54.219 20.771,-53.399 18.228,-51.755C15.686,-50.113 13.717,-47.787 12.322,-44.78C10.927,-41.774 10.229,-38.223 10.229,-34.131C10.229,-29.979 10.927,-26.398 12.322,-23.39C13.717,-20.383 15.686,-18.058 18.228,-16.415C20.771,-14.773 23.808,-13.95 27.342,-13.95C30.814,-13.95 33.837,-14.757 36.409,-16.368C38.982,-17.982 40.966,-20.29 42.361,-23.297C43.756,-26.305 44.453,-29.916 44.453,-34.131C44.453,-38.285 43.756,-41.866 42.361,-44.873C40.966,-47.881 38.982,-50.19 36.409,-51.801C33.837,-53.414 30.814,-54.219 27.342,-54.219M27.342,-68.169C33.542,-68.169 39.029,-66.758 43.803,-63.938C48.577,-61.117 52.312,-57.149 55.009,-52.033C57.706,-46.919 59.055,-40.952 59.055,-34.131C59.055,-27.312 57.722,-21.344 55.056,-16.229C52.391,-11.114 48.671,-7.131 43.895,-4.279C39.122,-1.427 33.604,0 27.342,0C21.018,0 15.47,-1.411 10.694,-4.232C5.921,-7.054 2.201,-11.021 -0.466,-16.136C-3.131,-21.251 -4.465,-27.249 -4.465,-34.131C-4.465,-40.952 -3.116,-46.919 -0.419,-52.033C2.278,-57.149 6.014,-61.117 10.787,-63.938C15.563,-66.758 21.08,-68.169 27.342,-68.169" style="fill:rgb(29,30,28);fill-rule:nonzero;"/>
                </g>
                <g transform="matrix(1,0,0,1,166.658,51.2631)">
                    <path d="M0,3.895C-1.749,-5.891 -11.326,-8.743 -19.94,-21.575C-22.984,-26.11 -24.787,-30.221 -25.787,-32.797L-27.839,-32.802L-27.839,-32.927L-29.952,-32.921C-30.951,-30.346 -32.754,-26.235 -35.798,-21.7C-44.413,-8.868 -53.989,-6.016 -55.738,3.77C-56.133,5.979 -56.298,9.486 -54.512,14.179C-52.554,19.542 -47.34,22.976 -41.83,22.621C-36.82,22.299 -32.418,18.9 -30.729,14.024C-30.671,16.63 -30.871,20.285 -32.028,24.465C-33.289,29.026 -35.215,32.495 -36.72,34.77L-36.72,36.697L-27.9,36.697L-27.9,36.822L-19.019,36.822L-19.019,34.895C-20.523,32.619 -22.449,29.151 -23.711,24.589C-24.867,20.409 -25.067,16.754 -25.009,14.149C-23.32,19.025 -18.918,22.424 -13.908,22.746C-8.399,23.1 -3.184,19.667 -1.226,14.304C0.559,9.611 0.395,6.104 0,3.895" style="fill:rgb(29,29,27);fill-rule:nonzero;"/>
                </g>
                <g transform="matrix(1,0,0,1,13.0538,200.167)">
                    <path d="M0,-3.895C1.749,5.891 11.326,8.743 19.94,21.575C22.984,26.11 24.787,30.221 25.787,32.797L27.839,32.802L27.839,32.927L29.952,32.921C30.951,30.346 32.754,26.235 35.798,21.7C44.413,8.868 53.989,6.016 55.738,-3.77C56.133,-5.979 56.298,-9.486 54.512,-14.179C52.554,-19.542 47.34,-22.976 41.83,-22.621C36.82,-22.299 32.418,-18.9 30.729,-14.024C30.671,-16.63 30.871,-20.285 32.028,-24.465C33.289,-29.026 35.215,-32.495 36.72,-34.77L36.72,-36.697L27.9,-36.697L27.9,-36.822L19.019,-36.822L19.019,-34.895C20.523,-32.619 22.449,-29.151 23.711,-24.589C24.867,-20.409 25.067,-16.754 25.009,-14.149C23.32,-19.025 18.918,-22.424 13.908,-22.746C8.399,-23.1 3.184,-19.667 1.226,-14.304C-0.559,-9.611 -0.395,-6.104 0,-3.895" style="fill:rgb(29,29,27);fill-rule:nonzero;"/>
                </g>
            </g>
        </g>
    </g>
</svg>
