<svg width="477" height="666" viewBox="0 0 477 666" fill="none" xmlns="http://www.w3.org/2000/svg">
<path d="M426.222 0H50C22.3858 0 0 22.3858 0 50.0001V615.198C0 642.812 22.3858 665.198 50 665.198H426.222C453.836 665.198 476.222 642.812 476.222 615.198V50C476.222 22.3858 453.836 0 426.222 0Z" fill="#3C3C3C"/>
<rect x="15" y="15" width="446" height="636" rx="35" stroke="#A0A0A0" stroke-width="30"/>
<path fill-rule="evenodd" clip-rule="evenodd" d="M237.783 170C268.548 190.849 343.792 254.287 372.709 336.874C382.5 372.403 370.176 413.552 339.303 427.869C296.903 447.53 259.268 421.693 256.803 419.69C252.451 435.128 256.802 446.227 263.14 459.034C269.434 471.752 277.498 483.59 284.897 496C254.185 496 223.078 496 190.872 496C208.533 473.085 224.035 449.758 216.917 419.67C206.327 424.318 196.703 430.251 186.254 432.822C92.9909 447.531 96.6858 362.126 104.828 336.716C124.068 276.668 213.485 189.872 237.783 170Z" fill="#A0A0A0"/>
</svg>
